<svg
          width="200"
          height="52"
          viewBox="0 0 200 52"
          fill="none"
          xmlns="http://www.w3.org/2000/svg"
          class="h-10 w-40"
        >
          <path
            d="M10.608 29.92C8.656 29.92 6.96 29.488 5.52 28.624C4.08 27.776 2.968 26.576 2.184 25.024C1.4 23.472 1.008 21.64 1.008 19.528C1.008 18.728 1.104 17.84 1.296 16.864C1.504 15.872 1.832 14.888 2.28 13.912C2.728 12.92 3.328 12.016 4.08 11.2C4.832 10.384 5.752 9.728 6.84 9.232C7.928 8.72 9.208 8.464 10.68 8.464C11.944 8.464 13.048 8.624 13.992 8.944C14.936 9.248 15.752 9.64 16.44 10.12C17.128 10.584 17.696 11.072 18.144 11.584C18.608 12.096 18.976 12.568 19.248 13C19.52 13.416 19.72 13.72 19.848 13.912L16.368 16.576C16.016 15.92 15.6 15.28 15.12 14.656C14.64 14.016 14.048 13.488 13.344 13.072C12.64 12.656 11.768 12.448 10.728 12.448C9.656 12.448 8.768 12.688 8.064 13.168C7.36 13.648 6.8 14.256 6.384 14.992C5.984 15.728 5.704 16.512 5.544 17.344C5.384 18.16 5.304 18.92 5.304 19.624C5.304 20.376 5.384 21.12 5.544 21.856C5.704 22.592 5.976 23.264 6.36 23.872C6.76 24.48 7.288 24.968 7.944 25.336C8.616 25.688 9.456 25.864 10.464 25.864C11.584 25.864 12.496 25.664 13.2 25.264C13.92 24.864 14.52 24.304 15 23.584C15.48 22.848 15.928 21.992 16.344 21.016L20.28 22.792C19.576 24.248 18.784 25.512 17.904 26.584C17.024 27.656 15.992 28.48 14.808 29.056C13.624 29.632 12.224 29.92 10.608 29.92ZM28.5744 29.896C27.3744 29.896 26.2864 29.584 25.3104 28.96C24.3344 28.352 23.5584 27.528 22.9824 26.488C22.4224 25.432 22.1424 24.256 22.1424 22.96C22.1424 21.744 22.3664 20.648 22.8144 19.672C23.2624 18.68 23.8704 17.832 24.6384 17.128C25.4224 16.424 26.3104 15.888 27.3024 15.52C28.2944 15.136 29.3344 14.944 30.4224 14.944C31.3344 14.944 32.2304 15.072 33.1104 15.328C33.1744 14.992 33.2304 14.656 33.2784 14.32L37.3824 15.016C37.2704 15.32 37.1584 15.776 37.0464 16.384C36.9344 16.992 36.8384 17.672 36.7584 18.424C36.6944 19.176 36.6384 19.928 36.5904 20.68C36.5424 21.432 36.5184 22.112 36.5184 22.72C36.5184 23.216 36.5504 23.704 36.6144 24.184C36.6944 24.648 36.8544 25.032 37.0944 25.336C37.3344 25.624 37.7024 25.768 38.1984 25.768H38.5344L37.9344 29.944C36.8784 29.944 36.0064 29.76 35.3184 29.392C34.6304 29.04 34.0784 28.56 33.6624 27.952C32.9744 28.72 32.1904 29.232 31.3104 29.488C30.4304 29.76 29.5184 29.896 28.5744 29.896ZM26.0784 23.44C26.1584 24.208 26.4704 24.824 27.0144 25.288C27.5744 25.736 28.2784 25.96 29.1264 25.96C29.9424 25.96 30.6224 25.744 31.1664 25.312C31.7104 24.864 32.1584 24.256 32.5104 23.488C32.4944 23.232 32.4864 22.968 32.4864 22.696C32.4864 22.136 32.5024 21.56 32.5344 20.968C32.5664 20.376 32.6064 19.792 32.6544 19.216C31.9824 18.96 31.2784 18.832 30.5424 18.832C29.6784 18.832 28.9024 19.008 28.2144 19.36C27.5424 19.696 27.0144 20.168 26.6304 20.776C26.2464 21.384 26.0544 22.088 26.0544 22.888C26.0544 22.984 26.0544 23.08 26.0544 23.176C26.0544 23.272 26.0624 23.36 26.0784 23.44ZM40.2268 34.816C40.1148 33.536 40.0348 32.248 39.9868 30.952C39.9388 29.656 39.9148 28.16 39.9148 26.464C39.9148 24.4 39.9468 22.344 40.0108 20.296C40.0748 18.248 40.1708 16.376 40.2988 14.68L44.4268 14.8C44.3788 15.168 44.3388 15.56 44.3068 15.976C44.8828 15.592 45.4988 15.312 46.1548 15.136C46.8268 14.96 47.5068 14.872 48.1948 14.872C49.0748 14.872 49.9308 15.016 50.7628 15.304C51.5948 15.576 52.3468 16.016 53.0188 16.624C53.6908 17.216 54.2188 17.984 54.6028 18.928C55.0028 19.872 55.2028 21.008 55.2028 22.336C55.2028 23.648 55.0028 24.792 54.6028 25.768C54.2028 26.744 53.6668 27.544 52.9948 28.168C52.3228 28.808 51.5708 29.28 50.7388 29.584C49.9068 29.904 49.0508 30.064 48.1708 30.064C46.5548 30.064 45.1308 29.584 43.8988 28.624C43.9308 29.648 43.9788 30.632 44.0428 31.576C44.1068 32.536 44.1868 33.512 44.2828 34.504L40.2268 34.816ZM47.5468 18.856C45.9628 18.856 44.7708 19.632 43.9708 21.184C43.9228 22.144 43.8908 23.12 43.8748 24.112C44.2588 24.624 44.7548 25.072 45.3628 25.456C45.9708 25.824 46.7468 26.008 47.6908 26.008C49.9468 26.008 51.0748 24.72 51.0748 22.144C51.0748 21.456 50.9468 20.896 50.6908 20.464C50.4348 20.032 50.1148 19.704 49.7308 19.48C49.3468 19.24 48.9548 19.08 48.5548 19C48.1548 18.904 47.8188 18.856 47.5468 18.856ZM56.8847 12.496C56.8847 12.352 56.8767 12.208 56.8607 12.064C56.8607 11.904 56.8607 11.728 56.8607 11.536C56.8607 11.024 56.8767 10.48 56.9087 9.904C56.9407 9.328 56.9727 8.84 57.0047 8.44L61.2767 8.512C61.2287 9.056 61.1727 9.672 61.1087 10.36C61.0607 11.048 61.0287 11.76 61.0127 12.496H56.8847ZM56.7887 29.68C56.7407 28.688 56.7087 27.632 56.6927 26.512C56.6767 25.376 56.6687 24.24 56.6687 23.104C56.6687 21.616 56.6847 20.168 56.7167 18.76C56.7487 17.352 56.7887 16.072 56.8367 14.92L60.9647 14.896C60.9007 15.632 60.8607 16.544 60.8447 17.632C60.8287 18.704 60.8207 19.832 60.8207 21.016C60.8207 22.184 60.8287 23.336 60.8447 24.472C60.8607 25.608 60.8767 26.64 60.8927 27.568C60.9247 28.48 60.9487 29.184 60.9647 29.68H56.7887ZM70.4848 29.896C69.5248 29.896 68.7648 29.688 68.2048 29.272C67.6448 28.872 67.2368 28.312 66.9808 27.592C66.7248 26.872 66.5568 26.048 66.4768 25.12C66.4128 24.192 66.3808 23.216 66.3808 22.192C66.3808 21.136 66.4208 20.04 66.5008 18.904C65.4288 19.048 64.3968 19.232 63.4048 19.456L62.6608 15.688C63.9888 15.336 65.4048 15.08 66.9088 14.92C67.0208 14.104 67.1408 13.248 67.2688 12.352C67.3968 11.44 67.5408 10.48 67.7008 9.472L71.8288 9.832C71.6368 10.664 71.4688 11.496 71.3248 12.328C71.1808 13.144 71.0528 13.936 70.9408 14.704C71.8368 14.704 72.6768 14.728 73.4608 14.776C74.2608 14.808 74.9968 14.872 75.6688 14.968L75.1888 18.736C74.6288 18.672 74.0448 18.632 73.4368 18.616C72.8448 18.584 72.2448 18.568 71.6368 18.568C71.2688 18.568 70.9008 18.576 70.5328 18.592C70.4368 19.76 70.3728 20.76 70.3408 21.592C70.3248 22.424 70.3168 23.016 70.3168 23.368C70.3168 24.248 70.3648 24.88 70.4608 25.264C70.5728 25.648 70.7488 25.84 70.9888 25.84C71.2608 25.84 71.5648 25.752 71.9008 25.576C72.2368 25.384 72.5648 25.128 72.8848 24.808C73.2208 24.488 73.5008 24.144 73.7248 23.776L75.5728 27.64C73.9888 29.144 72.2928 29.896 70.4848 29.896ZM83.3948 29.896C82.1948 29.896 81.1068 29.584 80.1308 28.96C79.1548 28.352 78.3788 27.528 77.8027 26.488C77.2428 25.432 76.9628 24.256 76.9628 22.96C76.9628 21.744 77.1868 20.648 77.6348 19.672C78.0828 18.68 78.6908 17.832 79.4588 17.128C80.2428 16.424 81.1308 15.888 82.1228 15.52C83.1148 15.136 84.1548 14.944 85.2428 14.944C86.1548 14.944 87.0508 15.072 87.9308 15.328C87.9948 14.992 88.0508 14.656 88.0988 14.32L92.2028 15.016C92.0908 15.32 91.9788 15.776 91.8668 16.384C91.7548 16.992 91.6588 17.672 91.5788 18.424C91.5148 19.176 91.4588 19.928 91.4108 20.68C91.3628 21.432 91.3388 22.112 91.3388 22.72C91.3388 23.216 91.3708 23.704 91.4348 24.184C91.5148 24.648 91.6748 25.032 91.9148 25.336C92.1548 25.624 92.5228 25.768 93.0188 25.768H93.3548L92.7548 29.944C91.6988 29.944 90.8268 29.76 90.1388 29.392C89.4508 29.04 88.8988 28.56 88.4828 27.952C87.7948 28.72 87.0108 29.232 86.1308 29.488C85.2508 29.76 84.3388 29.896 83.3948 29.896ZM80.8988 23.44C80.9788 24.208 81.2908 24.824 81.8348 25.288C82.3948 25.736 83.0988 25.96 83.9468 25.96C84.7628 25.96 85.4428 25.744 85.9868 25.312C86.5308 24.864 86.9788 24.256 87.3308 23.488C87.3148 23.232 87.3068 22.968 87.3068 22.696C87.3068 22.136 87.3228 21.56 87.3548 20.968C87.3868 20.376 87.4268 19.792 87.4748 19.216C86.8028 18.96 86.0988 18.832 85.3628 18.832C84.4988 18.832 83.7228 19.008 83.0348 19.36C82.3628 19.696 81.8348 20.168 81.4508 20.776C81.0668 21.384 80.8748 22.088 80.8748 22.888C80.8748 22.984 80.8748 23.08 80.8748 23.176C80.8748 23.272 80.8828 23.36 80.8988 23.44ZM99.5351 29.896C98.6551 29.896 97.9271 29.704 97.3511 29.32C96.7911 28.952 96.3431 28.44 96.0071 27.784C95.6871 27.128 95.4471 26.376 95.2871 25.528C95.1431 24.68 95.0471 23.776 94.9991 22.816C94.9671 21.84 94.9511 20.864 94.9511 19.888C94.9511 19.04 94.9751 18.112 95.0231 17.104C95.0711 16.08 95.1271 15.048 95.1911 14.008C95.2711 12.952 95.3511 11.96 95.4311 11.032C95.5271 10.104 95.6151 9.296 95.6951 8.608L100.039 8.656C99.9111 9.472 99.7911 10.4 99.6791 11.44C99.5671 12.464 99.4711 13.504 99.3911 14.56C99.3271 15.616 99.2711 16.592 99.2231 17.488C99.1911 18.384 99.1751 19.096 99.1751 19.624C99.1751 21.08 99.1991 22.224 99.2471 23.056C99.3111 23.888 99.3991 24.48 99.5111 24.832C99.6391 25.168 99.8071 25.336 100.015 25.336C100.287 25.336 100.583 25.168 100.903 24.832C101.223 24.48 101.535 24.088 101.839 23.656L103.879 27.712C103.383 28.256 102.791 28.752 102.103 29.2C101.415 29.664 100.559 29.896 99.5351 29.896ZM140.634 29.92C139.098 29.92 137.746 29.616 136.578 29.008C135.426 28.416 134.522 27.584 133.866 26.512C133.226 25.44 132.906 24.2 132.906 22.792C132.906 21.944 133.05 21.056 133.338 20.128C133.626 19.184 134.09 18.304 134.73 17.488C135.37 16.672 136.21 16.008 137.25 15.496C138.306 14.984 139.586 14.728 141.09 14.728C142.178 14.728 143.09 14.848 143.826 15.088C144.578 15.328 145.186 15.64 145.65 16.024C146.13 16.408 146.49 16.816 146.73 17.248C146.986 17.68 147.154 18.096 147.234 18.496C147.33 18.88 147.378 19.2 147.378 19.456C147.378 21.008 146.722 22.208 145.41 23.056C144.114 23.888 142.274 24.304 139.89 24.304C139.346 24.304 138.826 24.28 138.33 24.232C137.85 24.184 137.402 24.128 136.986 24.064C137.29 24.864 137.794 25.456 138.498 25.84C139.202 26.208 139.93 26.392 140.682 26.392C141.77 26.392 142.73 26.2 143.562 25.816C144.394 25.416 145.178 24.808 145.914 23.992L148.05 27.064C147.538 27.48 146.962 27.912 146.322 28.36C145.698 28.808 144.93 29.176 144.018 29.464C143.106 29.768 141.978 29.92 140.634 29.92ZM141.162 18.328C140.218 18.328 139.386 18.568 138.666 19.048C137.946 19.528 137.418 20.16 137.082 20.944C137.482 21.008 137.874 21.064 138.258 21.112C138.658 21.144 139.05 21.16 139.434 21.16C139.786 21.16 140.186 21.128 140.634 21.064C141.098 21 141.546 20.904 141.978 20.776C142.426 20.648 142.794 20.488 143.082 20.296C143.37 20.088 143.514 19.848 143.514 19.576C143.514 19.448 143.45 19.288 143.322 19.096C143.194 18.904 142.962 18.728 142.626 18.568C142.29 18.408 141.802 18.328 141.162 18.328ZM152.718 30.04L149.694 27.424C150.462 26.528 151.286 25.624 152.166 24.712C153.046 23.784 153.95 22.864 154.878 21.952C153.758 20.976 152.71 20.104 151.734 19.336C150.774 18.552 150.03 18 149.502 17.68L151.902 14.512C152.766 15.136 153.702 15.848 154.71 16.648C155.718 17.448 156.734 18.296 157.758 19.192C158.702 18.328 159.63 17.488 160.542 16.672C161.454 15.84 162.326 15.056 163.158 14.32L165.942 17.2C165.43 17.568 164.702 18.176 163.758 19.024C162.814 19.856 161.79 20.784 160.686 21.808C161.742 22.768 162.734 23.72 163.662 24.664C164.606 25.592 165.438 26.456 166.158 27.256L163.23 29.92C162.942 29.568 162.526 29.112 161.982 28.552C161.438 27.992 160.806 27.368 160.086 26.68C159.382 25.992 158.63 25.288 157.83 24.568C157.062 25.32 156.334 26.048 155.646 26.752C154.974 27.456 154.382 28.088 153.87 28.648C153.358 29.224 152.974 29.688 152.718 30.04ZM173.378 29.968C172.354 29.968 171.506 29.784 170.834 29.416C170.178 29.064 169.65 28.576 169.25 27.952C168.866 27.328 168.578 26.632 168.386 25.864C168.21 25.08 168.09 24.272 168.026 23.44C167.978 22.592 167.954 21.776 167.954 20.992C167.954 20.096 167.978 19.184 168.026 18.256C168.09 17.328 168.154 16.312 168.218 15.208L172.61 14.944C172.562 15.28 172.49 15.784 172.394 16.456C172.298 17.128 172.21 17.896 172.13 18.76C172.05 19.624 172.01 20.528 172.01 21.472C172.01 23.024 172.146 24.176 172.418 24.928C172.69 25.664 173.098 26.032 173.642 26.032C174.73 26.032 175.53 25.24 176.042 23.656C176.554 22.072 176.81 19.568 176.81 16.144V15.04L178.85 14.992L181.322 14.944C181.098 16.448 180.93 17.832 180.818 19.096C180.706 20.36 180.634 21.424 180.602 22.288C180.57 23.136 180.554 23.704 180.554 23.992C180.554 24.728 180.618 25.256 180.746 25.576C180.874 25.88 181.098 26.032 181.418 26.032C181.578 26.032 181.754 26 181.946 25.936C182.138 25.872 182.362 25.76 182.618 25.6L182.45 29.728C181.842 29.824 181.314 29.872 180.866 29.872C180.098 29.872 179.466 29.728 178.97 29.44C178.49 29.152 178.106 28.768 177.818 28.288C177.322 28.816 176.706 29.224 175.97 29.512C175.25 29.816 174.386 29.968 173.378 29.968ZM191.653 29.992C190.565 29.992 189.557 29.864 188.629 29.608C187.701 29.352 186.861 29.024 186.109 28.624C185.357 28.224 184.685 27.8 184.093 27.352L186.253 23.872C186.925 24.496 187.573 24.976 188.197 25.312C188.821 25.648 189.469 25.88 190.141 26.008C190.829 26.136 191.573 26.2 192.373 26.2C193.061 26.2 193.613 26.112 194.029 25.936C194.445 25.744 194.653 25.504 194.653 25.216C194.653 24.976 194.453 24.792 194.053 24.664C193.653 24.52 193.141 24.4 192.517 24.304C191.893 24.192 191.237 24.056 190.549 23.896C189.573 23.64 188.661 23.344 187.813 23.008C186.965 22.672 186.277 22.216 185.749 21.64C185.237 21.064 184.981 20.296 184.981 19.336C184.981 18.568 185.165 17.896 185.533 17.32C185.901 16.728 186.389 16.24 186.997 15.856C187.621 15.456 188.325 15.16 189.109 14.968C189.893 14.776 190.701 14.68 191.533 14.68C192.973 14.68 194.213 14.856 195.253 15.208C196.309 15.544 197.317 15.992 198.277 16.552L196.093 19.864C195.613 19.528 195.061 19.24 194.437 19C193.829 18.744 193.213 18.552 192.589 18.424C191.981 18.28 191.413 18.208 190.885 18.208C190.309 18.208 189.853 18.296 189.517 18.472C189.197 18.648 189.037 18.896 189.037 19.216C189.037 19.408 189.237 19.592 189.637 19.768C190.053 19.928 190.837 20.144 191.989 20.416C192.677 20.576 193.405 20.744 194.173 20.92C194.941 21.08 195.661 21.312 196.333 21.616C197.021 21.904 197.573 22.328 197.989 22.888C198.421 23.432 198.637 24.16 198.637 25.072C198.637 26.608 198.021 27.808 196.789 28.672C195.557 29.552 193.845 29.992 191.653 29.992Z"
            fill="#111"
          ></path>
          <path
            d="M112.001 29.752C112.001 27.256 112.033 25.008 112.097 23.008C112.177 20.992 112.273 19.16 112.385 17.512C112.513 15.848 112.649 14.304 112.793 12.88C112.953 11.44 113.105 10.064 113.249 8.752L117.377 8.92C117.313 9.416 117.241 9.952 117.161 10.528C117.705 11.264 118.297 12.104 118.937 13.048C119.593 13.992 120.257 14.992 120.929 16.048C121.617 17.088 122.289 18.136 122.945 19.192C123.601 20.232 124.225 21.232 124.817 22.192C125.409 23.136 125.929 23.984 126.377 24.736C126.489 23.632 126.545 22.08 126.545 20.08C126.545 19.056 126.529 18 126.497 16.912C126.465 15.824 126.425 14.784 126.377 13.792C126.329 12.784 126.265 11.888 126.185 11.104C126.105 10.304 126.017 9.68 125.921 9.232L130.433 8.68C130.465 9.464 130.481 10.496 130.481 11.776C130.497 13.04 130.505 14.384 130.505 15.808C130.505 17.072 130.497 18.344 130.481 19.624C130.465 20.888 130.433 22.056 130.385 23.128C130.337 24.2 130.265 25.088 130.169 25.792C129.993 27.168 129.641 28.184 129.113 28.84C128.585 29.496 127.841 29.824 126.881 29.824C126.097 29.824 125.377 29.552 124.721 29.008C124.081 28.464 123.385 27.568 122.633 26.32C122.121 25.456 121.521 24.464 120.833 23.344C120.161 22.208 119.457 21.048 118.721 19.864C118.001 18.68 117.305 17.552 116.633 16.48C116.505 18.352 116.409 20.224 116.345 22.096C116.281 23.952 116.249 25.632 116.249 27.136C116.249 27.616 116.249 28.064 116.249 28.48C116.249 28.912 116.257 29.312 116.273 29.68L112.001 29.752Z"
            fill="#FF0000"
          ></path>
          <path
            d="M77 28L39.689 38.6787C36.5949 39.5586 33.996 40 31.8944 40C29.5144 40 27.7867 39.4401 26.7157 38.3188C26.0421 37.5989 25.8445 36.6861 26.1207 35.5791C26.397 34.4721 27.1322 33.2937 28.3222 32.0395C29.3146 31.0254 30.9403 29.6927 33.2034 28.04C32.4358 28.8523 31.8729 29.7442 31.5374 30.6797C30.9424 32.3866 31.4779 33.6393 33.1439 34.4392C33.9365 34.812 35.0267 34.9992 36.4164 34.9992C37.5257 34.9992 38.7752 34.8792 40.165 34.6392L77 28Z"
            fill="#FF0000"
          ></path>
        </svg>