<svg width="298" height="74" viewBox="0 0 298 74" fill="none" xmlns="http://www.w3.org/2000/svg">
<mask id="path-1-outside-1_55_7" maskUnits="userSpaceOnUse" x="-14" y="-14" width="326" height="102" fill="black">
<rect fill="white" x="-14" y="-14" width="326" height="102"/>
<path d="M1.625 62.7344C1.625 61.1406 1.92188 59.5312 2.51562 57.9062C3.10938 56.2812 4.03125 54.75 5.28125 53.3125C9.84375 55.3125 13.8125 56.8438 17.1875 57.9062C20.5938 58.9688 24.0938 59.5 27.6875 59.5C28.3438 59.5 29.0156 59.4375 29.7031 59.3125C30.4219 59.1875 30.9844 59.0156 31.3906 58.7969C31.5469 58.4531 31.6719 58.0156 31.7656 57.4844C31.8594 56.9219 31.9062 56.4688 31.9062 56.125C31.9062 54.5938 31.1719 53.2812 29.7031 52.1875C28.2344 51.0938 26.2969 50 23.8906 48.9062L22.25 48.1094C17.5625 45.7031 13.7969 43.5469 10.9531 41.6406C8.14062 39.7031 5.75 37.1719 3.78125 34.0469C1.84375 30.8906 0.875 27.0312 0.875 22.4688C0.875 15.7812 2.73437 10.4219 6.45312 6.39062C10.2031 2.35938 16.1562 0.34375 24.3125 0.34375C31.2812 0.34375 36.7969 0.765625 40.8594 1.60938C42.5469 2.60937 44.0156 3.65625 45.2656 4.75C46.5469 5.8125 47.7656 7.10937 48.9219 8.64062C48.9219 10.8281 48.7031 13.2031 48.2656 15.7656C47.8594 18.2969 47.2812 20.625 46.5312 22.75C45.8125 24.875 45.0312 26.4062 44.1875 27.3438C43.4688 27.6875 42.6719 27.9531 41.7969 28.1406C40.9219 28.2969 39.8438 28.375 38.5625 28.375C37.2188 28.375 36.125 28.2812 35.2812 28.0938C34.4375 27.9062 33.6562 27.5938 32.9375 27.1562L31.4844 17.4062C29.6719 16.9062 27.75 16.5469 25.7188 16.3281C23.6875 16.0781 22.3125 15.9688 21.5938 16C20.4375 16.5312 19.6406 17.2812 19.2031 18.25C18.7969 19.1875 18.5938 20.3125 18.5938 21.625C18.5938 23.0312 18.9688 24.25 19.7188 25.2812C20.5 26.2812 21.4375 27.1094 22.5312 27.7656C23.625 28.4219 25.0312 29.1562 26.75 29.9688L28.8125 31C33.2812 33.3438 36.7969 35.3906 39.3594 37.1406C41.9219 38.8906 44.0625 41.1094 45.7812 43.7969C47.5312 46.4531 48.4062 49.6719 48.4062 53.4531C48.4062 57.8594 47.25 61.6562 44.9375 64.8438C42.625 68 39.6562 70.2812 36.0312 71.6875C34.0625 72.4688 31.8906 73.0312 29.5156 73.375C27.1406 73.7188 24.3906 73.8906 21.2656 73.8906C19.1406 73.8906 16.8594 73.625 14.4219 73.0938C11.9844 72.5625 9.60938 71.625 7.29688 70.2812C5.01562 68.9375 3.1875 67.1406 1.8125 64.8906C1.6875 64.2969 1.625 63.5781 1.625 62.7344ZM65.0938 57.0625C67.375 57.9688 69.1719 58.6719 70.4844 59.1719C71.7969 59.6719 73.1719 60.1094 74.6094 60.4844C75.0156 59.4531 75.2188 58.0469 75.2188 56.2656C75.2188 53.8594 75.0469 49.4531 74.7031 43.0469C74.2031 34.4844 73.9531 27.9219 73.9531 23.3594C73.9531 20.2031 74.0469 17.4844 74.2344 15.2031L66.5 14.7344L66.3594 29.5C64.0156 30.2812 61.375 30.6719 58.4375 30.6719C57.6875 30.6719 57.125 30.6562 56.75 30.625C55.7188 29.8125 54.6406 28.5312 53.5156 26.7812C52.4219 25.0312 51.5156 23.0625 50.7969 20.875C50.0781 18.6875 49.7188 16.5781 49.7188 14.5469C49.7188 11.0469 50.2969 8.375 51.4531 6.53125C52.6094 4.6875 54.2344 3.42188 56.3281 2.73438C58.4219 2.01563 61.2188 1.54688 64.7188 1.32812C70.1562 1.01562 76.5469 0.78125 83.8906 0.625C91.2656 0.4375 98.3125 0.34375 105.031 0.34375C105.938 1.5 106.609 2.79687 107.047 4.23438C107.516 5.67188 107.75 7.10937 107.75 8.54688C107.75 11.2344 107.062 13.4844 105.688 15.2969C104.312 17.1094 102.281 18.0156 99.5938 18.0156C97.8438 18.0156 95.7344 17.7031 93.2656 17.0781C92.7031 31.7656 91.8906 45.3281 90.8281 57.7656C90.6094 60.1719 90.25 62.2969 89.75 64.1406C89.25 65.9844 88.4844 67.5938 87.4531 68.9688C86.1719 70.6562 84.4062 71.9062 82.1562 72.7188C79.9062 73.5312 77.4219 73.9375 74.7031 73.9375C72.1406 73.9375 69.6094 73.4844 67.1094 72.5781C64.6406 71.6719 62.7812 70 61.5312 67.5625C61.5625 65.5312 61.8125 63.7344 62.2812 62.1719C62.75 60.5781 63.6875 58.875 65.0938 57.0625ZM107.047 37.5625C107.047 12.75 116.797 0.34375 136.297 0.34375C144.016 0.34375 150.031 1.95312 154.344 5.17188C158.688 8.35938 161.672 12.6719 163.297 18.1094C164.953 23.5156 165.781 30 165.781 37.5625C165.781 48.6875 163.5 57.5312 158.938 64.0938C154.375 70.6562 146.828 73.9375 136.297 73.9375C125.703 73.9375 118.172 70.6875 113.703 64.1875C109.266 57.6875 107.047 48.8125 107.047 37.5625ZM138.641 58.9844C141.203 58.9844 142.672 58.8438 143.047 58.5625C143.828 57.1875 144.422 54.7969 144.828 51.3906C145.234 47.9531 145.438 44.1094 145.438 39.8594C145.438 35.3906 145.219 31.25 144.781 27.4375C144.375 23.5938 143.797 20.9062 143.047 19.375C142.266 18.75 141.109 18.2812 139.578 17.9688C138.047 17.6562 136.359 17.4844 134.516 17.4531C133.453 17.4531 132.484 17.5156 131.609 17.6406C130.766 17.7344 130.156 17.8906 129.781 18.1094C128.875 19.6719 128.203 21.9375 127.766 24.9062C127.359 27.8438 127.156 31.2031 127.156 34.9844C127.156 39.2656 127.391 43.5312 127.859 47.7812C128.328 52.0312 128.906 55.2812 129.594 57.5312C130.031 58 131.141 58.3594 132.922 58.6094C134.703 58.8594 136.609 58.9844 138.641 58.9844ZM169.391 53.0781C170.891 51.1406 172.562 49.5781 174.406 48.3906C176.25 47.2031 178.438 46.4219 180.969 46.0469L184.859 52L192.312 38.2656L182.656 20.0781L175.297 24.4844L168.594 18.2031C169.031 15.1406 170.094 12.25 171.781 9.53125C173.469 6.78125 175.641 4.57812 178.297 2.92188C180.984 1.23438 183.938 0.390625 187.156 0.390625C189.688 0.390625 191.891 1.09375 193.766 2.5C195.672 3.875 197.172 5.90625 198.266 8.59375C200.703 14.5312 202.016 20.9688 202.203 27.9062L202.484 26.1719C203.016 22.5781 203.547 19.4688 204.078 16.8438C204.641 14.2188 205.422 11.625 206.422 9.0625C207.453 6.5 208.766 4.4375 210.359 2.875C212.047 1.21875 214.609 0.390625 218.047 0.390625C220.797 0.390625 223.125 1.59375 225.031 4C226.938 6.375 228.406 9.29688 229.438 12.7656C230.469 16.2031 231.141 19.6875 231.453 23.2188C229.641 25.25 227.906 26.6875 226.25 27.5312C224.625 28.375 222.453 29 219.734 29.4062L214.812 21.6719L207.547 35.9219L218.469 54.0625L226.625 48.2969L232.344 54.0625C232.062 57.125 231.234 60.1875 229.859 63.25C228.516 66.2812 226.594 68.8125 224.094 70.8438C221.625 72.875 218.688 73.8906 215.281 73.8906C213.031 73.8906 210.938 73.2969 209 72.1094C207.094 70.8906 205.438 69.1719 204.031 66.9531C202.281 64.1406 200.969 60.8125 200.094 56.9688C199.219 53.125 198.641 49.3281 198.359 45.5781C198.297 44.9531 198.266 44.4219 198.266 43.9844L197.656 47.875C197.125 51.4688 196.578 54.5938 196.016 57.25C195.484 59.9062 194.703 62.5312 193.672 65.125C192.641 67.7188 191.328 69.8125 189.734 71.4062C187.984 73.125 185.219 73.9531 181.438 73.8906C179.094 73.8594 177.062 72.7656 175.344 70.6094C173.625 68.4531 172.266 65.7969 171.266 62.6406C170.297 59.4531 169.672 56.2656 169.391 53.0781ZM236.141 57.9531C238.047 58.5781 239.781 59.0781 241.344 59.4531C244.375 47.2656 247.828 32.875 251.703 16.2812L240.406 15.0625C239.688 13.0938 239.328 10.8594 239.328 8.35938C239.328 6.45312 239.547 4.59375 239.984 2.78125C244.516 1.90625 249.734 1.28125 255.641 0.90625C261.578 0.5 266.672 0.296875 270.922 0.296875C273.984 0.296875 276.281 0.3125 277.812 0.34375L280.766 2.03125C286.016 16.4375 291.344 35.9219 296.75 60.4844C296.812 60.7344 296.922 61.2344 297.078 61.9844C297.266 62.7344 297.406 63.4531 297.5 64.1406C297.594 64.7969 297.641 65.4219 297.641 66.0156C297.641 68.6406 296.703 70.7656 294.828 72.3906C292.203 73.4219 289.031 73.9375 285.312 73.9375C283.562 73.9375 281.797 73.75 280.016 73.375C278.234 73 277.031 72.4219 276.406 71.6406L276.969 59.5469L275.797 53.2656C273.766 53.3906 271.375 53.4531 268.625 53.4531C265.688 53.4531 262.938 53.3594 260.375 53.1719L259.812 55.7031C258.594 61.1406 257.594 65 256.812 67.2812C256.062 69.5625 254.938 71.25 253.438 72.3438C251.969 73.4375 249.766 73.9844 246.828 73.9844C244.922 73.9844 243 73.7344 241.062 73.2344C239.125 72.7656 237.375 72.125 235.812 71.3125C234.25 70.5 233.078 69.625 232.297 68.6875C232.297 66.4375 232.641 64.2969 233.328 62.2656C234.016 60.2344 234.953 58.7969 236.141 57.9531ZM269 16.7031H266.844L263.469 39.8125H273.969L269 16.7031Z"/>
</mask>
<path d="M1.625 62.7344C1.625 61.1406 1.92188 59.5312 2.51562 57.9062C3.10938 56.2812 4.03125 54.75 5.28125 53.3125C9.84375 55.3125 13.8125 56.8438 17.1875 57.9062C20.5938 58.9688 24.0938 59.5 27.6875 59.5C28.3438 59.5 29.0156 59.4375 29.7031 59.3125C30.4219 59.1875 30.9844 59.0156 31.3906 58.7969C31.5469 58.4531 31.6719 58.0156 31.7656 57.4844C31.8594 56.9219 31.9062 56.4688 31.9062 56.125C31.9062 54.5938 31.1719 53.2812 29.7031 52.1875C28.2344 51.0938 26.2969 50 23.8906 48.9062L22.25 48.1094C17.5625 45.7031 13.7969 43.5469 10.9531 41.6406C8.14062 39.7031 5.75 37.1719 3.78125 34.0469C1.84375 30.8906 0.875 27.0312 0.875 22.4688C0.875 15.7812 2.73437 10.4219 6.45312 6.39062C10.2031 2.35938 16.1562 0.34375 24.3125 0.34375C31.2812 0.34375 36.7969 0.765625 40.8594 1.60938C42.5469 2.60937 44.0156 3.65625 45.2656 4.75C46.5469 5.8125 47.7656 7.10937 48.9219 8.64062C48.9219 10.8281 48.7031 13.2031 48.2656 15.7656C47.8594 18.2969 47.2812 20.625 46.5312 22.75C45.8125 24.875 45.0312 26.4062 44.1875 27.3438C43.4688 27.6875 42.6719 27.9531 41.7969 28.1406C40.9219 28.2969 39.8438 28.375 38.5625 28.375C37.2188 28.375 36.125 28.2812 35.2812 28.0938C34.4375 27.9062 33.6562 27.5938 32.9375 27.1562L31.4844 17.4062C29.6719 16.9062 27.75 16.5469 25.7188 16.3281C23.6875 16.0781 22.3125 15.9688 21.5938 16C20.4375 16.5312 19.6406 17.2812 19.2031 18.25C18.7969 19.1875 18.5938 20.3125 18.5938 21.625C18.5938 23.0312 18.9688 24.25 19.7188 25.2812C20.5 26.2812 21.4375 27.1094 22.5312 27.7656C23.625 28.4219 25.0312 29.1562 26.75 29.9688L28.8125 31C33.2812 33.3438 36.7969 35.3906 39.3594 37.1406C41.9219 38.8906 44.0625 41.1094 45.7812 43.7969C47.5312 46.4531 48.4062 49.6719 48.4062 53.4531C48.4062 57.8594 47.25 61.6562 44.9375 64.8438C42.625 68 39.6562 70.2812 36.0312 71.6875C34.0625 72.4688 31.8906 73.0312 29.5156 73.375C27.1406 73.7188 24.3906 73.8906 21.2656 73.8906C19.1406 73.8906 16.8594 73.625 14.4219 73.0938C11.9844 72.5625 9.60938 71.625 7.29688 70.2812C5.01562 68.9375 3.1875 67.1406 1.8125 64.8906C1.6875 64.2969 1.625 63.5781 1.625 62.7344ZM65.0938 57.0625C67.375 57.9688 69.1719 58.6719 70.4844 59.1719C71.7969 59.6719 73.1719 60.1094 74.6094 60.4844C75.0156 59.4531 75.2188 58.0469 75.2188 56.2656C75.2188 53.8594 75.0469 49.4531 74.7031 43.0469C74.2031 34.4844 73.9531 27.9219 73.9531 23.3594C73.9531 20.2031 74.0469 17.4844 74.2344 15.2031L66.5 14.7344L66.3594 29.5C64.0156 30.2812 61.375 30.6719 58.4375 30.6719C57.6875 30.6719 57.125 30.6562 56.75 30.625C55.7188 29.8125 54.6406 28.5312 53.5156 26.7812C52.4219 25.0312 51.5156 23.0625 50.7969 20.875C50.0781 18.6875 49.7188 16.5781 49.7188 14.5469C49.7188 11.0469 50.2969 8.375 51.4531 6.53125C52.6094 4.6875 54.2344 3.42188 56.3281 2.73438C58.4219 2.01563 61.2188 1.54688 64.7188 1.32812C70.1562 1.01562 76.5469 0.78125 83.8906 0.625C91.2656 0.4375 98.3125 0.34375 105.031 0.34375C105.938 1.5 106.609 2.79687 107.047 4.23438C107.516 5.67188 107.75 7.10937 107.75 8.54688C107.75 11.2344 107.062 13.4844 105.688 15.2969C104.312 17.1094 102.281 18.0156 99.5938 18.0156C97.8438 18.0156 95.7344 17.7031 93.2656 17.0781C92.7031 31.7656 91.8906 45.3281 90.8281 57.7656C90.6094 60.1719 90.25 62.2969 89.75 64.1406C89.25 65.9844 88.4844 67.5938 87.4531 68.9688C86.1719 70.6562 84.4062 71.9062 82.1562 72.7188C79.9062 73.5312 77.4219 73.9375 74.7031 73.9375C72.1406 73.9375 69.6094 73.4844 67.1094 72.5781C64.6406 71.6719 62.7812 70 61.5312 67.5625C61.5625 65.5312 61.8125 63.7344 62.2812 62.1719C62.75 60.5781 63.6875 58.875 65.0938 57.0625ZM107.047 37.5625C107.047 12.75 116.797 0.34375 136.297 0.34375C144.016 0.34375 150.031 1.95312 154.344 5.17188C158.688 8.35938 161.672 12.6719 163.297 18.1094C164.953 23.5156 165.781 30 165.781 37.5625C165.781 48.6875 163.5 57.5312 158.938 64.0938C154.375 70.6562 146.828 73.9375 136.297 73.9375C125.703 73.9375 118.172 70.6875 113.703 64.1875C109.266 57.6875 107.047 48.8125 107.047 37.5625ZM138.641 58.9844C141.203 58.9844 142.672 58.8438 143.047 58.5625C143.828 57.1875 144.422 54.7969 144.828 51.3906C145.234 47.9531 145.438 44.1094 145.438 39.8594C145.438 35.3906 145.219 31.25 144.781 27.4375C144.375 23.5938 143.797 20.9062 143.047 19.375C142.266 18.75 141.109 18.2812 139.578 17.9688C138.047 17.6562 136.359 17.4844 134.516 17.4531C133.453 17.4531 132.484 17.5156 131.609 17.6406C130.766 17.7344 130.156 17.8906 129.781 18.1094C128.875 19.6719 128.203 21.9375 127.766 24.9062C127.359 27.8438 127.156 31.2031 127.156 34.9844C127.156 39.2656 127.391 43.5312 127.859 47.7812C128.328 52.0312 128.906 55.2812 129.594 57.5312C130.031 58 131.141 58.3594 132.922 58.6094C134.703 58.8594 136.609 58.9844 138.641 58.9844ZM169.391 53.0781C170.891 51.1406 172.562 49.5781 174.406 48.3906C176.25 47.2031 178.438 46.4219 180.969 46.0469L184.859 52L192.312 38.2656L182.656 20.0781L175.297 24.4844L168.594 18.2031C169.031 15.1406 170.094 12.25 171.781 9.53125C173.469 6.78125 175.641 4.57812 178.297 2.92188C180.984 1.23438 183.938 0.390625 187.156 0.390625C189.688 0.390625 191.891 1.09375 193.766 2.5C195.672 3.875 197.172 5.90625 198.266 8.59375C200.703 14.5312 202.016 20.9688 202.203 27.9062L202.484 26.1719C203.016 22.5781 203.547 19.4688 204.078 16.8438C204.641 14.2188 205.422 11.625 206.422 9.0625C207.453 6.5 208.766 4.4375 210.359 2.875C212.047 1.21875 214.609 0.390625 218.047 0.390625C220.797 0.390625 223.125 1.59375 225.031 4C226.938 6.375 228.406 9.29688 229.438 12.7656C230.469 16.2031 231.141 19.6875 231.453 23.2188C229.641 25.25 227.906 26.6875 226.25 27.5312C224.625 28.375 222.453 29 219.734 29.4062L214.812 21.6719L207.547 35.9219L218.469 54.0625L226.625 48.2969L232.344 54.0625C232.062 57.125 231.234 60.1875 229.859 63.25C228.516 66.2812 226.594 68.8125 224.094 70.8438C221.625 72.875 218.688 73.8906 215.281 73.8906C213.031 73.8906 210.938 73.2969 209 72.1094C207.094 70.8906 205.438 69.1719 204.031 66.9531C202.281 64.1406 200.969 60.8125 200.094 56.9688C199.219 53.125 198.641 49.3281 198.359 45.5781C198.297 44.9531 198.266 44.4219 198.266 43.9844L197.656 47.875C197.125 51.4688 196.578 54.5938 196.016 57.25C195.484 59.9062 194.703 62.5312 193.672 65.125C192.641 67.7188 191.328 69.8125 189.734 71.4062C187.984 73.125 185.219 73.9531 181.438 73.8906C179.094 73.8594 177.062 72.7656 175.344 70.6094C173.625 68.4531 172.266 65.7969 171.266 62.6406C170.297 59.4531 169.672 56.2656 169.391 53.0781ZM236.141 57.9531C238.047 58.5781 239.781 59.0781 241.344 59.4531C244.375 47.2656 247.828 32.875 251.703 16.2812L240.406 15.0625C239.688 13.0938 239.328 10.8594 239.328 8.35938C239.328 6.45312 239.547 4.59375 239.984 2.78125C244.516 1.90625 249.734 1.28125 255.641 0.90625C261.578 0.5 266.672 0.296875 270.922 0.296875C273.984 0.296875 276.281 0.3125 277.812 0.34375L280.766 2.03125C286.016 16.4375 291.344 35.9219 296.75 60.4844C296.812 60.7344 296.922 61.2344 297.078 61.9844C297.266 62.7344 297.406 63.4531 297.5 64.1406C297.594 64.7969 297.641 65.4219 297.641 66.0156C297.641 68.6406 296.703 70.7656 294.828 72.3906C292.203 73.4219 289.031 73.9375 285.312 73.9375C283.562 73.9375 281.797 73.75 280.016 73.375C278.234 73 277.031 72.4219 276.406 71.6406L276.969 59.5469L275.797 53.2656C273.766 53.3906 271.375 53.4531 268.625 53.4531C265.688 53.4531 262.938 53.3594 260.375 53.1719L259.812 55.7031C258.594 61.1406 257.594 65 256.812 67.2812C256.062 69.5625 254.938 71.25 253.438 72.3438C251.969 73.4375 249.766 73.9844 246.828 73.9844C244.922 73.9844 243 73.7344 241.062 73.2344C239.125 72.7656 237.375 72.125 235.812 71.3125C234.25 70.5 233.078 69.625 232.297 68.6875C232.297 66.4375 232.641 64.2969 233.328 62.2656C234.016 60.2344 234.953 58.7969 236.141 57.9531ZM269 16.7031H266.844L263.469 39.8125H273.969L269 16.7031Z" fill="#007AE1"/>
<path d="M5.28125 53.3125L10.9019 40.4903L1.47252 36.3569L-5.28323 44.126L5.28125 53.3125ZM17.1875 57.9062L12.9835 71.2601L13.0011 71.2657L13.0186 71.2711L17.1875 57.9062ZM29.7031 59.3125L27.3043 45.5195L27.2515 45.5287L27.1987 45.5383L29.7031 59.3125ZM31.3906 58.7969L38.028 71.1235L42.183 68.8862L44.1358 64.5901L31.3906 58.7969ZM31.7656 57.4844L45.5526 59.9174L45.5642 59.8517L45.5751 59.786L31.7656 57.4844ZM23.8906 48.9062L17.774 61.4994L17.9347 61.5774L18.0974 61.6514L23.8906 48.9062ZM22.25 48.1094L15.8565 60.5642L15.9942 60.6349L16.1333 60.7025L22.25 48.1094ZM10.9531 41.6406L3.01085 53.1697L3.08404 53.2201L3.15786 53.2696L10.9531 41.6406ZM3.78125 34.0469L-8.15007 41.3711L-8.10745 41.4405L-8.06403 41.5094L3.78125 34.0469ZM6.45312 6.39062L-3.79749 -3.14483L-3.81738 -3.12345L-3.83718 -3.10198L6.45312 6.39062ZM40.8594 1.60938L47.9966 -10.4347L45.99 -11.6238L43.7063 -12.0981L40.8594 1.60938ZM45.2656 4.75L36.0466 15.2861L36.1861 15.4082L36.3289 15.5266L45.2656 4.75ZM48.9219 8.64062H62.9219V3.94861L60.0945 0.204188L48.9219 8.64062ZM48.2656 15.7656L34.4653 13.4095L34.4536 13.4782L34.4425 13.5471L48.2656 15.7656ZM46.5312 22.75L33.3294 18.0905L33.2988 18.1772L33.2693 18.2643L46.5312 22.75ZM44.1875 27.3438L50.2279 39.9736L52.7347 38.7747L54.5936 36.7093L44.1875 27.3438ZM41.7969 28.1406L44.2579 41.9226L44.4949 41.8803L44.7303 41.8299L41.7969 28.1406ZM32.9375 27.1562L19.0904 29.22L20.057 35.7056L25.6582 39.115L32.9375 27.1562ZM31.4844 17.4062L45.3314 15.3425L43.9886 6.33277L35.2074 3.91035L31.4844 17.4062ZM25.7188 16.3281L24.0086 30.2233L24.1141 30.2363L24.2197 30.2476L25.7188 16.3281ZM21.5938 16L20.9856 2.01321L18.2431 2.13245L15.7487 3.27852L21.5938 16ZM19.2031 18.25L6.44394 12.4878L6.39989 12.5853L6.35735 12.6835L19.2031 18.25ZM19.7188 25.2812L8.39644 33.5157L8.53812 33.7105L8.68641 33.9003L19.7188 25.2812ZM26.75 29.9688L33.011 17.4468L32.8729 17.3777L32.7333 17.3117L26.75 29.9688ZM28.8125 31L35.3151 18.6018L35.1949 18.5387L35.0735 18.478L28.8125 31ZM45.7812 43.7969L33.987 51.3397L34.0381 51.4198L34.0904 51.4991L45.7812 43.7969ZM44.9375 64.8438L56.2307 73.118L56.2501 73.0915L56.2694 73.0649L44.9375 64.8438ZM36.0312 71.6875L30.9679 58.6352L30.9176 58.6547L30.8674 58.6746L36.0312 71.6875ZM7.29688 70.2812L0.191373 82.3441L0.22714 82.3651L0.263032 82.386L7.29688 70.2812ZM1.8125 64.8906L-11.8872 67.7748L-11.3905 70.1338L-10.1334 72.1909L1.8125 64.8906ZM15.625 62.7344C15.625 62.7713 15.6233 62.803 15.6209 62.8282C15.6186 62.8533 15.616 62.8682 15.6154 62.8717C15.6147 62.8751 15.6165 62.8645 15.6236 62.8388C15.6307 62.813 15.6435 62.7706 15.6653 62.711L-10.6341 53.1015C-11.7421 56.1341 -12.375 59.3669 -12.375 62.7344H15.625ZM15.6653 62.711C15.6451 62.7663 15.6318 62.7843 15.6464 62.76C15.6623 62.7336 15.7187 62.6451 15.8457 62.499L-5.28323 44.126C-7.54196 46.7235 -9.39692 49.7156 -10.6341 53.1015L15.6653 62.711ZM-0.339426 66.1347C4.51511 68.2627 8.9774 69.999 12.9835 71.2601L21.3915 44.5524C18.6476 43.6885 15.1724 42.3623 10.9019 40.4903L-0.339426 66.1347ZM13.0186 71.2711C17.7843 72.7577 22.6903 73.5 27.6875 73.5V45.5C25.4972 45.5 23.4032 45.1798 21.3564 44.5414L13.0186 71.2711ZM27.6875 73.5C29.2358 73.5 30.7467 73.3523 32.2075 73.0867L27.1987 45.5383C27.2846 45.5227 27.4517 45.5 27.6875 45.5V73.5ZM32.1019 73.1055C33.5463 72.8543 35.7574 72.3461 38.028 71.1235L24.7532 46.4703C25.5474 46.0426 26.2001 45.8149 26.573 45.7009C26.96 45.5827 27.2215 45.5339 27.3043 45.5195L32.1019 73.1055ZM44.1358 64.5901C44.9378 62.8255 45.3338 61.1574 45.5526 59.9174L17.9787 55.0514C18.0009 54.9252 18.0482 54.687 18.1402 54.3648C18.2308 54.0478 18.386 53.5744 18.6455 53.0036L44.1358 64.5901ZM45.5751 59.786C45.7247 58.8886 45.9062 57.5764 45.9062 56.125H17.9062C17.9062 55.6903 17.9342 55.3906 17.9454 55.2821C17.9581 55.1596 17.9666 55.1197 17.9561 55.1828L45.5751 59.786ZM45.9062 56.125C45.9062 49.2771 42.2981 44.1113 38.0649 40.9589L21.3414 63.4161C20.8321 63.0368 19.9182 62.2228 19.1379 60.8282C18.3144 59.3564 17.9062 57.7076 17.9062 56.125H45.9062ZM38.0649 40.9589C35.5303 39.0714 32.6355 37.5028 29.6839 36.1611L18.0974 61.6514C19.9582 62.4972 20.9385 63.1161 21.3414 63.4161L38.0649 40.9589ZM30.0073 36.3131L28.3667 35.5163L16.1333 60.7025L17.774 61.4994L30.0073 36.3131ZM28.6435 35.6545C24.2115 33.3794 20.9697 31.5007 18.7484 30.0116L3.15786 53.2696C6.624 55.5931 10.9135 58.0268 15.8565 60.5642L28.6435 35.6545ZM18.8954 30.1115C17.7699 29.3362 16.6667 28.2354 15.6265 26.5843L-8.06403 41.5094C-5.16672 46.1083 -1.48863 50.0701 3.01085 53.1697L18.8954 30.1115ZM15.7126 26.7227C15.41 26.2298 14.875 25.0443 14.875 22.4688H-13.125C-13.125 29.0182 -11.7225 35.5515 -8.15007 41.3711L15.7126 26.7227ZM14.875 22.4688C14.875 18.4875 15.9085 16.7883 16.7434 15.8832L-3.83718 -3.10198C-10.4398 4.05545 -13.125 13.075 -13.125 22.4688H14.875ZM16.7037 15.9261C16.7506 15.8757 18.1646 14.3438 24.3125 14.3438V-13.6562C14.1479 -13.6562 3.6556 -11.1569 -3.79749 -3.14483L16.7037 15.9261ZM24.3125 14.3438C30.8755 14.3438 35.3043 14.7544 38.0124 15.3169L43.7063 -12.0981C38.2894 -13.2232 31.687 -13.6562 24.3125 -13.6562V14.3438ZM33.7221 13.6535C34.7994 14.2918 35.5462 14.8483 36.0466 15.2861L54.4847 -5.78607C52.485 -7.53579 50.2943 -9.07309 47.9966 -10.4347L33.7221 13.6535ZM36.3289 15.5266C36.6617 15.8026 37.1485 16.2814 37.7493 17.0771L60.0945 0.204188C58.3827 -2.0627 56.4321 -4.17757 54.2023 -6.02661L36.3289 15.5266ZM34.9219 8.64062C34.9219 9.90773 34.7939 11.4848 34.4653 13.4095L62.0659 18.1218C62.6123 14.9214 62.9219 11.7485 62.9219 8.64062H34.9219ZM34.4425 13.5471C34.1518 15.3588 33.7643 16.8583 33.3294 18.0905L59.7331 27.4095C60.7982 24.3917 61.567 21.235 62.0887 17.9841L34.4425 13.5471ZM33.2693 18.2643C33.1717 18.5529 33.09 18.7678 33.0281 18.9186C32.9656 19.0709 32.9325 19.1357 32.9356 19.1296C32.9376 19.1256 32.9932 19.0163 33.1145 18.8319C33.2344 18.6499 33.4499 18.3465 33.7814 17.9782L54.5936 36.7093C57.3437 33.6536 58.8658 29.9775 59.7932 27.2357L33.2693 18.2643ZM38.1471 14.7139C38.5317 14.53 38.7944 14.4662 38.8635 14.4514L44.7303 41.8299C46.5494 41.4401 48.4058 40.845 50.2279 39.9736L38.1471 14.7139ZM39.3358 14.3586C39.4671 14.3352 39.473 14.3419 39.3202 14.353C39.1726 14.3637 38.9253 14.375 38.5625 14.375V42.375C40.3416 42.375 42.3019 42.2719 44.2579 41.9226L39.3358 14.3586ZM38.5625 14.375C38.3882 14.375 38.2481 14.3719 38.1396 14.3678C38.0307 14.3636 37.9622 14.3586 37.93 14.3558C37.8971 14.353 37.9133 14.3535 37.9721 14.362C38.0299 14.3704 38.1488 14.3895 38.3183 14.4271L32.2442 41.7604C34.4745 42.256 36.6933 42.375 38.5625 42.375V14.375ZM38.3183 14.4271C38.9313 14.5634 39.5889 14.8153 40.2168 15.1975L25.6582 39.115C27.7236 40.3722 29.9437 41.2491 32.2442 41.7604L38.3183 14.4271ZM46.7846 25.0925L45.3314 15.3425L17.6373 19.47L19.0904 29.22L46.7846 25.0925ZM35.2074 3.91035C32.6067 3.19292 29.9366 2.7014 27.2178 2.40861L24.2197 30.2476C25.5634 30.3923 26.7371 30.6196 27.7614 30.9021L35.2074 3.91035ZM27.4289 2.43297C25.5476 2.20142 23.0454 1.92366 20.9856 2.01321L22.2019 29.9868C21.878 30.0009 21.6957 29.9918 21.7338 29.9932C21.7493 29.9938 21.8488 29.9982 22.0539 30.0145C22.4705 30.0476 23.1072 30.1123 24.0086 30.2233L27.4289 2.43297ZM15.7487 3.27852C12.1584 4.92813 8.53415 7.85947 6.44394 12.4878L31.9623 24.0122C30.7471 26.703 28.7166 28.1344 27.4388 28.7215L15.7487 3.27852ZM6.35735 12.6835C5.00619 15.8016 4.59375 18.9205 4.59375 21.625H32.5938C32.5938 21.7045 32.5876 22.5734 32.0489 23.8165L6.35735 12.6835ZM4.59375 21.625C4.59375 25.6703 5.7271 29.8453 8.39644 33.5157L31.0411 17.0468C31.5747 17.7806 31.9891 18.6093 32.2559 19.4765C32.5186 20.3305 32.5938 21.0747 32.5938 21.625H4.59375ZM8.68641 33.9003C10.5311 36.2614 12.7689 38.2349 15.3283 39.7705L29.7342 15.7607C30.1061 15.9839 30.4689 16.3011 30.7511 16.6622L8.68641 33.9003ZM15.3283 39.7705C16.9583 40.7485 18.8117 41.7016 20.7667 42.6258L32.7333 17.3117C31.2508 16.6109 30.2917 16.0952 29.7342 15.7607L15.3283 39.7705ZM20.489 42.4907L22.5515 43.522L35.0735 18.478L33.011 17.4468L20.489 42.4907ZM22.3099 43.3982C26.5554 45.6249 29.5376 47.3863 31.4639 48.7018L47.2548 25.5794C44.0561 23.3949 40.0071 21.0626 35.3151 18.6018L22.3099 43.3982ZM31.4639 48.7018C32.4254 49.3585 33.2548 50.1949 33.987 51.3397L57.5755 36.254C54.8702 32.0238 51.4184 28.4228 47.2548 25.5794L31.4639 48.7018ZM34.0904 51.4991C34.1105 51.5296 34.1728 51.6273 34.2403 51.8757C34.3124 52.1408 34.4062 52.6406 34.4062 53.4531H62.4062C62.4062 47.4592 60.9935 41.4397 57.4721 36.0947L34.0904 51.4991ZM34.4062 53.4531C34.4062 55.2735 33.9799 56.1066 33.6056 56.6226L56.2694 73.0649C60.5201 67.2059 62.4062 60.4452 62.4062 53.4531H34.4062ZM33.6443 56.5695C32.8996 57.5859 32.0864 58.2013 30.9679 58.6352L41.0946 84.7398C47.2261 82.3612 52.3504 78.4141 56.2307 73.118L33.6443 56.5695ZM30.8674 58.6746C30.039 59.0034 28.9437 59.3119 27.5102 59.5194L31.521 87.2306C34.8376 86.7506 38.086 85.9341 41.1951 84.7004L30.8674 58.6746ZM27.5102 59.5194C25.9629 59.7433 23.908 59.8906 21.2656 59.8906V87.8906C24.8732 87.8906 28.3183 87.6942 31.521 87.2306L27.5102 59.5194ZM21.2656 59.8906C20.2984 59.8906 19.0257 59.7685 17.4032 59.4149L11.4406 86.7726C14.693 87.4815 17.9829 87.8906 21.2656 87.8906V59.8906ZM17.4032 59.4149C16.4894 59.2157 15.4735 58.8405 14.3307 58.1765L0.263032 82.386C3.74528 84.4095 7.4793 85.9093 11.4406 86.7726L17.4032 59.4149ZM14.4024 58.2184C14.0926 58.0359 13.9302 57.8713 13.7584 57.5903L-10.1334 72.1909C-7.55517 76.4099 -4.06133 79.8391 0.191373 82.3441L14.4024 58.2184ZM15.5122 62.0065C15.5851 62.3526 15.6105 62.5927 15.6192 62.6934C15.6283 62.798 15.625 62.8172 15.625 62.7344H-12.375C-12.375 64.202 -12.2722 65.9458 -11.8872 67.7748L15.5122 62.0065ZM65.0938 57.0625L70.2625 44.0516L60.483 40.1666L54.0326 48.4805L65.0938 57.0625ZM74.6094 60.4844L71.0755 74.031L83.0857 77.1641L87.6351 65.6157L74.6094 60.4844ZM74.7031 43.0469L88.683 42.2967L88.6812 42.2637L88.6793 42.2307L74.7031 43.0469ZM74.2344 15.2031L88.1873 16.3499L89.359 2.09408L75.0813 1.22877L74.2344 15.2031ZM66.5 14.7344L67.3469 0.760016L52.6409 -0.131256L52.5006 14.601L66.5 14.7344ZM66.3594 29.5L70.7866 42.7816L80.2636 39.6226L80.3587 29.6333L66.3594 29.5ZM56.75 30.625L48.0858 41.6219L51.3924 44.2271L55.5874 44.5766L56.75 30.625ZM53.5156 26.7812L41.6436 34.2012L41.6909 34.2768L41.7391 34.3519L53.5156 26.7812ZM56.3281 2.73438L60.6957 16.0357L60.7849 16.0064L60.8737 15.9759L56.3281 2.73438ZM64.7188 1.32812L63.9155 -12.6488L63.8805 -12.6468L63.8455 -12.6446L64.7188 1.32812ZM83.8906 0.625L84.1884 14.6218L84.2174 14.6212L84.2464 14.6205L83.8906 0.625ZM105.031 0.34375L116.05 -8.29259L111.846 -13.6562H105.031V0.34375ZM107.047 4.23438L93.6534 8.31064L93.6937 8.44306L93.7367 8.57466L107.047 4.23438ZM93.2656 17.0781L96.7015 3.5063L79.9377 -0.73772L79.2759 16.5423L93.2656 17.0781ZM90.8281 57.7656L104.771 59.0331L104.774 58.9952L104.777 58.9573L90.8281 57.7656ZM87.4531 68.9688L98.6034 77.4347L98.6283 77.4018L98.6531 77.3688L87.4531 68.9688ZM82.1562 72.7188L77.4012 59.551L82.1562 72.7188ZM67.1094 72.5781L62.2849 85.7206L62.3115 85.7304L62.3382 85.74L67.1094 72.5781ZM61.5312 67.5625L47.5329 67.3471L47.4791 70.8414L49.0738 73.9509L61.5312 67.5625ZM62.2812 62.1719L75.6908 66.1947L75.7017 66.1585L75.7124 66.1222L62.2812 62.1719ZM59.925 70.0734C62.2297 70.989 64.0971 71.7201 65.5004 72.2547L75.4683 46.089C74.2466 45.6236 72.5203 44.9485 70.2625 44.0516L59.925 70.0734ZM65.5004 72.2547C67.3138 72.9455 69.1746 73.5351 71.0755 74.031L78.1433 46.9377C77.1692 46.6836 76.2799 46.3982 75.4683 46.089L65.5004 72.2547ZM87.6351 65.6157C88.9569 62.2603 89.2188 58.8664 89.2188 56.2656H61.2188C61.2188 56.6464 61.1956 56.7559 61.2102 56.6548C61.2186 56.5969 61.2415 56.4551 61.294 56.2451C61.3462 56.0361 61.4352 55.7299 61.5837 55.353L87.6351 65.6157ZM89.2188 56.2656C89.2188 53.4334 89.0252 48.674 88.683 42.2967L60.7232 43.797C61.0685 50.2322 61.2188 54.2854 61.2188 56.2656H89.2188ZM88.6793 42.2307C88.184 33.7485 87.9531 27.5086 87.9531 23.3594H59.9531C59.9531 28.3351 60.2222 35.2203 60.7269 43.863L88.6793 42.2307ZM87.9531 23.3594C87.9531 20.4541 88.0404 18.1377 88.1873 16.3499L60.2814 14.0563C60.0534 16.831 59.9531 19.9522 59.9531 23.3594H87.9531ZM75.0813 1.22877L67.3469 0.760016L65.6531 28.7087L73.3874 29.1775L75.0813 1.22877ZM52.5006 14.601L52.36 29.3667L80.3587 29.6333L80.4994 14.8677L52.5006 14.601ZM61.9322 16.2184C61.2565 16.4437 60.1466 16.6719 58.4375 16.6719V44.6719C62.6034 44.6719 66.7748 44.1188 70.7866 42.7816L61.9322 16.2184ZM58.4375 16.6719C58.1525 16.6719 57.9592 16.6688 57.8419 16.6656C57.7852 16.664 57.7614 16.6628 57.7655 16.663C57.7671 16.6631 57.82 16.6656 57.9126 16.6734L55.5874 44.5766C56.5634 44.658 57.6 44.6719 58.4375 44.6719V16.6719ZM65.4142 19.6281C65.6262 19.7951 65.7636 19.9252 65.8304 19.9915C65.8979 20.0585 65.9135 20.0805 65.8801 20.0408C65.8473 20.0018 65.7784 19.9167 65.6754 19.7749C65.5728 19.6338 65.4446 19.4479 65.2921 19.2106L41.7391 34.3519C43.2726 36.7373 45.3346 39.4543 48.0858 41.6219L65.4142 19.6281ZM65.3876 19.3613C64.9552 18.6695 64.5043 17.7436 64.0973 16.5049L37.4964 25.2451C38.5269 28.3814 39.8885 31.393 41.6436 34.2012L65.3876 19.3613ZM64.0973 16.5049C63.781 15.5422 63.7188 14.91 63.7188 14.5469H35.7188C35.7188 18.2462 36.3752 21.8328 37.4964 25.2451L64.0973 16.5049ZM63.7188 14.5469C63.7188 14.0532 63.7393 13.6691 63.7661 13.3828C63.793 13.0955 63.8237 12.9341 63.8357 12.8787C63.8477 12.823 63.8345 12.9041 63.7635 13.089C63.6917 13.2758 63.5543 13.5858 63.3138 13.9693L39.5925 -0.906797C36.4282 4.13897 35.7188 9.86698 35.7188 14.5469H63.7188ZM63.3138 13.9693C63.074 14.3516 62.6887 14.8183 62.1416 15.2444C61.5964 15.669 61.0722 15.912 60.6957 16.0357L51.9605 -10.5669C46.804 -8.87372 42.5091 -5.55769 39.5925 -0.906797L63.3138 13.9693ZM60.8737 15.9759C61.2998 15.8296 62.7054 15.4813 65.592 15.3009L63.8455 -12.6446C59.7321 -12.3875 55.5439 -11.7984 51.7825 -10.5071L60.8737 15.9759ZM65.522 15.3051C70.7449 15.0049 76.9595 14.7756 84.1884 14.6218L83.5928 -13.3718C76.1343 -13.2131 69.5676 -12.9736 63.9155 -12.6488L65.522 15.3051ZM84.2464 14.6205C91.5142 14.4357 98.4419 14.3438 105.031 14.3438V-13.6562C98.1831 -13.6562 91.017 -13.5607 83.5348 -13.3705L84.2464 14.6205ZM94.0125 8.98009C93.9307 8.87573 93.8517 8.75422 93.784 8.62366C93.7167 8.49367 93.6758 8.38405 93.6534 8.31064L120.44 0.158112C119.511 -2.89448 118.047 -5.74463 116.05 -8.29259L94.0125 8.98009ZM93.7367 8.57466C93.7472 8.60689 93.7527 8.62797 93.7553 8.63839C93.7578 8.64875 93.7578 8.65022 93.7567 8.64349C93.7556 8.6367 93.7538 8.62401 93.7523 8.60628C93.7509 8.58852 93.75 8.56841 93.75 8.54688H121.75C121.75 5.56041 121.259 2.65997 120.357 -0.105913L93.7367 8.57466ZM93.75 8.54688C93.75 8.69768 93.7312 8.53299 93.8455 8.15894C93.9669 7.76152 94.1907 7.28775 94.5338 6.83546L116.841 23.7583C120.382 19.0912 121.75 13.7166 121.75 8.54688H93.75ZM94.5338 6.83546C95.2362 5.90961 96.2422 5.08001 97.4286 4.5507C98.5415 4.05417 99.3732 4.01562 99.5938 4.01562V32.0156C105.766 32.0156 112.321 29.7162 116.841 23.7583L94.5338 6.83546ZM99.5938 4.01562C99.3966 4.01562 98.5074 3.96347 96.7015 3.5063L89.8297 30.65C92.9614 31.4428 96.2909 32.0156 99.5938 32.0156V4.01562ZM79.2759 16.5423C78.7203 31.0481 77.9199 44.3889 76.8789 56.574L104.777 58.9573C105.861 46.2673 106.686 32.4832 107.255 17.6139L79.2759 16.5423ZM76.8856 56.4981C76.7222 58.296 76.4781 59.5913 76.238 60.4764L103.262 67.8049C104.022 65.0025 104.497 62.0477 104.771 59.0331L76.8856 56.4981ZM76.238 60.4764C76.1915 60.6478 76.1571 60.7191 76.1585 60.7162C76.1589 60.7153 76.1664 60.6996 76.183 60.6722C76.1996 60.6446 76.2228 60.6092 76.2531 60.5687L98.6531 77.3688C100.86 74.426 102.35 71.1689 103.262 67.8049L76.238 60.4764ZM76.3029 60.5028C76.5438 60.1855 76.8209 59.928 77.0785 59.7455C77.3259 59.5704 77.4652 59.5279 77.4012 59.551L86.9113 85.8865C91.3641 84.2786 95.4841 81.5429 98.6034 77.4347L76.3029 60.5028ZM77.4012 59.551C76.869 59.7432 76.0193 59.9375 74.7031 59.9375V87.9375C78.8244 87.9375 82.9435 87.3193 86.9113 85.8865L77.4012 59.551ZM74.7031 59.9375C73.8287 59.9375 72.9094 59.7892 71.8806 59.4162L62.3382 85.74C66.3093 87.1796 70.4525 87.9375 74.7031 87.9375V59.9375ZM71.9338 59.4356C72.2838 59.5641 72.7614 59.8181 73.224 60.2341C73.6789 60.6431 73.9096 61.0198 73.9887 61.1741L49.0738 73.9509C51.8555 79.3753 56.3652 83.5475 62.2849 85.7206L71.9338 59.4356ZM75.5296 67.7779C75.5456 66.7352 75.6706 66.2623 75.6908 66.1947L48.8717 58.149C47.9544 61.2065 47.5794 64.3273 47.5329 67.3471L75.5296 67.7779ZM75.7124 66.1222C75.617 66.4464 75.5405 66.5595 75.6006 66.4504C75.6605 66.3415 75.8227 66.0727 76.1549 65.6445L54.0326 48.4805C51.9342 51.1851 49.9617 54.4423 48.8501 58.2215L75.7124 66.1222ZM154.344 5.17188L145.97 16.3914L146.015 16.4253L146.061 16.459L154.344 5.17188ZM163.297 18.1094L149.883 22.1181L149.897 22.1642L149.911 22.2103L163.297 18.1094ZM113.703 64.1875L102.141 72.0811L102.154 72.1L102.167 72.1189L113.703 64.1875ZM143.047 58.5625L151.447 69.7625L153.779 68.0133L155.219 65.4786L143.047 58.5625ZM144.828 51.3906L158.73 53.0486L158.73 53.0412L158.731 53.0337L144.828 51.3906ZM144.781 27.4375L130.859 28.909L130.865 28.9713L130.873 29.0336L144.781 27.4375ZM143.047 19.375L155.62 13.2169L154.241 10.4013L151.793 8.44284L143.047 19.375ZM134.516 17.4531L134.753 3.45514L134.634 3.45312H134.516V17.4531ZM131.609 17.6406L133.155 31.555L133.373 31.5308L133.589 31.4999L131.609 17.6406ZM129.781 18.1094L122.727 6.01647L119.529 7.88223L117.671 11.0853L129.781 18.1094ZM127.766 24.9062L113.915 22.8651L113.906 22.9267L113.898 22.9883L127.766 24.9062ZM129.594 57.5312L116.205 61.6223L117.151 64.7176L119.359 67.0837L129.594 57.5312ZM121.047 37.5625C121.047 26.6091 123.263 20.9759 125.367 18.2992C126.966 16.2647 129.724 14.3438 136.297 14.3438V-13.6562C123.37 -13.6562 111.503 -9.37403 103.352 0.997711C95.7055 10.7272 93.0469 23.7034 93.0469 37.5625H121.047ZM136.297 14.3438C142.265 14.3438 144.925 15.6116 145.97 16.3914L162.718 -6.04761C155.137 -11.7054 145.767 -13.6562 136.297 -13.6562V14.3438ZM146.061 16.459C147.811 17.7433 149.081 19.434 149.883 22.1181L176.711 14.1007C174.263 5.90971 169.564 -1.02457 162.626 -6.11521L146.061 16.459ZM149.911 22.2103C151.049 25.9257 151.781 30.9524 151.781 37.5625H179.781C179.781 29.0476 178.857 21.1056 176.683 14.0085L149.911 22.2103ZM151.781 37.5625C151.781 46.9159 149.848 52.6418 147.443 56.1021L170.432 72.0854C177.152 62.4207 179.781 50.4591 179.781 37.5625H151.781ZM147.443 56.1021C146.297 57.7495 143.852 59.9375 136.297 59.9375V87.9375C149.804 87.9375 162.453 83.563 170.432 72.0854L147.443 56.1021ZM136.297 59.9375C128.575 59.9375 126.246 57.7201 125.24 56.2561L102.167 72.1189C110.098 83.6549 122.831 87.9375 136.297 87.9375V59.9375ZM125.266 56.2939C122.963 52.9217 121.047 47.1548 121.047 37.5625H93.0469C93.0469 50.4702 95.5678 62.4533 102.141 72.0811L125.266 56.2939ZM138.641 72.9844C140.095 72.9844 141.614 72.9478 142.998 72.8152C143.674 72.7505 144.633 72.6346 145.683 72.3944C146.272 72.2596 148.878 71.6893 151.447 69.7625L134.647 47.3625C136.022 46.331 137.27 45.8068 137.887 45.5723C138.579 45.3098 139.135 45.1692 139.438 45.0998C139.764 45.0251 140.006 44.9863 140.127 44.9686C140.255 44.9497 140.328 44.9428 140.33 44.9426C140.335 44.9422 140.299 44.9456 140.216 44.9506C140.134 44.9556 140.02 44.9613 139.869 44.9665C139.565 44.9772 139.16 44.9844 138.641 44.9844V72.9844ZM155.219 65.4786C157.49 61.4814 158.301 56.6439 158.73 53.0486L130.927 49.7327C130.768 51.0635 130.605 51.9042 130.491 52.3637C130.437 52.5827 130.415 52.6272 130.447 52.5389C130.475 52.4624 130.6 52.1299 130.874 51.6464L155.219 65.4786ZM158.731 53.0337C159.215 48.9448 159.438 44.5401 159.438 39.8594H131.438C131.438 43.6786 131.254 46.9614 130.925 49.7475L158.731 53.0337ZM159.438 39.8594C159.438 34.9416 159.197 30.2614 158.69 25.8414L130.873 29.0336C131.24 32.2386 131.438 35.8396 131.438 39.8594H159.438ZM158.704 25.966C158.288 22.0331 157.55 17.1587 155.62 13.2169L130.474 25.5331C130.277 25.1319 130.21 24.9017 130.223 24.9442C130.232 24.972 130.282 25.1391 130.356 25.4833C130.508 26.1901 130.689 27.3004 130.859 28.909L158.704 25.966ZM151.793 8.44284C148.573 5.86677 144.98 4.78269 142.378 4.25149L136.779 31.686C136.904 31.7115 136.721 31.6859 136.334 31.529C135.953 31.3746 135.191 31.0189 134.301 30.3072L151.793 8.44284ZM142.378 4.25149C139.868 3.73941 137.309 3.49845 134.753 3.45514L134.278 31.4511C135.41 31.4703 136.225 31.5731 136.779 31.686L142.378 4.25149ZM134.516 3.45312C132.918 3.45312 131.276 3.54618 129.629 3.78133L133.589 31.4999C133.693 31.4851 133.988 31.4531 134.516 31.4531V3.45312ZM130.063 3.72625C128.781 3.86873 125.735 4.26192 122.727 6.01647L136.835 30.2023C135.526 30.9659 134.437 31.2765 133.997 31.3894C133.491 31.519 133.176 31.5527 133.155 31.555L130.063 3.72625ZM117.671 11.0853C115.476 14.8695 114.463 19.1472 113.915 22.8651L141.616 26.9474C141.763 25.9529 141.915 25.3156 142.02 24.9609C142.131 24.5849 142.135 24.7141 141.892 25.1334L117.671 11.0853ZM113.898 22.9883C113.383 26.7063 113.156 30.7267 113.156 34.9844H141.156C141.156 31.6796 141.335 28.9812 141.634 26.8242L113.898 22.9883ZM113.156 34.9844C113.156 39.7777 113.419 44.5557 113.944 49.3161L141.775 46.2464C141.363 42.5068 141.156 38.7535 141.156 34.9844H113.156ZM113.944 49.3161C114.444 53.8533 115.135 58.1223 116.205 61.6223L142.983 53.4402C142.677 52.4402 142.212 50.2092 141.775 46.2464L113.944 49.3161ZM119.359 67.0837C122.043 69.9592 125.198 71.0689 126.439 71.471C128.062 71.9967 129.663 72.2892 130.976 72.4735L134.868 44.7453C134.399 44.6795 134.555 44.6674 135.068 44.8337C135.342 44.9223 135.921 45.1266 136.655 45.5197C137.353 45.8932 138.583 46.6448 139.829 47.9788L119.359 67.0837ZM130.976 72.4735C133.478 72.8247 136.04 72.9844 138.641 72.9844V44.9844C137.179 44.9844 135.928 44.8941 134.868 44.7453L130.976 72.4735ZM169.391 53.0781L158.32 44.5077L154.963 48.8448L155.445 54.3086L169.391 53.0781ZM180.969 46.0469L192.688 38.3879L187.784 30.8844L178.917 32.198L180.969 46.0469ZM184.859 52L173.14 59.659L185.975 79.2973L197.164 58.6774L184.859 52ZM192.312 38.2656L204.617 44.9431L208.202 38.338L204.678 31.7006L192.312 38.2656ZM182.656 20.0781L195.022 13.5131L188.11 0.495306L175.465 8.06648L182.656 20.0781ZM175.297 24.4844L165.724 34.7001L173.429 41.9202L182.489 36.496L175.297 24.4844ZM168.594 18.2031L154.734 16.2232L153.704 23.4365L159.021 28.4189L168.594 18.2031ZM171.781 9.53125L183.676 16.9143L183.695 16.884L183.714 16.8535L171.781 9.53125ZM178.297 2.92188L185.704 14.8017L185.723 14.79L185.742 14.7783L178.297 2.92188ZM193.766 2.5L185.366 13.7L185.47 13.7782L185.576 13.8544L193.766 2.5ZM198.266 8.59375L185.298 13.8711L185.306 13.8908L185.314 13.9105L198.266 8.59375ZM202.203 27.9062L188.208 28.2845L216.023 30.1472L202.203 27.9062ZM202.484 26.1719L216.304 28.4129L216.32 28.3161L216.334 28.2192L202.484 26.1719ZM204.078 16.8438L190.389 13.9103L190.372 13.9884L190.356 14.0667L204.078 16.8438ZM206.422 9.0625L193.434 3.83573L193.407 3.90418L193.38 3.97291L206.422 9.0625ZM210.359 2.875L220.16 12.872L220.166 12.8666L210.359 2.875ZM225.031 4L214.057 12.6935L214.085 12.7285L214.113 12.7632L225.031 4ZM229.438 12.7656L216.018 16.7552L216.023 16.7719L216.028 16.7885L229.438 12.7656ZM231.453 23.2188L241.899 32.5398L245.933 28.0194L245.399 21.9846L231.453 23.2188ZM226.25 27.5312L219.895 15.0567L219.847 15.0813L219.799 15.1063L226.25 27.5312ZM219.734 29.4062L207.923 36.9225L212.807 44.5968L221.803 43.2525L219.734 29.4062ZM214.812 21.6719L226.624 14.1556L213.47 -6.51533L202.34 15.3126L214.812 21.6719ZM207.547 35.9219L195.075 29.5626L191.545 36.4856L195.553 43.143L207.547 35.9219ZM218.469 54.0625L206.475 61.2837L214.246 74.192L226.55 65.4946L218.469 54.0625ZM226.625 48.2969L236.565 38.4379L228.22 30.0246L218.544 36.8648L226.625 48.2969ZM232.344 54.0625L246.285 55.3428L246.882 48.8399L242.284 44.2035L232.344 54.0625ZM229.859 63.25L217.088 57.5157L217.074 57.546L217.061 57.5763L229.859 63.25ZM224.094 70.8438L215.265 59.9782L215.232 60.0054L215.199 60.0328L224.094 70.8438ZM209 72.1094L201.459 83.9047L201.571 83.9763L201.684 84.0458L209 72.1094ZM204.031 66.9531L192.144 74.3494L192.175 74.3987L192.206 74.4478L204.031 66.9531ZM198.359 45.5781L212.32 44.5311L212.307 44.3579L212.29 44.1851L198.359 45.5781ZM198.266 43.9844H212.266L184.434 41.818L198.266 43.9844ZM197.656 47.875L183.825 45.7086L183.816 45.7681L183.807 45.8277L197.656 47.875ZM196.016 57.25L182.319 54.3496L182.303 54.4269L182.287 54.5044L196.016 57.25ZM189.734 71.4062L199.544 81.3945L199.589 81.3503L199.634 81.3057L189.734 71.4062ZM181.438 73.8906L181.669 59.8925L181.647 59.8922L181.624 59.8919L181.438 73.8906ZM171.266 62.6406L157.871 66.7117L157.895 66.7905L157.919 66.8691L171.266 62.6406ZM180.461 61.6485C181.101 60.8217 181.627 60.3927 181.987 60.1606L166.826 36.6206C163.498 38.7636 160.68 41.4596 158.32 44.5077L180.461 61.6485ZM181.987 60.1606C181.9 60.2166 182.133 60.0272 183.02 59.8957L178.917 32.198C174.742 32.8166 170.6 34.1897 166.826 36.6206L181.987 60.1606ZM169.25 53.7059L173.14 59.659L196.579 44.341L192.688 38.3879L169.25 53.7059ZM197.164 58.6774L204.617 44.9431L180.008 31.5882L172.554 45.3226L197.164 58.6774ZM204.678 31.7006L195.022 13.5131L170.291 26.6432L179.947 44.8307L204.678 31.7006ZM175.465 8.06648L168.105 12.4727L182.489 36.496L189.848 32.0898L175.465 8.06648ZM184.87 14.2686L178.167 7.98738L159.021 28.4189L165.724 34.7001L184.87 14.2686ZM182.453 20.183C182.607 19.1044 182.974 18.0452 183.676 16.9143L159.886 2.14817C157.213 6.45479 155.455 11.1768 154.734 16.2232L182.453 20.183ZM183.714 16.8535C184.302 15.8941 184.947 15.274 185.704 14.8017L170.889 -8.95795C166.334 -6.11778 162.635 -2.33159 159.849 2.20902L183.714 16.8535ZM185.742 14.7783C186.165 14.5124 186.531 14.3906 187.156 14.3906V-13.6094C181.344 -13.6094 175.804 -12.0437 170.852 -8.93458L185.742 14.7783ZM187.156 14.3906C187.113 14.3906 186.849 14.3823 186.45 14.2552C186.041 14.1245 185.663 13.923 185.366 13.7L202.166 -8.7C197.669 -12.0722 192.46 -13.6094 187.156 -13.6094V14.3906ZM185.576 13.8544C185.429 13.749 185.311 13.6449 185.22 13.5538C185.129 13.4635 185.078 13.3974 185.058 13.3713C185.022 13.3217 185.127 13.4506 185.298 13.8711L211.233 3.31638C209.381 -1.23458 206.443 -5.61785 201.956 -8.85442L185.576 13.8544ZM185.314 13.9105C187.057 18.1555 188.063 22.9044 188.208 28.2845L216.198 27.528C215.968 19.0331 214.349 10.907 211.217 3.27697L185.314 13.9105ZM216.023 30.1472L216.304 28.4129L188.665 23.9309L188.384 25.6653L216.023 30.1472ZM216.334 28.2192C216.841 24.7902 217.331 21.936 217.8 19.6208L190.356 14.0667C189.762 17.0015 189.19 20.366 188.635 24.1246L216.334 28.2192ZM217.767 19.7772C218.169 17.905 218.73 16.0316 219.464 14.1521L193.38 3.97291C192.113 7.21837 191.113 10.5325 190.389 13.9103L217.767 19.7772ZM219.41 14.2893C219.886 13.1057 220.233 12.8005 220.16 12.872L200.558 -7.12202C197.298 -3.92551 195.02 -0.105745 193.434 3.83573L219.41 14.2893ZM220.166 12.8666C219.256 13.7595 218.349 14.1726 217.852 14.3333C217.419 14.4732 217.406 14.3906 218.047 14.3906V-13.6094C212.602 -13.6094 205.843 -12.3084 200.553 -7.11658L220.166 12.8666ZM218.047 14.3906C217.299 14.3906 216.35 14.2066 215.428 13.7304C214.552 13.2775 214.128 12.7824 214.057 12.6935L236.005 -4.69349C231.795 -10.0081 225.609 -13.6094 218.047 -13.6094V14.3906ZM214.113 12.7632C214.692 13.4845 215.408 14.7037 216.018 16.7552L242.857 8.77604C241.404 3.89001 239.183 -0.734477 235.949 -4.76324L214.113 12.7632ZM216.028 16.7885C216.79 19.3283 217.28 21.8786 217.508 24.4529L245.399 21.9846C245.001 17.4964 244.148 13.078 242.847 8.74275L216.028 16.7885ZM221.007 13.8977C220.475 14.4941 220.089 14.8509 219.859 15.0414C219.625 15.235 219.634 15.1895 219.895 15.0567L232.605 40.0058C236.351 38.0976 239.42 35.3185 241.899 32.5398L221.007 13.8977ZM219.799 15.1063C219.975 15.0149 219.923 15.0659 219.531 15.1788C219.147 15.2893 218.541 15.4291 217.665 15.56L221.803 43.2525C225.363 42.7206 229.199 41.7747 232.701 39.9562L219.799 15.1063ZM231.546 21.89L226.624 14.1556L203.001 29.1881L207.923 36.9225L231.546 21.89ZM202.34 15.3126L195.075 29.5626L220.019 42.2811L227.285 28.0311L202.34 15.3126ZM195.553 43.143L206.475 61.2837L230.463 46.8413L219.541 28.7007L195.553 43.143ZM226.55 65.4946L234.706 59.729L218.544 36.8648L210.387 42.6304L226.55 65.4946ZM216.685 58.1559L222.404 63.9215L242.284 44.2035L236.565 38.4379L216.685 58.1559ZM218.402 52.7822C218.275 54.1711 217.887 55.7344 217.088 57.5157L242.631 68.9843C244.581 64.6406 245.85 60.0789 246.285 55.3428L218.402 52.7822ZM217.061 57.5763C216.585 58.6493 215.999 59.3818 215.265 59.9782L232.922 81.7093C237.188 78.2432 240.446 73.9132 242.658 68.9237L217.061 57.5763ZM215.199 60.0328C215.194 60.0363 215.222 60.0133 215.281 59.9804C215.34 59.947 215.404 59.9182 215.464 59.8974C215.524 59.8769 215.552 59.8735 215.535 59.8762C215.516 59.8792 215.436 59.8906 215.281 59.8906V87.8906C221.704 87.8906 227.843 85.8886 232.989 81.6547L215.199 60.0328ZM215.281 59.8906C215.404 59.8906 215.606 59.9091 215.843 59.9764C216.079 60.0435 216.243 60.1282 216.316 60.173L201.684 84.0458C205.8 86.5685 210.422 87.8906 215.281 87.8906V59.8906ZM216.541 60.3141C216.617 60.3624 216.342 60.2248 215.856 59.4584L192.206 74.4478C194.533 78.119 197.571 81.4189 201.459 83.9047L216.541 60.3141ZM215.918 59.5569C215.13 58.29 214.338 56.4679 213.745 53.8613L186.443 60.0762C187.6 65.1571 189.433 69.9912 192.144 74.3494L215.918 59.5569ZM213.745 53.8613C213.017 50.6632 212.547 47.5551 212.32 44.5311L184.399 46.6252C184.734 51.1012 185.421 55.5868 186.443 60.0762L213.745 53.8613ZM212.29 44.1851C212.274 44.0298 212.268 43.9336 212.265 43.8888C212.262 43.8408 212.266 43.8779 212.266 43.9844H184.266C184.266 45.0389 184.338 46.064 184.429 46.9712L212.29 44.1851ZM184.434 41.818L183.825 45.7086L211.488 50.0414L212.097 46.1507L184.434 41.818ZM183.807 45.8277C183.305 49.2242 182.806 52.052 182.319 54.3496L209.712 60.1504C210.35 57.1355 210.945 53.7133 211.506 49.9223L183.807 45.8277ZM182.287 54.5044C181.927 56.3068 181.391 58.1205 180.662 59.9526L206.681 70.2974C208.015 66.942 209.042 63.5057 209.744 59.9956L182.287 54.5044ZM180.662 59.9526C180.172 61.1852 179.801 61.5409 179.835 61.5068L199.634 81.3057C202.856 78.0841 205.109 74.2523 206.681 70.2974L180.662 59.9526ZM179.924 61.418C180.939 60.422 181.919 60.0282 182.332 59.9048C182.677 59.8013 182.541 59.907 181.669 59.8925L181.206 87.8887C186.747 87.9803 193.973 86.8668 199.544 81.3945L179.924 61.418ZM181.624 59.8919C182.668 59.9058 183.792 60.181 184.794 60.7203C185.735 61.2272 186.198 61.7656 186.291 61.883L164.396 79.3357C168.217 84.1288 173.951 87.7921 181.251 87.8894L181.624 59.8919ZM186.291 61.883C185.831 61.3058 185.195 60.2544 184.612 58.4121L157.919 66.8691C159.336 71.3393 161.419 75.6004 164.396 79.3357L186.291 61.883ZM184.661 58.5696C183.962 56.2694 183.529 54.0331 183.336 51.8476L155.445 54.3086C155.814 58.4982 156.632 62.6368 157.871 66.7117L184.661 58.5696ZM236.141 57.9531L240.502 44.6499L233.79 42.4492L228.032 46.5406L236.141 57.9531ZM241.344 59.4531L238.077 73.0665L251.578 76.307L254.93 62.8322L241.344 59.4531ZM251.703 16.2812L265.336 19.4649L268.934 4.05894L253.205 2.36202L251.703 16.2812ZM240.406 15.0625L227.255 19.8637L230.243 28.0473L238.905 28.9817L240.406 15.0625ZM239.984 2.78125L237.33 -10.9648L228.488 -9.25743L226.375 -0.503717L239.984 2.78125ZM255.641 0.90625L256.528 14.8781L256.562 14.8759L256.596 14.8736L255.641 0.90625ZM277.812 0.34375L284.758 -11.8117L281.663 -13.5806L278.098 -13.6533L277.812 0.34375ZM280.766 2.03125L293.919 -2.76232L292.164 -7.58009L287.712 -10.1242L280.766 2.03125ZM296.75 60.4844L283.077 63.4938L283.12 63.6875L283.168 63.8799L296.75 60.4844ZM297.078 61.9844L283.372 64.8397L283.429 65.111L283.496 65.3799L297.078 61.9844ZM297.5 64.1406L283.628 66.0322L283.634 66.0764L283.641 66.1205L297.5 64.1406ZM294.828 72.3906L299.947 85.4211L302.182 84.5431L303.997 82.9703L294.828 72.3906ZM276.406 71.6406L262.421 70.9902L262.176 76.2638L265.474 80.3864L276.406 71.6406ZM276.969 59.5469L290.954 60.1973L291.029 58.5754L290.731 56.9792L276.969 59.5469ZM275.797 53.2656L289.559 50.698L287.29 38.5319L274.937 39.2921L275.797 53.2656ZM260.375 53.1719L261.397 39.2092L249.332 38.3265L246.708 50.1348L260.375 53.1719ZM259.812 55.7031L273.474 58.7651L273.476 58.7526L273.479 58.7402L259.812 55.7031ZM256.812 67.2812L243.568 62.7453L243.54 62.8269L243.513 62.9088L256.812 67.2812ZM253.438 72.3438L245.189 61.0316L245.132 61.0731L245.076 61.1151L253.438 72.3438ZM241.062 73.2344L244.561 59.6785L244.458 59.6519L244.355 59.627L241.062 73.2344ZM232.297 68.6875H218.297V73.7562L221.542 77.6501L232.297 68.6875ZM269 16.7031L282.687 13.7602L280.31 2.70312H269V16.7031ZM266.844 16.7031V2.70312H254.74L252.991 14.68L266.844 16.7031ZM263.469 39.8125L249.616 37.7893L247.276 53.8125H263.469V39.8125ZM273.969 39.8125V53.8125H291.299L287.656 36.8696L273.969 39.8125ZM231.779 71.2563C233.961 71.9719 236.068 72.5845 238.077 73.0665L244.611 45.8397C243.494 45.5717 242.132 45.1843 240.502 44.6499L231.779 71.2563ZM254.93 62.8322C257.982 50.5615 261.451 36.1027 265.336 19.4649L238.07 13.0976C234.205 29.6473 230.768 43.9698 227.758 56.074L254.93 62.8322ZM253.205 2.36202L241.908 1.14327L238.905 28.9817L250.201 30.2005L253.205 2.36202ZM253.557 10.2613C253.497 10.0957 253.328 9.52935 253.328 8.35938H225.328C225.328 12.1894 225.878 16.0918 227.255 19.8637L253.557 10.2613ZM253.328 8.35938C253.328 7.53484 253.421 6.77911 253.594 6.06622L226.375 -0.503717C225.672 2.40839 225.328 5.37141 225.328 8.35938H253.328ZM242.639 16.5273C246.45 15.7913 251.058 15.2254 256.528 14.8781L254.754 -13.0656C248.41 -12.6629 242.581 -11.9788 237.33 -10.9648L242.639 16.5273ZM256.596 14.8736C262.331 14.4812 267.088 14.2969 270.922 14.2969V-13.7031C266.255 -13.7031 260.826 -13.4812 254.685 -13.0611L256.596 14.8736ZM270.922 14.2969C273.963 14.2969 276.144 14.3126 277.527 14.3408L278.098 -13.6533C276.419 -13.6876 274.006 -13.7031 270.922 -13.7031V14.2969ZM270.867 12.4992L273.82 14.1867L287.712 -10.1242L284.758 -11.8117L270.867 12.4992ZM267.612 6.82482C272.559 20.3994 277.732 39.2065 283.077 63.4938L310.423 57.475C304.956 32.6373 299.472 12.4756 293.919 -2.76232L267.612 6.82482ZM283.168 63.8799C283.153 63.8214 283.15 63.8029 283.159 63.846C283.168 63.8828 283.182 63.9451 283.202 64.0386C283.243 64.2269 283.3 64.4903 283.372 64.8397L310.784 59.129C310.637 58.4224 310.473 57.6519 310.332 57.0889L283.168 63.8799ZM283.496 65.3799C283.573 65.6893 283.611 65.9042 283.628 66.0322L311.372 62.249C311.202 61.002 310.958 59.7794 310.66 58.5889L283.496 65.3799ZM283.641 66.1205C283.651 66.1954 283.641 66.1555 283.641 66.0156H311.641C311.641 64.6882 311.536 63.3983 311.359 62.1607L283.641 66.1205ZM283.641 66.0156C283.641 65.6354 283.716 64.863 284.129 63.9272C284.551 62.9708 285.143 62.2582 285.659 61.811L303.997 82.9703C309.137 78.5157 311.641 72.4332 311.641 66.0156H283.641ZM289.709 59.3601C289.143 59.5824 287.807 59.9375 285.312 59.9375V87.9375C290.255 87.9375 295.263 87.2613 299.947 85.4211L289.709 59.3601ZM285.312 59.9375C284.57 59.9375 283.771 59.8586 282.9 59.6753L277.131 87.0747C279.823 87.6414 282.555 87.9375 285.312 87.9375V59.9375ZM282.9 59.6753C282.74 59.6417 283.139 59.7042 283.841 60.0414C284.529 60.3721 285.977 61.1931 287.338 62.8949L265.474 80.3864C269.224 85.0742 274.477 86.5159 277.131 87.0747L282.9 59.6753ZM290.391 72.2911L290.954 60.1973L262.984 58.8964L262.421 70.9902L290.391 72.2911ZM290.731 56.9792L289.559 50.698L262.034 55.8333L263.206 62.1145L290.731 56.9792ZM274.937 39.2921C273.271 39.3946 271.18 39.4531 268.625 39.4531V67.4531C271.57 67.4531 274.26 67.3867 276.657 67.2392L274.937 39.2921ZM268.625 39.4531C265.981 39.4531 263.575 39.3686 261.397 39.2092L259.353 67.1345C262.3 67.3501 265.394 67.4531 268.625 67.4531V39.4531ZM246.708 50.1348L246.146 52.6661L273.479 58.7402L274.042 56.2089L246.708 50.1348ZM246.151 52.6412C244.938 58.054 244.078 61.2551 243.568 62.7453L270.057 71.8172C271.109 68.7449 272.249 64.2272 273.474 58.7651L246.151 52.6412ZM243.513 62.9088C243.41 63.2213 243.709 62.1106 245.189 61.0316L261.686 83.6559C266.166 80.3894 268.715 75.9037 270.112 71.6537L243.513 62.9088ZM245.076 61.1151C246.142 60.321 247.028 60.0568 247.311 59.9866C247.58 59.9197 247.474 59.9844 246.828 59.9844V87.9844C251.096 87.9844 256.845 87.2617 261.799 83.5724L245.076 61.1151ZM246.828 59.9844C246.159 59.9844 245.412 59.8982 244.561 59.6785L237.564 86.7903C240.588 87.5705 243.685 87.9844 246.828 87.9844V59.9844ZM244.355 59.627C243.375 59.3899 242.708 59.1187 242.271 58.8915L229.354 83.7335C232.042 85.1313 234.875 86.1413 237.77 86.8418L244.355 59.627ZM242.271 58.8915C242.03 58.7659 242.011 58.7341 242.138 58.829C242.263 58.9224 242.618 59.2046 243.052 59.7249L221.542 77.6501C223.915 80.4982 226.815 82.4134 229.354 83.7335L242.271 58.8915ZM246.297 68.6875C246.297 67.8882 246.415 67.2694 246.589 66.754L220.067 57.7773C218.867 61.3244 218.297 64.9868 218.297 68.6875H246.297ZM246.589 66.754C246.645 66.5879 246.583 66.8373 246.273 67.3118C245.951 67.8067 245.318 68.6068 244.25 69.3657L228.032 46.5406C223.547 49.7272 221.274 54.2104 220.067 57.7773L246.589 66.754ZM269 2.70312H266.844V30.7031H269V2.70312ZM252.991 14.68L249.616 37.7893L277.322 41.8357L280.697 18.7263L252.991 14.68ZM263.469 53.8125H273.969V25.8125H263.469V53.8125ZM287.656 36.8696L282.687 13.7602L255.313 19.646L260.282 42.7554L287.656 36.8696Z" fill="white" mask="url(#path-1-outside-1_55_7)"/>
</svg>
