<svg width="24" height="24" viewBox="0 0 24 24" fill="none" xmlns="http://www.w3.org/2000/svg">
<path d="M12 24C18.6274 24 24 18.6274 24 12C24 5.37258 18.6274 0 12 0C5.37258 0 0 5.37258 0 12C0 18.6274 5.37258 24 12 24Z" fill="url(#paint0_linear_42_94)"/>
<path d="M17.2515 16.7814L13.1938 6.97113C12.9649 6.46391 12.6247 6.21649 12.1763 6.21649H11.8175C11.3691 6.21649 11.0289 6.46391 10.8 6.97113L9.03402 11.2454H7.69794C7.29897 11.2485 6.97423 11.5701 6.97113 11.9722V11.9814C6.97423 12.3804 7.29897 12.7052 7.69794 12.7082H8.41546L6.7299 16.7814C6.69897 16.8711 6.68041 16.9639 6.68041 17.0598C6.68041 17.2887 6.75155 17.468 6.87835 17.6072C7.00515 17.7464 7.18763 17.8144 7.41649 17.8144C7.56804 17.8113 7.7134 17.7649 7.83402 17.6753C7.96392 17.5856 8.05361 17.4557 8.12474 17.3072L9.98041 12.7052H11.267C11.666 12.7021 11.9907 12.3804 11.9938 11.9783V11.9598C11.9907 11.5608 11.666 11.2361 11.267 11.233H10.5804L11.9969 7.70412L15.8567 17.3041C15.9278 17.4526 16.0175 17.5825 16.1474 17.6722C16.268 17.7619 16.4165 17.8082 16.5649 17.8113C16.7938 17.8113 16.9732 17.7433 17.1031 17.6041C17.233 17.4649 17.301 17.2856 17.301 17.0567C17.3041 16.9639 17.2887 16.868 17.2515 16.7814Z" fill="white"/>
<defs>
<linearGradient id="paint0_linear_42_94" x1="20.947" y1="4.47174" x2="3.09103" y2="19.4957" gradientUnits="userSpaceOnUse">
<stop stop-color="#B6509E"/>
<stop offset="1" stop-color="#2EBAC6"/>
</linearGradient>
</defs>
</svg>
