<svg width="24" height="24" viewBox="0 0 24 24" fill="none" xmlns="http://www.w3.org/2000/svg">
<circle cx="12" cy="12" r="12" fill="#E0EDFF"/>
<path d="M8.38644 11.4464C8.35231 12.0482 8.80884 12.5633 9.40191 12.5979C9.42324 12.5979 9.44458 12.5979 9.46591 12.5979C10.0632 12.5979 10.5454 12.1088 10.5411 11.5027C10.5411 10.8967 10.059 10.4075 9.46164 10.4118C8.88991 10.4118 8.41631 10.8663 8.38644 11.4464Z" fill="#0033AD"/>
<path d="M4.36724 11.1651C4.17524 11.1521 4.00884 11.3036 4.00031 11.4984C3.99178 11.6932 4.13684 11.862 4.32884 11.8707C4.52084 11.8837 4.68298 11.7322 4.69578 11.5373C4.70858 11.3425 4.55924 11.178 4.36724 11.1651Z" fill="#0033AD"/>
<path d="M8.31818 5.10013C8.48884 5.01354 8.55711 4.79709 8.47178 4.62393C8.38644 4.45077 8.17311 4.38151 8.00244 4.46809C7.83178 4.55467 7.76351 4.76679 7.84884 4.93995C7.93418 5.11744 8.14324 5.19103 8.31818 5.10013C8.31818 5.10013 8.31391 5.10013 8.31818 5.10013Z" fill="#0033AD"/>
<path d="M9.41044 7.03519C9.67498 6.90099 9.78164 6.57199 9.64938 6.30359C9.51711 6.03519 9.19284 5.92697 8.92831 6.06117C8.66378 6.19537 8.55711 6.52437 8.68938 6.79277C8.82164 7.06117 9.14591 7.16939 9.41044 7.03519Z" fill="#0033AD"/>
<path d="M5.73258 8.3642C5.93738 8.4984 6.21044 8.44212 6.34698 8.23433C6.47924 8.02654 6.42378 7.74948 6.21898 7.61095C6.01418 7.47675 5.74111 7.53303 5.60458 7.74082C5.46804 7.94862 5.52778 8.23 5.73258 8.3642Z" fill="#0033AD"/>
<path d="M6.38538 10.9702C6.08671 10.9529 5.83498 11.1824 5.81791 11.4854C5.80084 11.7884 6.02698 12.0438 6.32564 12.0612C6.62431 12.0785 6.87604 11.849 6.89311 11.546C6.91018 11.2473 6.68404 10.9876 6.38538 10.9702Z" fill="#0033AD"/>
<path d="M5.79231 14.6369C5.57471 14.7495 5.48511 15.0179 5.59604 15.243C5.70698 15.4638 5.97151 15.5547 6.19338 15.4421C6.41098 15.3296 6.50058 15.0612 6.38964 14.8361C6.27871 14.6153 6.00991 14.5244 5.79231 14.6369Z" fill="#0033AD"/>
<path d="M7.88298 9.84038C8.17738 10.0352 8.56991 9.95293 8.75764 9.65423C8.94964 9.35553 8.86858 8.95726 8.57418 8.76678C8.27978 8.57198 7.88724 8.65423 7.69951 8.95293C7.50751 9.2473 7.58858 9.64557 7.88298 9.84038Z" fill="#0033AD"/>
<path d="M14.5176 6.99191C14.7651 7.15641 15.1022 7.08714 15.2643 6.83606C15.4264 6.58498 15.3582 6.24299 15.1107 6.07849C14.8632 5.91398 14.5262 5.98325 14.364 6.23433C14.1976 6.48974 14.2659 6.8274 14.5176 6.99191Z" fill="#0033AD"/>
<path d="M15.6184 5.06549C15.7806 5.17372 15.9939 5.1261 16.1006 4.9616C16.2072 4.79709 16.1603 4.58064 15.9982 4.47242C15.836 4.36419 15.6227 4.41181 15.516 4.57198C15.4136 4.73649 15.4606 4.95727 15.6184 5.06549Z" fill="#0033AD"/>
<path d="M14.5987 10.4032C14.0056 10.3685 13.4936 10.8317 13.4638 11.4335C13.4296 12.0352 13.8862 12.5547 14.4792 12.585C14.5006 12.585 14.5219 12.585 14.539 12.585C15.132 12.585 15.6142 12.0958 15.6142 11.4897C15.6184 10.914 15.1704 10.4335 14.5987 10.4032Z" fill="#0033AD"/>
<path d="M9.76458 9.76247C9.94804 10.1304 10.3192 10.3642 10.7288 10.3642C11.3219 10.3642 11.804 9.87502 11.804 9.26896C11.804 9.10013 11.7656 8.9313 11.6888 8.77546C11.42 8.23433 10.7715 8.01788 10.2424 8.29061C9.70911 8.56766 9.49578 9.22567 9.76458 9.76247Z" fill="#0033AD"/>
<path d="M18.2083 8.36419C18.4259 8.25164 18.5112 7.97891 18.4003 7.75813C18.2894 7.53735 18.0206 7.45077 17.803 7.56333C17.5854 7.67588 17.5 7.94428 17.6067 8.16506C17.7219 8.38584 17.9864 8.47675 18.2083 8.36419Z" fill="#0033AD"/>
<path d="M15.4776 8.71052C15.1662 8.87069 15.0382 9.25597 15.196 9.57199C15.3539 9.888 15.7336 10.0179 16.0451 9.8577C16.3566 9.69753 16.4846 9.31225 16.3267 8.99623C16.1688 8.68021 15.7891 8.55467 15.4776 8.71052Z" fill="#0033AD"/>
<path d="M11.9576 4.90098C12.2008 4.91397 12.4099 4.72349 12.427 4.47674C12.444 4.22999 12.252 4.01786 12.0088 4.00055C11.7656 3.98756 11.5566 4.17371 11.5395 4.42046C11.5267 4.67154 11.7144 4.88367 11.9576 4.90098Z" fill="#0033AD"/>
<path d="M11.9534 7.72784C12.3032 7.74949 12.6019 7.47676 12.619 7.12178C12.6403 6.7668 12.3715 6.46377 12.0216 6.44646C11.6718 6.42481 11.3731 6.69754 11.356 7.05252C11.339 7.40749 11.6035 7.71053 11.9534 7.72784Z" fill="#0033AD"/>
<path d="M8.52298 14.2906C8.83444 14.1304 8.96244 13.7451 8.80458 13.4291C8.64671 13.1131 8.26698 12.9832 7.95551 13.1434C7.64404 13.3036 7.51604 13.6889 7.67391 14.0049C7.83178 14.3209 8.21151 14.4508 8.52298 14.2906Z" fill="#0033AD"/>
<path d="M12.363 8.66721C12.0387 9.17371 12.1752 9.84903 12.6744 10.178C13.1736 10.507 13.8392 10.3685 14.1635 9.86202C14.4878 9.35552 14.3512 8.6802 13.852 8.3512C13.6771 8.23431 13.4723 8.17371 13.2632 8.17371C12.9006 8.17371 12.5635 8.35985 12.363 8.66721Z" fill="#0033AD"/>
<path d="M14.236 13.2387C13.9672 12.6975 13.3187 12.4811 12.7896 12.7538C12.2563 13.0265 12.043 13.6845 12.3118 14.2213C12.5806 14.7625 13.2291 14.9789 13.7582 14.7062C14.2872 14.4378 14.5048 13.7884 14.2403 13.2473C14.2403 13.243 14.2403 13.243 14.236 13.2387Z" fill="#0033AD"/>
<path d="M16.1176 13.1607C15.8232 12.9659 15.4307 13.0482 15.243 13.3469C15.051 13.6456 15.132 14.0439 15.4264 14.2343C15.7208 14.4291 16.1134 14.3469 16.3011 14.0482C16.4931 13.7538 16.412 13.3555 16.1176 13.1607Z" fill="#0033AD"/>
<path d="M18.1827 11.52C18.1998 11.217 17.9736 10.9616 17.675 10.9443C17.3763 10.927 17.1246 11.1564 17.1075 11.4594C17.0904 11.7625 17.3166 12.0179 17.6152 12.0352C17.9096 12.0525 18.1656 11.8187 18.1827 11.52Z" fill="#0033AD"/>
<path d="M19.6718 11.1304C19.4798 11.1174 19.3134 11.2689 19.3048 11.4637C19.2963 11.6586 19.4414 11.8274 19.6334 11.836C19.8254 11.849 19.9875 11.6975 20.0003 11.5027C20.0088 11.3079 19.8638 11.1434 19.6718 11.1304Z" fill="#0033AD"/>
<path d="M18.268 14.6369C18.0632 14.5027 17.7902 14.559 17.6536 14.7668C17.5214 14.9746 17.5768 15.2516 17.7816 15.3902C17.9864 15.5244 18.2595 15.4681 18.396 15.2603C18.5326 15.0525 18.4728 14.7711 18.268 14.6369Z" fill="#0033AD"/>
<path d="M8.37791 17.9356C8.21578 17.8274 8.00244 17.875 7.89578 18.0352C7.78911 18.1997 7.83604 18.4161 7.99391 18.5244C8.15604 18.6326 8.36938 18.585 8.47604 18.4248C8.58698 18.2646 8.54004 18.0438 8.37791 17.9356Z" fill="#0033AD"/>
<path d="M15.6824 17.901C15.5118 17.9876 15.4435 18.204 15.5288 18.3772C15.6142 18.5503 15.8275 18.6196 15.9982 18.533C16.1688 18.4464 16.2371 18.2343 16.1518 18.0611C16.0664 17.8837 15.8574 17.8101 15.6824 17.901C15.6824 17.901 15.6867 17.901 15.6824 17.901Z" fill="#0033AD"/>
<path d="M11.6376 14.3339C11.9619 13.8274 11.8254 13.1521 11.3262 12.8187C10.827 12.4897 10.1614 12.6283 9.83284 13.1348C9.50431 13.6413 9.64511 14.3166 10.1443 14.6499C10.3192 14.7668 10.524 14.8274 10.7331 14.8274C11.1 14.8317 11.4371 14.6456 11.6376 14.3339Z" fill="#0033AD"/>
<path d="M9.48298 16.0092C9.23551 15.8447 8.89844 15.914 8.73631 16.1651C8.57418 16.4161 8.64244 16.7581 8.88991 16.9226C9.13738 17.0871 9.47445 17.0179 9.63658 16.7668C9.80298 16.5157 9.73471 16.1737 9.48298 16.0092Z" fill="#0033AD"/>
<path d="M11.996 18.1001C11.7528 18.0871 11.5438 18.2776 11.5267 18.5244C11.5096 18.7711 11.7016 18.9832 11.9448 19.0005C12.188 19.0135 12.3971 18.8274 12.4142 18.5806C12.427 18.3296 12.2392 18.1174 11.996 18.1001Z" fill="#0033AD"/>
<path d="M12.0003 15.2733C11.6504 15.2516 11.3518 15.5244 11.3347 15.8793C11.3134 16.2343 11.5822 16.5373 11.932 16.5547C12.2819 16.572 12.5806 16.3036 12.5976 15.9486C12.619 15.5979 12.3502 15.2906 12.0003 15.2733Z" fill="#0033AD"/>
<path d="M14.5902 15.9659C14.3256 16.1045 14.219 16.4335 14.3555 16.7019C14.492 16.9703 14.8163 17.0785 15.0808 16.94C15.3454 16.8058 15.452 16.4768 15.3198 16.2084C15.1832 15.94 14.859 15.8274 14.5902 15.9659Z" fill="#0033AD"/>
</svg>
