<svg width="24" height="24" viewBox="0 0 24 24" fill="none" xmlns="http://www.w3.org/2000/svg">
<circle cx="12" cy="12" r="12" fill="#222222"/>
<path d="M8.90796 18L10.5044 15.2451L12.1009 12.5L13.6876 9.74515L13.9504 9.30864L14.0673 9.74515L14.554 11.5591L14.0088 12.5L12.4124 15.2451L10.8257 18H12.7336L14.3301 15.2451L15.1575 13.8192L15.5469 15.2451L16.2867 18H18L17.2602 15.2451L16.5204 12.5L16.3257 11.7919L17.5133 9.74515H15.7805L15.7221 9.54145L15.1186 7.29101L15.0407 7H13.3761L13.3372 7.0582L11.7796 9.74515L10.1832 12.5L8.59646 15.2451L7 18H8.90796Z" fill="white"/>
</svg>
