<svg width="24" height="24" viewBox="0 0 24 24" fill="none" xmlns="http://www.w3.org/2000/svg">
<path d="M12 24C5.39992 24 0 18.5996 0 12C0 5.39992 5.39992 0 12 0C18.5996 0 24 5.39992 24 12C24 18.5996 18.5996 24 12 24Z" fill="#4BDB4B"/>
<path opacity="0.4" d="M18.9785 14.3476C19.5782 15.4482 19.1787 16.8476 18.1787 17.4482C17.0781 18.0488 15.6787 17.6484 15.0782 16.6484L10.2788 8.44823C9.67871 7.34811 10.0786 5.94821 11.1787 5.34813C12.2788 4.6484 13.5782 5.04832 14.2793 6.1484L18.9785 14.3476Z" fill="black"/>
<path opacity="0.65" d="M9.54834 16.6484C8.94823 17.748 7.54833 18.1484 6.44822 17.4482C5.34815 16.8476 4.94822 15.4482 5.64842 14.3477L10.3481 6.1484C10.9482 5.04833 12.3481 4.6484 13.4482 5.34813C14.5488 5.94821 14.9482 7.34811 14.248 8.44822L9.54834 16.6484Z" fill="black"/>
<path d="M14.5498 7.29982C14.5498 8.60011 12.2501 11.7998 12.2501 11.7998C12.2501 11.7998 10.0498 8.60011 10.0498 7.29982C10.0498 6 11.0498 5 12.3501 5C13.6504 5 14.5498 6.1001 14.5498 7.29982Z" fill="black"/>
</svg>
