<svg width="25" height="25" viewBox="0 0 25 25" fill="none" xmlns="http://www.w3.org/2000/svg">
<path d="M12.7307 0.599976C19.3628 0.599976 24.7307 5.96788 24.7307 12.6C24.7307 19.2321 19.3628 24.6 12.7307 24.6C6.09858 24.6 0.730667 19.2321 0.730667 12.6C0.730667 5.96788 6.09858 0.599976 12.7307 0.599976Z" fill="url(#paint0_radial_43_415)"/>
<path d="M20.8798 8.84631C20.8214 9.13805 20.7631 9.27419 20.7047 9.44923C20.6269 9.62427 20.5491 9.83821 20.4713 10.2272C20.4324 10.3828 20.4324 10.4995 20.413 10.6162C20.3936 10.7912 20.3741 10.8885 20.3158 11.1024C20.2574 11.258 20.1602 11.5303 19.9462 11.822C19.7712 12.0554 19.46 12.4638 19.071 12.5027C19.0321 12.5027 18.9543 12.5027 18.9349 12.5027C17.8068 11.9192 16.8344 11.4914 16.4843 11.3941C16.0953 11.2774 16.1342 10.4217 16.1926 9.68262C16.212 9.35198 16.2315 9.02135 16.212 8.74907C16.1537 7.79607 15.9981 6.76528 15.1618 6.24015C14.6756 5.92897 14.0337 5.85117 13.4114 5.85117C13.5281 5.79283 13.6448 5.71503 13.7809 5.63724C14.131 5.4233 14.5783 5.17046 15.0256 5.13156C15.1618 5.11212 15.3174 5.09267 15.4535 5.09267C16.3482 4.99542 17.1261 4.89818 17.9235 5.18991C18.2931 5.32605 19.0516 5.73448 19.2461 6.12346C19.3822 6.39574 19.6156 6.60968 20.0824 7.03756C20.3158 7.27095 20.4908 7.38764 20.6075 7.48489C20.7631 7.62103 20.802 7.64048 20.8603 7.73772C21.0159 8.06835 20.9576 8.39899 20.8798 8.84631Z" fill="white"/>
<path d="M16.7371 12.7556C16.7955 12.775 16.8344 12.8528 16.7955 12.9112C16.6788 13.0862 16.5427 13.3391 16.3871 13.6308C16.3093 13.7669 16.2315 13.9225 16.1731 14.0198C15.9592 14.3893 15.9397 14.7199 15.9203 14.9728C15.9008 15.2451 15.9008 15.3617 15.7258 15.459C15.5897 15.5562 15.4535 15.5757 14.52 15.7118C14.3644 15.7313 14.2866 15.7702 14.2282 15.7896C14.2088 15.7896 14.2088 15.7896 14.1893 15.8091C14.131 15.8285 14.0532 15.7896 14.0726 15.7118C14.0726 15.5757 14.0921 15.4201 14.0921 15.2256V15.1867C14.0921 15.0117 14.0921 14.8561 14.0921 14.7394C14.0726 14.506 14.0726 14.4087 14.1504 14.2921C14.2282 14.1754 14.2866 14.1365 14.3838 14.0587C14.52 13.9614 14.7145 13.8447 15.0062 13.4558C15.1618 13.2418 15.1812 13.1446 15.2201 13.0473C15.2201 13.0084 15.2396 12.989 15.3563 12.9112C15.473 12.8139 15.8425 12.5417 16.3287 12.6194C16.4065 12.6389 16.5816 12.6972 16.7371 12.7556Z" fill="white"/>
<path d="M13.0613 17.0538C13.0419 17.0732 13.0224 17.0927 12.9835 17.0927C12.8863 17.0927 12.8085 17.0732 12.7696 17.0149C12.6723 16.8982 12.6918 16.6648 12.7112 16.5286L13.1002 16.4314C13.1197 16.6453 13.1391 16.9371 13.0613 17.0538Z" fill="white"/>
<path d="M13.0808 15.634C13.0808 15.6923 13.0613 15.7507 13.0613 15.8285C13.0613 15.8479 13.0613 15.8868 13.0613 15.9063C13.0613 15.9646 13.0613 16.0813 13.0613 16.1202C12.9446 16.1591 12.8279 16.1591 12.6918 16.1591C12.6918 16.1202 12.6918 16.0619 12.6918 16.023C12.6918 15.9841 12.6918 15.9646 12.6918 15.9257C12.6918 15.8868 12.6918 15.8674 12.6918 15.8285C12.6918 15.7507 12.6918 15.634 12.7112 15.5951C12.7501 15.5951 12.789 15.5756 12.8279 15.5756C12.9057 15.5562 13.0224 15.5367 13.0808 15.5367C13.1002 15.5562 13.0808 15.5951 13.0808 15.634Z" fill="white"/>
<path d="M12.3611 16.9371C12.3417 17.1316 12.2833 17.3844 12.0888 17.4233C12.0111 17.4428 11.9527 17.4233 11.9333 17.3844C11.7971 17.2677 11.7777 16.8982 11.7971 16.6454C11.8749 16.6454 11.9916 16.6259 12.1277 16.6065C12.2055 16.587 12.2833 16.5676 12.3611 16.5676C12.3611 16.6648 12.3611 16.801 12.3611 16.9371Z" fill="white"/>
<path d="M12.2639 16.2175L11.836 16.3536C11.8555 16.1786 11.8944 15.9452 11.8944 15.7896C11.8944 15.6729 11.9333 15.6535 11.9333 15.634C11.9333 15.634 11.9333 15.634 11.9527 15.634L12.225 15.6146C12.2639 15.7702 12.2639 16.0424 12.2639 16.2175Z" fill="white"/>
<path d="M11.5832 16.0813C11.5637 16.1397 11.5248 16.3342 11.5054 16.4509L10.9608 16.4314C10.9997 16.2564 11.0386 16.1008 11.0775 15.9646C11.1164 15.8285 11.1748 15.7313 11.2137 15.7118C11.272 15.6729 11.3887 15.6729 11.4665 15.7313C11.5832 15.8285 11.6221 15.9452 11.5832 16.0813Z" fill="white"/>
<path d="M11.3692 17.715C11.3303 17.7734 11.272 17.7928 11.2331 17.8123C11.1747 17.8123 11.1359 17.8123 11.097 17.7734C10.9219 17.6178 10.9414 17.1121 10.9414 16.8593C11.1553 16.8009 11.4081 16.762 11.5248 16.762C11.5443 16.9565 11.5443 17.5011 11.3692 17.715Z" fill="white"/>
<path d="M10.6691 16.412C10.6496 16.4898 10.6107 16.5481 10.5913 16.6065C10.5329 16.6259 10.3385 16.6065 10.144 16.5676L10.2801 15.7313C10.494 15.6729 10.7469 15.6535 10.8247 15.7118C10.9025 15.809 10.7469 16.2369 10.6691 16.412Z" fill="white"/>
<path d="M10.4357 17.8512C10.3384 17.9873 10.1829 18.0457 9.94946 18.0457C9.79387 18.0457 9.73552 17.9873 9.71608 17.9484C9.59938 17.754 9.71608 17.3066 9.83277 17.0149L10.5524 17.0538C10.5524 17.1121 10.5718 17.1705 10.5718 17.2288C10.5913 17.4233 10.5718 17.6762 10.4357 17.8512Z" fill="white"/>
<path d="M16.426 11.7248C15.7647 11.5303 15.823 10.5773 15.8814 9.66321C15.9008 9.33258 15.9203 9.02139 15.9008 8.76856C15.8425 7.9128 15.7064 6.9598 15.0062 6.53193C14.2671 6.06515 13.0418 6.18185 12.2833 6.27909C12.0111 6.35689 11.7388 6.41523 11.5443 6.41523C11.097 6.39578 10.7469 6.2013 10.4551 6.0457C10.2217 5.90956 10.0078 5.81232 9.81332 5.81232C9.79387 5.81232 9.79387 5.81232 9.77442 5.81232C9.19096 5.85121 8.91867 5.98736 8.68528 6.22074C8.62694 6.27909 8.54914 6.43468 8.2963 7.13485C8.17961 7.48493 8.14071 7.67941 8.12126 7.8739C8.10181 8.04894 8.08236 8.22399 7.98512 8.49627C7.92677 8.67131 7.86843 8.84635 7.82953 8.9825C7.71284 9.39092 7.61559 9.70211 7.32386 10.0911C7.28496 10.13 7.24606 10.2078 7.20716 10.2856C7.14882 10.3828 7.07102 10.519 6.95433 10.6551C6.87653 10.7523 6.70149 11.1413 6.72094 11.258C6.74039 11.4525 6.79874 11.5692 6.85708 11.7053C6.93488 11.8415 7.01267 11.9971 7.01267 12.211V12.2499C7.03212 12.5805 6.99322 12.7556 6.35141 13.3196C5.94298 13.6891 5.65125 14.0392 5.45676 14.2921C5.43731 14.3115 5.45676 14.3504 5.49566 14.3504H5.5151C5.53455 14.3504 5.53455 14.3504 5.554 14.3504C5.57345 14.3504 5.57345 14.3504 5.5929 14.3504C5.61235 14.3504 5.61235 14.3504 5.6318 14.3504C5.78739 14.3699 5.94298 14.4282 6.04023 14.5449C6.05967 14.5643 6.07912 14.5643 6.11802 14.5643C6.21527 14.5254 6.33196 14.5254 6.44865 14.5449C6.5848 14.5643 6.70149 14.6032 6.79873 14.681C6.83763 14.7199 6.87653 14.7199 6.91543 14.7199C7.01267 14.7005 7.12937 14.7005 7.22661 14.7394C7.30441 14.7588 7.36275 14.8172 7.4211 14.8561C7.46 14.9144 7.55724 14.9144 7.61559 14.8755C7.63504 14.8561 7.67394 14.8561 7.69339 14.8366C7.82953 14.7977 7.98512 14.8172 8.12126 14.8561C8.17961 14.8755 8.25741 14.895 8.31575 14.9339C8.413 14.9922 8.47134 15.0895 8.52969 15.2062C8.56859 15.284 8.66583 15.3229 8.74363 15.2645C8.82143 15.2062 8.89922 15.1867 8.97702 15.2256C8.99647 15.2451 9.03536 15.2645 9.05481 15.284C9.11316 15.3423 9.19096 15.4006 9.26875 15.3812C9.48269 15.3229 9.73553 15.3617 9.91057 15.459C9.98836 15.4979 10.0467 15.5562 10.1051 15.634V15.5951C10.1051 15.5757 10.1245 15.5562 10.144 15.5562L10.1829 15.5368C10.2801 15.4979 10.8247 15.3423 11.0386 15.5757C11.0386 15.5757 11.0581 15.5951 11.0775 15.5757C11.097 15.5368 11.1359 15.5368 11.1359 15.5173C11.272 15.4395 11.5054 15.4201 11.661 15.5562C11.6999 15.5757 11.7388 15.5757 11.7582 15.5368C11.7777 15.5173 11.7971 15.4979 11.8166 15.4784C11.8749 15.4395 11.9333 15.4006 12.0111 15.4201L12.3028 15.4006C12.3806 15.4006 12.614 15.3812 12.6918 15.3617H12.7112C12.7501 15.3617 12.7696 15.3423 12.8085 15.3423C12.9446 15.3034 13.1196 15.284 13.2558 15.3423C13.3919 15.4006 13.3725 15.5562 13.353 15.6729C13.353 15.7313 13.3336 15.7896 13.3336 15.8285C13.3336 15.848 13.3336 15.8869 13.3336 15.9063C13.3336 16.023 13.3336 16.1203 13.3141 16.1981L13.3336 16.2564C13.353 16.3147 13.4114 16.3536 13.4697 16.3147C13.567 16.2564 13.6642 16.1786 13.7031 16.1203C13.7031 16.1203 13.7031 16.1203 13.7031 16.1008C13.7031 16.0814 13.7226 16.0619 13.7226 16.0036C13.742 15.8869 13.7615 15.6729 13.7615 15.2062C13.7615 15.1867 13.7615 15.1673 13.7615 15.1478C13.7615 14.9728 13.7615 14.8366 13.7615 14.7199C13.742 14.4671 13.742 14.2726 13.8587 14.0781C13.9754 13.8836 14.0921 13.8058 14.2088 13.7475C14.3449 13.6697 14.4811 13.5724 14.7339 13.2418C14.8506 13.0668 14.87 13.0084 14.8895 12.9501C14.9089 12.8334 14.9478 12.7556 15.1423 12.6C15.2979 12.4833 15.7453 12.1332 16.3676 12.2499C16.5621 12.2888 16.8927 12.3861 17.2234 12.5222C17.2428 12.5222 17.2428 12.5222 17.2623 12.5417H17.2817C17.5735 12.6583 17.8457 12.775 18.0208 12.8723C18.0791 12.8917 18.1375 12.8917 18.1764 12.8334C18.2347 12.775 18.2931 12.7167 18.3514 12.6778C18.3709 12.6583 18.3903 12.6583 18.4098 12.6389C18.4681 12.5805 18.4681 12.4833 18.3903 12.4444C17.5151 12.0554 16.6982 11.8026 16.426 11.7248ZM10.2023 11.9193C10.0078 12.7945 8.62694 13.7864 8.00457 13.7864H7.98512C7.96567 13.7864 7.96567 13.7864 7.94622 13.7864C7.92677 13.7864 7.92677 13.7864 7.90733 13.7864H7.88788C7.77118 13.7475 7.61559 13.6697 7.4989 13.553C7.4211 13.4752 7.36275 13.378 7.32386 13.2807C7.32386 13.2613 7.32386 13.2418 7.30441 13.2224C7.26551 13.0668 7.22661 12.8917 7.36275 12.5806C7.3822 12.5417 7.40165 12.5028 7.4211 12.4639C7.4211 12.4444 7.44055 12.4444 7.44055 12.425C7.46 12.3861 7.46 12.3666 7.47945 12.3277C7.4989 12.2888 7.51835 12.2499 7.51835 12.211C7.51835 12.1916 7.5378 12.1916 7.5378 12.1721C7.57669 12.0749 7.57669 12.0165 7.57669 11.9776C7.57669 11.9387 7.57669 11.8998 7.59614 11.8415C7.63504 11.6665 7.65449 11.5303 7.67394 11.4136C7.71283 11.1802 7.73228 10.9857 7.84898 10.8107C7.86843 10.7718 7.88788 10.7524 7.92677 10.7329L7.94622 10.7135L7.96567 10.694C8.00457 10.6746 8.02402 10.6551 8.06292 10.6357C8.08236 10.6357 8.08237 10.6162 8.10181 10.6162C8.12126 10.6162 8.16016 10.5968 8.17961 10.5968C8.2963 10.5773 8.43245 10.5579 8.56859 10.5773C8.74363 10.5968 8.87977 10.6162 9.01591 10.6551C9.13261 10.694 9.22985 10.7135 9.30765 10.7523C9.30765 10.7523 9.3271 10.7523 9.3271 10.7718C9.34655 10.7718 9.366 10.7912 9.366 10.7912C9.38545 10.8107 9.40489 10.8107 9.42434 10.8107C9.44379 10.8301 9.48269 10.8301 9.50214 10.8496H9.52159C9.61883 10.8885 9.69663 10.9468 9.77442 10.9857C9.81332 11.0052 9.83277 11.0441 9.87167 11.0635C9.89112 11.0635 9.89112 11.083 9.89112 11.083L9.91057 11.1024C10.2606 11.4136 10.2412 11.7248 10.2023 11.9193ZM10.8441 8.57407L10.8247 8.72966C10.7663 9.09919 10.6302 9.58541 10.1051 9.72155C9.59938 9.83825 9.48269 9.87715 9.13261 9.87715H9.11316C8.86032 9.87715 8.35465 9.72156 8.25741 9.31313C8.19906 9.04084 8.31575 8.8658 8.51024 8.53517C8.54914 8.47682 8.56859 8.41847 8.60749 8.36013C8.86032 7.93225 8.95757 7.62107 9.03536 7.38768C9.11316 7.15429 9.17151 6.94036 9.34655 6.78476C9.38544 6.74587 9.42434 6.70697 9.48269 6.66807C9.52159 6.64862 9.54104 6.62917 9.57993 6.60972C9.61883 6.59027 9.67718 6.57083 9.73553 6.55138C9.85222 6.51248 9.96891 6.49303 10.1051 6.49303C10.3384 6.49303 10.5913 6.57082 10.7663 6.70697C10.8441 6.76531 10.9608 6.90146 11.0192 7.27099C11.0192 7.44603 10.9608 7.79611 10.8441 8.57407ZM14.5589 9.60486C14.3838 9.91604 14.2866 10.0911 14.131 10.2078C13.8198 10.4606 13.4697 10.519 13.178 10.519C12.9641 10.519 12.789 10.4801 12.6723 10.4606C12.3611 10.4023 11.7971 10.305 11.6026 9.8577C11.5637 9.76045 11.5637 9.72155 11.5637 9.64376C11.5637 9.56596 11.5637 9.44927 11.5248 9.17699V9.15754C11.5054 9.02139 11.4859 8.88525 11.5248 8.69076V8.67131C11.6221 8.12674 11.661 8.04895 11.6804 7.9906C11.7388 7.89335 11.8749 7.83501 11.9722 7.89335C12.0694 7.9517 12.1277 8.06839 12.0694 8.18509C12.0499 8.22399 12.0305 8.34068 11.9527 8.74911V8.76856C11.9333 8.88525 11.9333 8.98249 11.9527 9.09919V9.11864C11.9916 9.42982 11.9916 9.56596 11.9916 9.64376C11.9916 9.66321 11.9916 9.66321 11.9916 9.68266C11.9916 9.68266 11.9916 9.68266 11.9916 9.70211C12.0305 9.7799 12.0888 9.83825 12.1666 9.87715C12.2444 9.91604 12.3222 9.83825 12.3028 9.76045C12.2055 9.29368 12.225 8.74911 12.4 8.41847C12.4584 8.30178 12.5751 8.10729 12.6723 7.93225C12.6918 7.9128 12.6918 7.89335 12.7112 7.8739C12.7112 7.85445 12.7307 7.83501 12.7307 7.83501C12.7696 7.75721 12.8279 7.67941 12.8474 7.64052C12.8474 7.64052 12.8474 7.62107 12.8668 7.62107C12.8668 7.62107 12.8668 7.60162 12.8863 7.60162C12.8863 7.58217 12.9057 7.58217 12.9057 7.56272C12.9057 7.56272 12.9057 7.56272 12.9057 7.54327V7.52382L12.9252 7.50437C12.9446 7.46548 12.9835 7.42658 13.0029 7.38768C13.0613 7.30988 13.0029 7.21264 12.9057 7.25154C12.7501 7.32933 12.6529 7.40713 12.6334 7.40713C12.5362 7.48493 12.4 7.46548 12.3222 7.36823C12.2444 7.27099 12.2639 7.13484 12.3611 7.05705C12.4778 6.9598 13.0613 6.53193 13.7809 6.74587C14.2866 6.88201 14.5589 7.29044 14.6561 7.42658C14.7339 7.54327 14.9867 7.9128 14.9867 8.41847C15.0062 8.80745 14.8506 9.09919 14.5589 9.60486Z" fill="white"/>
<path d="M9.93002 6.94031C9.89112 7.03755 9.85222 7.1348 9.79387 7.25149C9.67718 7.52377 9.56049 7.83496 9.50214 7.95165C9.4049 8.14614 9.3271 8.26283 9.2493 8.36008C9.17151 8.47677 9.11316 8.55457 9.07426 8.69071C8.99647 8.90465 8.97702 9.15749 9.03537 9.42977C8.89922 9.41032 8.68528 9.31308 8.64639 9.19638C8.62694 9.09914 8.68528 9.02134 8.84088 8.74906C8.87977 8.69071 8.89922 8.63236 8.93812 8.57402C9.21041 8.10724 9.3271 7.75716 9.4049 7.50433C9.50214 7.23204 9.54104 7.11535 9.67718 7.0181C9.77443 6.99865 9.85222 6.95976 9.93002 6.94031Z" fill="white"/>
<path d="M9.65774 16.7426C9.50215 17.0538 9.3271 17.326 9.21041 17.4816C9.11317 17.2288 8.93813 16.6259 8.99647 16.1397C8.99647 16.1202 8.99647 16.1202 8.99647 16.1008C9.01592 15.9452 9.05482 15.809 9.13261 15.7118C9.17151 15.634 9.30766 15.5951 9.46325 15.5951C9.57994 15.5951 9.69663 15.6145 9.79388 15.6729C9.85223 15.6923 9.93002 15.7701 9.93002 15.9257C9.91057 16.1397 9.81333 16.4508 9.65774 16.7426Z" fill="white"/>
<path d="M17.943 13.2807C17.9624 13.2807 17.9624 13.3001 17.9624 13.3196C17.9235 13.4168 17.8652 13.4752 17.8068 13.553C17.729 13.6502 17.6512 13.7475 17.554 13.9031C17.4373 14.1364 17.3984 14.3504 17.379 14.8755C17.3595 15.4979 17.379 15.8674 17.3984 16.1202C17.4179 16.3731 17.4179 16.5287 17.379 16.762C17.2817 17.2483 17.0872 17.5789 16.8149 17.9873C16.4843 18.493 16.1342 19.0376 15.5702 19.2126C15.5119 19.2321 15.5119 19.2321 15.3757 19.2321C15.2396 19.2321 15.0256 19.2321 14.6172 19.2515C13.8782 19.271 13.4892 19.2904 13.178 19.3488C12.8474 19.4071 12.6723 19.4849 12.4973 19.5627C12.3417 19.621 12.2055 19.6794 11.9138 19.7377C11.7582 19.7766 11.5054 19.8155 10.6691 19.8155C9.79388 19.8155 9.26875 19.8155 8.56859 19.7377C7.61559 19.621 7.12937 19.5821 6.81819 19.4071C6.05968 18.9987 5.7485 18.2791 5.22337 17.0927C5.22337 17.0732 5.24282 17.0538 5.24282 17.0732C5.26227 17.0927 5.30117 17.0927 5.32062 17.1121C5.34007 17.1121 5.35952 17.1316 5.39841 17.1316C5.43731 17.1316 5.49566 17.1316 5.554 17.1316H5.57346H5.5929C5.6318 17.2288 5.6707 17.3066 5.76794 17.3455C5.86519 17.3844 5.96243 17.4039 6.05968 17.4039C6.15692 17.4039 6.27362 17.4039 6.37086 17.3844C6.42921 17.3844 6.48755 17.4039 6.507 17.4622C6.60425 17.6956 6.72094 17.8512 6.89598 17.8706C6.89598 17.8706 6.91543 17.8706 6.93488 17.8706C6.97378 17.8706 7.01268 17.8706 7.09047 17.8123C7.16827 17.7539 7.30441 17.7928 7.36276 17.8706C7.40166 17.9095 7.44055 17.9484 7.47945 17.9679C7.65449 18.1429 8.10182 18.2402 8.4519 18.2402C8.64639 18.2402 8.82143 18.2207 8.93812 18.1624C9.09371 18.0846 9.09371 17.9679 9.07427 17.929C9.05482 17.8512 9.05482 17.7734 9.03537 17.6956C9.03537 17.6956 9.05482 17.6761 9.05482 17.6956C9.07426 17.7345 9.09371 17.8123 9.17151 17.8123H9.19096C9.2882 17.8123 9.4438 17.8512 9.48269 17.9484C9.50214 18.0068 9.52159 18.0457 9.54104 18.0846C9.59939 18.1818 9.73553 18.2985 9.96892 18.2985H9.98837C10.2801 18.2985 10.494 18.2013 10.6302 18.0262C10.6302 18.0068 10.6496 18.0068 10.6496 17.9873C10.708 17.9095 10.8636 17.9095 10.9219 17.9679C10.9997 18.0457 11.097 18.0651 11.1942 18.0651C11.2136 18.0651 11.2331 18.0651 11.2525 18.0651C11.3887 18.0457 11.4859 17.9873 11.5637 17.8706C11.6221 17.7928 11.661 17.6956 11.6804 17.5984C11.6804 17.5595 11.7388 17.5595 11.7582 17.5789C11.8166 17.6372 11.8944 17.6761 12.0305 17.6761C12.0694 17.6761 12.0889 17.6761 12.1277 17.6567C12.3806 17.5984 12.4973 17.4039 12.5556 17.1705C12.5556 17.1705 12.5751 17.151 12.5751 17.1705C12.6334 17.2483 12.7501 17.3261 12.9446 17.3261C12.9641 17.3261 12.9641 17.3261 12.9835 17.3261C13.0807 17.3261 13.178 17.2677 13.2363 17.1899C13.3141 17.0927 13.353 16.9371 13.353 16.8009C13.353 16.7426 13.3919 16.7037 13.4503 16.6843C13.6642 16.587 13.8976 16.412 13.9754 16.2758C13.9948 16.2369 14.0337 16.198 14.0726 16.198C14.2282 16.1591 14.306 16.1397 14.3644 16.1008C14.4227 16.0813 14.4616 16.0619 14.5783 16.0424C15.5313 15.9063 15.7064 15.8674 15.9203 15.7313C16.2315 15.5173 16.2509 15.245 16.2509 14.9727C16.2704 14.7394 16.2704 14.4865 16.4649 14.1753C16.5232 14.0586 16.601 13.9225 16.6788 13.7669C16.8149 13.5141 17.0094 13.164 17.1456 12.9695C17.1845 12.9306 17.2428 12.9112 17.2817 12.9306C17.6124 13.0862 17.8846 13.2223 17.943 13.2807Z" fill="white"/>
<path d="M8.74364 16.1008C8.70474 16.4314 8.68529 16.8593 8.74364 17.4427C8.76309 17.5983 8.78254 17.7734 8.80198 17.9484C8.76309 17.9679 8.62694 18.0068 8.39356 18.0068C8.04348 18.0068 7.71284 17.9095 7.6156 17.8123L7.59615 17.7928C7.51835 17.7345 7.46001 17.6761 7.46001 17.5594C7.46001 17.5205 7.47946 17.4816 7.51835 17.4233C7.5378 17.3844 7.55725 17.3455 7.59615 17.3066C7.6545 17.2288 7.73229 17.1316 7.79064 17.0149C8.00458 16.6453 8.08237 16.5481 8.17962 16.3925C8.17962 16.373 8.19907 16.373 8.19907 16.3536C8.25741 16.2758 8.33521 16.1786 8.43245 16.0035C8.51025 15.8868 8.58805 15.7896 8.62694 15.7118C8.72419 15.5951 8.78254 15.5173 8.82143 15.4784C8.82143 15.5367 8.80198 15.6145 8.78254 15.6923C8.78254 15.7896 8.76309 15.9257 8.74364 16.1008Z" fill="white"/>
<path d="M8.58805 11.0052C8.5297 11.083 8.4908 11.1413 8.43245 11.2775C8.27686 11.647 8.25741 11.8415 8.25741 12.0165C8.25741 12.0943 8.25741 12.1721 8.23796 12.2499C8.21852 12.3083 8.19907 12.3666 8.16017 12.425C8.06292 12.6389 7.94623 12.9306 7.98513 13.3196C7.90733 13.2807 7.79064 13.2029 7.77119 13.1446C7.77119 13.1251 7.77119 13.1057 7.75174 13.0862C7.73229 12.9695 7.71284 12.8917 7.79064 12.7167C7.98513 12.2499 8.02403 12.1332 8.04347 12.0165C8.04347 11.9971 8.04347 11.9582 8.06292 11.9387C8.10182 11.7637 8.12127 11.5887 8.14072 11.472C8.16017 11.2775 8.17962 11.1608 8.25741 11.0635C8.27686 11.0246 8.35466 11.0052 8.4519 11.0052C8.4908 11.0052 8.5297 11.0052 8.58805 11.0052V11.0052C8.58805 11.0052 8.5686 11.0052 8.58805 11.0052Z" fill="white"/>
<path d="M8.31576 15.6145C8.29631 15.4978 8.27686 15.3812 8.23797 15.2839L8.21852 15.245C8.21852 15.2256 8.19907 15.2256 8.19907 15.2061C8.19907 15.2061 8.19907 15.1867 8.17962 15.1867L8.16017 15.1672C8.16017 15.1672 8.16017 15.1672 8.14072 15.1672C8.14072 15.1672 8.12127 15.1672 8.12127 15.1478C8.12127 15.1478 8.12127 15.1478 8.10182 15.1478C8.04348 15.1283 7.96568 15.0894 7.90733 15.0894H7.88788H7.86844C7.86844 15.0894 7.86844 15.0894 7.84899 15.0894C7.82954 15.0894 7.81009 15.0894 7.81009 15.1089C7.81009 15.1089 7.79064 15.1089 7.79064 15.1283C7.79064 15.1283 7.77119 15.1283 7.77119 15.1478L7.75174 15.1672C7.75174 15.1672 7.75174 15.1867 7.73229 15.1867C7.71284 15.2256 7.67395 15.2645 7.6545 15.3034C7.59615 15.4006 7.51835 15.4978 7.46001 15.5951C7.40166 15.6729 7.34331 15.7701 7.28497 15.8479C7.24607 15.8868 7.22662 15.9452 7.18772 15.9841L7.16827 16.0035C7.20717 16.0035 7.24607 16.023 7.28497 16.023C7.38221 16.0424 7.46001 16.0619 7.55725 16.0619C7.73229 16.0813 7.92678 16.1008 8.12127 16.1008H8.14072C8.17962 16.0424 8.23797 15.9646 8.29631 15.8674C8.33521 15.809 8.37411 15.7507 8.39356 15.7118C8.33521 15.6729 8.31576 15.6534 8.31576 15.6145Z" fill="white"/>
<path d="M7.67393 16.3731C7.65449 16.5092 7.49889 16.8788 7.24606 17.2288C7.03212 17.5206 6.91543 17.5984 6.89598 17.5984C6.79873 17.5789 6.70149 17.3455 6.62369 17.0927C6.58479 16.9954 6.56535 16.8982 6.5459 16.8204C6.48755 16.6259 6.48755 16.3925 6.48755 16.2369C6.70149 16.3536 7.05157 16.3925 7.57669 16.3925C7.59614 16.3731 7.63504 16.3731 7.67393 16.3731Z" fill="white"/>
<path d="M7.30441 15.2061C7.30441 15.2256 7.30441 15.2256 7.30441 15.2061C7.20716 15.3422 7.12937 15.4784 7.03212 15.6145C6.99323 15.6729 6.93488 15.7507 6.89598 15.809C6.87653 15.8479 6.83763 15.8868 6.81818 15.9257C6.74039 15.9063 6.66259 15.8868 6.60425 15.8674C6.5459 15.8479 6.48755 15.8285 6.4292 15.809C6.40976 15.809 6.40976 15.809 6.39031 15.7896C6.39031 15.7701 6.37086 15.7507 6.35141 15.7312C6.37086 15.6923 6.39031 15.6534 6.40976 15.5951C6.44865 15.5173 6.48755 15.4395 6.52645 15.3617C6.60425 15.2255 6.70149 15.0894 6.83763 14.9922C6.83763 14.9922 6.85708 14.9922 6.85708 14.9727C6.91543 14.9338 6.95433 14.9144 7.03212 14.9144C7.03212 14.9144 7.09047 14.9144 7.10992 14.9144C7.12937 14.9144 7.14882 14.9144 7.14882 14.9338H7.16827C7.18771 14.9338 7.18771 14.9533 7.20716 14.9533C7.18771 14.9338 7.22661 14.9922 7.22661 14.9922C7.28496 15.0894 7.28496 15.1478 7.30441 15.2061Z" fill="white"/>
<path d="M6.60425 14.8366C6.44866 14.9727 6.33196 15.1478 6.21527 15.3423C6.15692 15.4395 6.11803 15.5562 6.05968 15.6535C6.05968 15.6729 6.04023 15.6729 6.04023 15.6924C5.98188 15.6729 5.94299 15.6729 5.88464 15.6535C5.82629 15.634 5.78739 15.6146 5.72905 15.5951C5.7096 15.5757 5.69015 15.5757 5.6707 15.5562C5.72905 15.459 5.78739 15.3812 5.82629 15.2839C5.90409 15.1672 5.98188 15.0505 6.07913 14.9339C6.11803 14.895 6.15692 14.8366 6.19582 14.8172C6.25417 14.7783 6.31252 14.7977 6.37086 14.7977C6.42921 14.7977 6.48756 14.7977 6.5459 14.8172C6.5848 14.8366 6.60425 14.8366 6.60425 14.8366Z" fill="white"/>
<path d="M6.35142 17.0343L6.33197 17.0538H6.31252C6.27362 17.0538 6.23473 17.0538 6.19583 17.0538C6.11803 17.0538 6.04024 17.0538 5.96244 17.0538C5.92354 17.0538 5.88465 17.0538 5.8652 17.0149C5.84575 16.976 5.8263 16.8982 5.8263 16.8398C5.76795 16.5675 5.76795 16.2758 5.80685 15.9841C5.94299 16.0424 6.09858 16.0813 6.25418 16.1008C6.21528 16.3536 6.27362 16.7231 6.31252 16.8398C6.31252 16.9371 6.33197 16.976 6.35142 17.0343Z" fill="white"/>
<path d="M5.88464 14.7588C5.7485 14.9144 5.6318 15.0894 5.53456 15.2645C5.49566 15.3423 5.43731 15.4006 5.41787 15.4784C5.35952 15.459 5.32062 15.4395 5.26227 15.4201C5.22338 15.4006 5.18448 15.3617 5.14558 15.3423C5.14558 15.3423 5.10668 15.3228 5.10668 15.3034C5.10668 15.3034 5.10668 15.3034 5.08723 15.3034C5.10668 15.2645 5.12613 15.2256 5.12613 15.2061C5.14558 15.1478 5.18448 15.0894 5.22338 15.0311C5.28172 14.9338 5.35952 14.8171 5.41787 14.7199C5.43731 14.681 5.47621 14.6421 5.51511 14.6227C5.55401 14.6032 5.61236 14.6227 5.6318 14.6227C5.7485 14.6421 5.80685 14.681 5.88464 14.7588Z" fill="white"/>
<path d="M4.89275 15.4395C4.95109 15.4784 4.98999 15.5173 5.04834 15.5562C5.06779 15.5757 5.08724 15.5951 5.10669 15.6146C5.10669 15.6146 5.10669 15.6146 5.10669 15.634C5.04834 15.8479 5.00944 16.0813 5.00944 16.2953C5.00944 16.3147 4.98999 16.3147 4.98999 16.2953C4.93164 16.023 4.8344 15.5951 4.89275 15.4395Z" fill="white"/>
<path d="M5.5151 15.9257C5.49565 16.1202 5.4762 16.3147 5.4762 16.5092C5.4762 16.6064 5.49565 16.7231 5.5151 16.8204C5.49565 16.8204 5.4762 16.8204 5.43731 16.8204C5.43731 16.8204 5.43731 16.8204 5.41786 16.8204C5.41786 16.8204 5.41786 16.8204 5.39841 16.8204C5.37896 16.8204 5.35951 16.8204 5.34006 16.8009C5.32061 16.7815 5.28171 16.7426 5.26226 16.7231C5.20392 16.6259 5.20392 16.5287 5.20392 16.4314C5.20392 16.2369 5.20392 16.0424 5.24282 15.8285C5.28171 15.8479 5.30116 15.8479 5.34006 15.8674C5.41786 15.8868 5.4762 15.9063 5.5151 15.9257Z" fill="white"/>
<defs>
<radialGradient id="paint0_radial_43_415" cx="0" cy="0" r="1" gradientUnits="userSpaceOnUse" gradientTransform="translate(12.7305 13.8449) rotate(90) scale(13.476 13.476)">
<stop offset="0.1667" stop-color="#073183"/>
<stop offset="1" stop-color="#0054F9"/>
</radialGradient>
</defs>
</svg>
