<svg width="27" height="24" viewBox="0 0 27 24" fill="none" xmlns="http://www.w3.org/2000/svg">
<path d="M26.8462 14.8357L15.0003 24L14.9342 14.6628L14.8462 0L26.5709 14.4899L26.8462 14.8357Z" fill="url(#paint0_linear_43_362)"/>
<path d="M1 15.0317L13.9231 24L13.6304 0L1 15.0317Z" fill="url(#paint1_linear_43_362)"/>
<path d="M13.8177 14.7692L1.09365 15.0091L1 15.112L13.9231 24L13.8177 14.7692Z" fill="url(#paint2_linear_43_362)"/>
<path d="M14.8462 14.9371L26.5689 14.7692L26.8462 15.1049L14.9127 24L14.8462 14.9371Z" fill="url(#paint3_linear_43_362)"/>
<path d="M14.4056 14.8359L26.8462 14.6659M13.7936 14.8585L1 15.0965M18.6074 14.7792L14.3821 11.2215M23.7978 17.3852C23.9037 17.2379 25.2219 15.3684 24.4098 13.6122C23.8096 12.3092 22.3384 11.7087 22.1148 11.6181C21.8205 11.4935 21.8087 11.5275 20.4317 11.0969C19.596 10.825 19.1723 10.7004 18.8075 10.5644C18.2425 10.3605 17.148 9.95256 15.9004 9.18211C15.4884 8.93285 14.9588 8.57028 14.3586 8.09441M13.7348 10.8363C10.9807 8.80821 9.81547 8.49097 9.37999 8.83088C8.17949 9.79394 12.6284 16.0595 10.8512 17.6344C10.3333 18.0876 9.2623 18.1896 7.20261 18.3822C6.56704 18.4389 6.03741 18.4615 5.69609 18.4615L13.7348 10.8363ZM11.5927 2.76923C11.5574 3.32441 11.5809 4.42343 12.1694 5.63576C12.6402 6.61016 13.2875 7.24465 13.6995 7.59589L11.5927 2.76923Z" stroke="#98C9C0" stroke-width="0.3" stroke-miterlimit="10"/>
<defs>
<linearGradient id="paint0_linear_43_362" x1="14.8443" y1="12.0006" x2="26.8489" y2="12.0006" gradientUnits="userSpaceOnUse">
<stop stop-color="#3B8270"/>
<stop offset="1" stop-color="#305C6E"/>
</linearGradient>
<linearGradient id="paint1_linear_43_362" x1="1.00496" y1="12.0006" x2="13.926" y2="12.0006" gradientUnits="userSpaceOnUse">
<stop stop-color="#4E7F98"/>
<stop offset="1" stop-color="#3BC0B5"/>
</linearGradient>
<linearGradient id="paint2_linear_43_362" x1="1.00496" y1="19.3835" x2="13.926" y2="19.3835" gradientUnits="userSpaceOnUse">
<stop stop-color="#30435C"/>
<stop offset="1" stop-color="#299AA9"/>
</linearGradient>
<linearGradient id="paint3_linear_43_362" x1="14.8487" y1="19.3885" x2="26.8489" y2="19.3885" gradientUnits="userSpaceOnUse">
<stop stop-color="#2E2C29"/>
<stop offset="1" stop-color="#323232"/>
</linearGradient>
</defs>
</svg>
