<svg width="24" height="24" viewBox="0 0 24 24" fill="none" xmlns="http://www.w3.org/2000/svg">
<path fill-rule="evenodd" clip-rule="evenodd" d="M12 0C18.6264 0 24 5.3736 24 12C24 18.6264 18.6264 24 12 24C5.3736 24 0 18.6264 0 12C0 5.3736 5.3736 0 12 0Z" fill="#0055D5"/>
<path fill-rule="evenodd" clip-rule="evenodd" d="M6.528 7.93923C6.528 7.93923 5.2368 6.90723 5.148 9.45603C5.0592 11.4312 5.0616 15.2664 5.976 17.0784C6.3624 17.76 6.8784 17.5512 7.8384 16.872C8.6736 16.2552 11.6952 13.4712 12.9744 12.2496C14.2536 11.028 16.848 7.52403 17.388 9.90483C17.6016 10.9056 17.8656 11.7552 17.664 13.9752C17.6016 14.6592 17.3088 15.1776 15.9744 14.2512C14.9664 13.6032 14.0088 12.9072 14.0088 12.9072C14.0088 12.9072 13.824 12.576 13.3872 13.1136C13.044 13.5432 12.8712 13.6488 13.4208 13.9752C13.9728 14.3016 16.764 16.2264 17.8344 16.5264C18.7176 16.7832 19.2216 16.7784 19.248 15.0432C19.2432 13.6656 19.164 9.72243 18.6624 8.04243C18.2832 6.99603 17.7264 6.52083 16.524 7.69683C15.3216 8.87283 11.5296 12.5496 9.456 14.2152C8.0808 15.2472 7.4928 16.1784 6.9744 14.4576C6.6096 13.1544 6.1368 9.09843 7.6296 9.87123C8.5632 10.3176 9.0288 10.3152 8.664 10.596C8.2992 10.8744 7.2504 11.8368 7.2504 11.8368C7.2504 11.8368 6.9264 12.0984 7.0776 12.6648C7.2288 13.0608 7.2288 13.2576 8.0424 12.492C8.856 11.7264 9.456 11.148 9.456 11.148C9.456 11.148 9.5856 10.944 9.972 11.3208C10.3584 11.6976 10.4208 11.8032 10.4208 11.8032C10.4208 11.8032 10.524 12.084 10.9368 11.5968C11.352 11.1096 11.6184 10.812 10.8336 10.356C10.0512 9.89523 6.528 7.93923 6.528 7.93923Z" fill="white"/>
</svg>
