<svg width="24" height="24" viewBox="0 0 24 24" fill="none" xmlns="http://www.w3.org/2000/svg">
<path d="M12 0C18.628 0 24 5.37305 24 12C24 18.628 18.628 24 12 24C5.37305 24 0 18.6275 0 12C0 5.37305 5.37305 0 12 0Z" fill="#F5AC37"/>
<path d="M12.4423 12.8473H17.0021C17.0993 12.8473 17.1452 12.8473 17.1522 12.7198C17.1895 12.256 17.1895 11.7894 17.1522 11.325C17.1522 11.2348 17.1074 11.1976 17.0096 11.1976H7.93484C7.82252 11.1976 7.79228 11.2348 7.79228 11.3401V12.675C7.79228 12.8473 7.79228 12.8473 7.9721 12.8473H12.4423V12.8473ZM16.643 9.63748C16.6559 9.60346 16.6559 9.5662 16.643 9.53272C16.5668 9.36694 16.4766 9.20872 16.3719 9.06022C16.2142 8.80642 16.0284 8.57259 15.8168 8.36253C15.7169 8.23563 15.6013 8.12169 15.4717 8.02503C14.8226 7.4726 14.0509 7.08164 13.2215 6.88508C12.803 6.79112 12.3753 6.74629 11.9465 6.75007H7.91918C7.80686 6.75007 7.79174 6.7949 7.79174 6.89264V9.55486C7.79174 9.66718 7.79174 9.69742 7.9343 9.69742H16.589C16.589 9.69742 16.664 9.6823 16.6791 9.63748H16.6424H16.643ZM16.643 14.4074C16.5155 14.3933 16.387 14.3933 16.2596 14.4074H7.9424C7.83008 14.4074 7.79228 14.4074 7.79228 14.5575V17.1603C7.79228 17.2802 7.79228 17.3104 7.9424 17.3104H11.7824C11.966 17.3245 12.1496 17.3115 12.3294 17.2732C12.8867 17.2332 13.4348 17.1122 13.9575 16.913C14.1476 16.8471 14.3312 16.7612 14.5045 16.6581H14.5569C15.4571 16.1899 16.1883 15.4544 16.6494 14.5515C16.6494 14.5515 16.7018 14.4381 16.643 14.4084V14.4074ZM6.28512 18.6599V18.6151V16.8676V16.2752V14.5127C6.28512 14.4149 6.28512 14.4003 6.16524 14.4003H4.53767C4.44749 14.4003 4.41022 14.4003 4.41022 14.2805V12.8554H6.15012C6.24732 12.8554 6.28512 12.8554 6.28512 12.7279V11.318C6.28512 11.2278 6.28512 11.2057 6.16524 11.2057H4.53767C4.44749 11.2057 4.41022 11.2057 4.41022 11.0858V9.76601C4.41022 9.68338 4.41022 9.66124 4.53011 9.66124H6.14256C6.25488 9.66124 6.28512 9.66124 6.28512 9.51868V5.4762C6.28512 5.35632 6.28512 5.32608 6.43525 5.32608H12.0599C12.4682 5.34228 12.8737 5.3871 13.275 5.46108C14.1017 5.6139 14.896 5.90929 15.6224 6.33103C16.104 6.61453 16.5474 6.9569 16.9421 7.3511C17.2391 7.65944 17.507 7.99317 17.7446 8.34849C17.9806 8.70867 18.1766 9.0937 18.3305 9.496C18.3494 9.60076 18.4498 9.6715 18.5546 9.65368H19.897C20.0693 9.65368 20.0693 9.65368 20.0769 9.81893V11.0491C20.0769 11.1689 20.032 11.1992 19.9116 11.1992H18.8764C18.7717 11.1992 18.7414 11.1992 18.749 11.3342C18.79 11.791 18.79 12.2495 18.749 12.7063C18.749 12.8338 18.749 12.8489 18.8921 12.8489H20.0763C20.1287 12.9164 20.0763 12.9839 20.0763 13.0519C20.0839 13.1389 20.0839 13.2269 20.0763 13.3138V14.2216C20.0763 14.349 20.0391 14.3868 19.9262 14.3868H18.5087C18.4099 14.3679 18.3137 14.4311 18.2911 14.5294C17.9536 15.4069 17.4136 16.1937 16.7159 16.8244C16.461 17.0539 16.1931 17.2699 15.9134 17.4692C15.6132 17.642 15.321 17.8218 15.0132 17.9644C14.4468 18.2193 13.8528 18.4072 13.2431 18.5265C12.6642 18.6302 12.0772 18.6772 11.4881 18.6691H6.28296V18.6615L6.28512 18.6599Z" fill="#FEFEFD"/>
</svg>
