<svg width="24" height="24" viewBox="0 0 24 24" fill="none" xmlns="http://www.w3.org/2000/svg">
<circle cx="12" cy="12" r="12" fill="#C9EAFE"/>
<g clip-path="url(#clip0_43_364)">
<path d="M14.0674 7H9.58326L9.21137 9.07774L13.2589 9.08253C15.2526 9.08253 15.8405 9.8071 15.8237 11.0067C15.8141 11.6209 15.5477 12.6622 15.4326 13.0005C15.1255 13.9002 14.4945 14.9247 12.1288 14.9223L8.1941 14.9199L7.82342 17H12.298C13.8767 17 14.5461 16.8153 15.2586 16.489C16.8349 15.7572 17.773 14.2025 18.1497 12.1727C18.7075 9.14971 18.0118 7 14.0674 7Z" fill="#008DE4"/>
<path d="M7.64827 10.9563C6.47265 10.9563 6.3047 11.7217 6.19434 12.1847C6.04798 12.7893 6 13.0365 6 13.0365H10.5921C11.7678 13.0365 11.9357 12.2711 12.0461 11.8081C12.1924 11.2035 12.2404 10.9563 12.2404 10.9563H7.64827Z" fill="#008DE4"/>
</g>
<defs>
<clipPath id="clip0_43_364">
<rect width="12.3177" height="10" fill="white" transform="translate(6 7)"/>
</clipPath>
</defs>
</svg>
