<svg width="24" height="24" viewBox="0 0 24 24" fill="none" xmlns="http://www.w3.org/2000/svg">
<circle cx="12" cy="12" r="12" fill="#D7FFF4"/>
<g clip-path="url(#clip0_43_334)">
<path d="M8 12.6243C9.52296 13.4331 11.1121 14.2797 12.3395 14.9348L16.6436 12.6243C15.0852 14.9395 13.7867 16.8669 12.3395 19C10.8899 16.8716 9.28886 14.523 8 12.6243ZM8.16553 11.9857L12.3442 9.75592L16.4686 11.9694L12.3466 14.2017L8.16553 11.9857ZM12.3395 9.04153L8 11.326L12.3206 5L16.6436 11.3402L12.3395 9.04153Z" fill="#3AB83A"/>
<path d="M12.3395 14.9348L16.6436 12.6243C15.0852 14.9395 12.3395 19 12.3395 19V14.9348ZM12.3443 9.75592L16.4686 11.9694L12.3466 14.2017L12.3443 9.75592ZM12.3395 9.04169L12.3206 5L16.6436 11.3402L12.3395 9.04169Z" fill="#0B8311"/>
<path d="M8.16553 11.9858L12.3445 12.3287L16.4688 11.9716L12.3466 14.204L8.16553 11.9858Z" fill="#0B8311"/>
<path d="M12.3442 12.3287L16.4686 11.9716L12.3466 14.204L12.3442 12.3287Z" fill="#146714"/>
</g>
<defs>
<clipPath id="clip0_43_334">
<rect width="8.64357" height="14" fill="white" transform="translate(8 5)"/>
</clipPath>
</defs>
</svg>
