<svg width="24" height="24" viewBox="0 0 24 24" fill="none" xmlns="http://www.w3.org/2000/svg">
<path d="M12 24C18.6274 24 24 18.6274 24 12C24 5.37258 18.6274 0 12 0C5.37258 0 0 5.37258 0 12C0 18.6274 5.37258 24 12 24Z" fill="#6747ED"/>
<path fill-rule="evenodd" clip-rule="evenodd" d="M11.825 13.55C10.05 13.55 8.625 12.125 8.625 10.35C8.625 8.57499 10.05 7.14999 11.825 7.14999C13.6 7.14999 15.025 8.57499 15.025 10.35C15.025 12.125 13.6 13.55 11.825 13.55ZM11.825 5.54999C14.475 5.54999 16.625 7.69999 16.625 10.35C16.625 13 14.475 15.15 11.825 15.15C9.175 15.15 7.025 13 7.025 10.35C7.025 7.69999 9.175 5.54999 11.825 5.54999ZM16.4 15.4C16.725 15.725 16.725 16.225 16.4 16.525L13.2 19.725C12.875 20.05 12.375 20.05 12.075 19.725C11.75 19.4 11.75 18.9 12.075 18.6L15.275 15.4C15.575 15.075 16.1 15.075 16.4 15.4ZM18.25 6.34999C18.25 6.79999 17.9 7.14999 17.45 7.14999C17 7.14999 16.65 6.79999 16.65 6.34999C16.65 5.89999 17 5.54999 17.45 5.54999C17.875 5.54999 18.25 5.89999 18.25 6.34999Z" fill="white"/>
</svg>
