<svg width="28" height="24" viewBox="0 0 28 24" fill="none" xmlns="http://www.w3.org/2000/svg">
<path d="M7.18994 0.156742L20.7747 7.99624V15.9925L0 3.99809L6.65797 0.156742C6.73969 0.112633 6.83109 0.0895386 6.92395 0.0895386C7.01682 0.0895386 7.10822 0.112633 7.18994 0.156742Z" fill="#3CA9E5"/>
<path d="M20.7747 0L13.8479 3.99814L20.7747 7.99629V0Z" fill="#2853C3"/>
<path d="M20.7747 0L27.4383 3.84135C27.5184 3.89011 27.5851 3.95822 27.632 4.03942C27.679 4.12063 27.7048 4.21234 27.7071 4.30612V19.9851L20.7747 15.9926V0Z" fill="#1A4199"/>
<path d="M27.7015 19.9907L21.0435 23.8321C20.9584 23.8812 20.8618 23.9071 20.7635 23.9071C20.6652 23.9071 20.5687 23.8812 20.4835 23.8321L6.9044 15.9926V7.98511L27.7015 19.9907Z" fill="#2853C3"/>
<path d="M9.49729e-06 3.99811V19.6771C-0.000553288 19.7737 0.0239048 19.8689 0.0710047 19.9533C0.118105 20.0377 0.186243 20.1084 0.268792 20.1587L6.92676 24V7.98505L9.49729e-06 3.99811Z" fill="#60BEFF"/>
<path d="M6.92682 23.9889L13.848 19.9908L6.92682 15.9926V23.9889Z" fill="#3CA9E5"/>
</svg>
