<svg width="24" height="24" viewBox="0 0 24 24" fill="none" xmlns="http://www.w3.org/2000/svg">
<path d="M12 0C18.6274 0 24 5.37257 24 12C24 18.6274 18.6274 24 12 24C5.37257 24 0 18.6274 0 12C0 5.37257 5.37257 0 12 0Z" fill="#1A82FF"/>
<path d="M16.3872 16.9412C15.3483 18.2139 13.8873 18.8503 12.0041 18.8503C10.1209 18.8503 8.65965 18.2139 7.62034 16.9412C6.58079 15.6679 6.06125 14.0219 6.06171 12.0034C6.06216 9.9849 6.58148 8.33918 7.61965 7.06627C8.65851 5.7929 10.1198 5.15633 12.0034 5.15656C13.8871 5.15678 15.3481 5.79336 16.3865 7.06627C17.4254 8.33896 17.9449 9.98467 17.9451 12.0034C17.9454 14.0222 17.426 15.6681 16.3872 16.9412Z" fill="white"/>
<path d="M11.9822 16.189C12.4779 16.189 12.8994 16.0539 13.2466 15.7838C13.5938 15.5136 13.8452 15.1472 14.0009 14.6846C14.1563 14.2217 14.266 13.7781 14.33 13.3536C14.394 12.9291 14.4258 12.4791 14.4254 12.0034C14.4254 11.4178 14.3899 10.8937 14.3191 10.4311L10.0478 14.8821C10.4427 15.7529 11.0875 16.1886 11.9822 16.189Z" fill="#1A82FF"/>
<path d="M12.0247 7.81781C11.5289 7.81781 11.1074 7.9529 10.7602 8.22307C10.413 8.49324 10.1616 8.85964 10.0059 9.32227C9.8496 9.78512 9.73989 10.2288 9.6768 10.6532C9.6128 11.0777 9.58103 11.5278 9.58149 12.0034C9.58149 12.3168 9.59154 12.6126 9.61166 12.8907L13.6855 8.64615C13.2898 8.09415 12.7362 7.81804 12.0247 7.81781Z" fill="#1A82FF"/>
<path d="M6.39359 16.2466L5.86902 15.7433L9.84685 11.5968L10.3714 12.1001L6.39359 16.2466ZM13.8884 11.9198L13.3639 11.4165L17.3417 7.26996L17.8663 7.77327L13.8884 11.9198Z" fill="#1A82FF"/>
</svg>
