<svg width="24" height="24" viewBox="0 0 24 24" fill="none" xmlns="http://www.w3.org/2000/svg">
<path d="M12 10.8679C15.0011 10.8679 17.434 8.43506 17.434 5.43396C17.434 2.43287 15.0011 0 12 0C8.99891 0 6.56604 2.43287 6.56604 5.43396C6.56604 8.43506 8.99891 10.8679 12 10.8679Z" fill="#88BDF3"/>
<path d="M12 24C15.0011 24 17.434 21.5671 17.434 18.566C17.434 15.5649 15.0011 13.1321 12 13.1321C8.99891 13.1321 6.56604 15.5649 6.56604 18.566C6.56604 21.5671 8.99891 24 12 24Z" fill="#3075EE"/>
<path d="M18.566 17.434C21.5671 17.434 24 15.0011 24 12C24 8.99891 21.5671 6.56604 18.566 6.56604C15.5649 6.56604 13.1321 8.99891 13.1321 12C13.1321 15.0011 15.5649 17.434 18.566 17.434Z" fill="#5795F1"/>
<path d="M5.43396 17.434C8.43506 17.434 10.8679 15.0011 10.8679 12C10.8679 8.99891 8.43506 6.56604 5.43396 6.56604C2.43287 6.56604 0 8.99891 0 12C0 15.0011 2.43287 17.434 5.43396 17.434Z" fill="#205FEC"/>
<path d="M10.7208 10.7208C9.7522 10.4853 8.86708 9.98788 8.16225 9.28305C7.45742 8.57822 6.96004 7.69311 6.72453 6.72455C7.69137 6.96364 8.57458 7.46221 9.27883 8.16647C9.98309 8.87073 10.4817 9.75393 10.7208 10.7208V10.7208Z" fill="#134BEF"/>
<path d="M6.71321 17.2868C6.94872 16.3183 7.4461 15.4331 8.15093 14.7283C8.85576 14.0235 9.74088 13.5261 10.7094 13.2906C10.4703 14.2574 9.97177 15.1406 9.26751 15.8449C8.56325 16.5491 7.68005 17.0477 6.71321 17.2868V17.2868Z" fill="#0932E8"/>
<path d="M13.2792 13.2792C14.2478 13.5147 15.1329 14.0121 15.8377 14.717C16.5426 15.4218 17.04 16.3069 17.2755 17.2755C16.3086 17.0364 15.4254 16.5378 14.7212 15.8335C14.0169 15.1293 13.5183 14.2461 13.2792 13.2792V13.2792Z" fill="#164BEA"/>
<path d="M17.2868 6.7132C17.0513 7.68175 16.5539 8.56687 15.8491 9.2717C15.1442 9.97653 14.2591 10.4739 13.2906 10.7094C13.5297 9.74258 14.0282 8.85938 14.7325 8.15512C15.4367 7.45086 16.3199 6.95229 17.2868 6.7132Z" fill="#3170F1"/>
</svg>
