<svg width="24" height="24" viewBox="0 0 24 24" fill="none" xmlns="http://www.w3.org/2000/svg">
<circle cx="12" cy="12" r="12" fill="#2F2F2F"/>
<g clip-path="url(#clip0_43_367)">
<path fill-rule="evenodd" clip-rule="evenodd" d="M19.0113 13.2655V14.3955C19.0113 17.5593 14.4011 19.3672 13 19.8192L12.5028 20V18.0565L12.774 17.9661C14.9887 17.1525 17.2034 15.7514 17.2034 14.3955V13.2655H19.0113ZM12.0057 4L13.904 4.58757V6.57627L12.0057 5.9887L11.8701 6.0339V10.5085H13.8588V12.3616H11.8701V19.9548L11.3277 19.774C11.1017 19.6836 10.6949 19.548 10.1977 19.322L9.97175 19.2316V4.58757L12.0057 4ZM9.42938 4.81356V6.80226L6.85311 7.57062V10.5085H9.42938V19.0508L8.84181 18.7797C7.0791 17.8757 5 16.3842 5 14.2599V13.2655H6.85311V14.2599C6.85311 14.7119 7.0791 15.1638 7.53107 15.6158V12.3616H5V6.12429L9.42938 4.81356ZM14.4463 4.76836L18.9661 6.16949V12.4068H16.2994V15.1186C16.2994 15.1186 15.7119 15.887 14.4463 16.5198C14.4463 16.1582 14.4463 10.6893 14.4463 7.34463V4.76836ZM16.3446 7.29943V10.5085H17.1582V7.57062L16.3446 7.29943Z" fill="white"/>
</g>
<defs>
<clipPath id="clip0_43_367">
<rect width="14.0113" height="16" fill="white" transform="translate(5 4)"/>
</clipPath>
</defs>
</svg>
