<svg width="24" height="24" viewBox="0 0 24 24" fill="none" xmlns="http://www.w3.org/2000/svg">
<path d="M17.3689 2.11277C16.7514 2.73028 16.1857 3.39955 15.6828 4.1132L15.5238 4.06143C14.6068 3.76192 13.6565 3.57704 12.6988 3.51418C12.4104 3.49199 11.3344 3.49199 10.9831 3.51418C9.92189 3.58443 9.10841 3.74343 8.184 4.06513C8.14702 4.07992 8.11374 4.09101 8.08046 4.1021C7.5591 3.39216 6.97857 2.72658 6.33887 2.11647C9.40792 0.544974 12.9983 0.356394 16.2116 1.5951C16.5555 1.72452 16.8919 1.87612 17.221 2.03882L17.3689 2.11277Z" fill="#F00500"/>
<path d="M23.0929 16.1379C22.627 17.4654 21.9281 18.6967 21.0222 19.769C20.5304 20.3458 19.9869 20.8746 19.4026 21.3553C18.0345 22.4572 16.4371 23.2448 14.7325 23.6589C12.8467 24.1137 10.8796 24.1137 8.99378 23.6589C7.28547 23.2448 5.69179 22.4572 4.32366 21.3553C3.73943 20.8746 3.19588 20.3458 2.70409 19.769C0.0972555 16.6889 -0.69404 12.4588 0.633413 8.64651C0.884853 7.94026 1.19915 7.2599 1.57631 6.61281C1.7501 6.317 1.96457 5.98421 2.0681 5.8474C2.42307 7.37452 2.85939 8.71677 3.02209 9.20116C3.011 9.22704 2.99621 9.25662 2.98142 9.28251C2.11987 11.0278 1.65396 12.7102 1.54303 14.4999C1.54303 14.5221 1.53934 14.5479 1.53934 14.5701C1.50975 15.1063 1.52454 15.3614 1.61329 15.6979C1.89061 16.7517 2.74477 17.9128 4.08331 19.0517C6.27602 20.9153 9.24892 22.2612 11.5008 22.4165C13.8488 22.5755 17.3135 21.2037 19.6208 19.1996C19.9832 18.8779 20.3234 18.5377 20.6414 18.1753C20.8706 17.9091 21.2108 17.4506 21.1849 17.4506C21.1775 17.4506 21.1849 17.4432 21.1997 17.4358C21.2108 17.4284 21.2219 17.4173 21.2145 17.4099C21.2108 17.4062 21.2182 17.3951 21.2293 17.3914C21.2404 17.3877 21.2478 17.3803 21.2441 17.3729C21.2404 17.3656 21.2441 17.3582 21.2589 17.3545C21.27 17.3508 21.2736 17.3397 21.2699 17.3323C21.2663 17.3249 21.27 17.3175 21.2773 17.3175C21.2847 17.3175 21.2921 17.3064 21.2921 17.299C21.2921 17.2916 21.2995 17.2805 21.3069 17.2805C21.3143 17.2805 21.3217 17.2731 21.3217 17.2657C21.3328 17.2361 21.3513 17.2066 21.3698 17.1807C21.4253 17.0956 21.6471 16.7 21.6767 16.6334C21.8875 16.1564 22.0206 15.7312 22.0834 15.306C22.113 15.1026 22.1315 14.7291 22.1167 14.6404C22.113 14.6256 22.113 14.5997 22.1093 14.559C22.1019 14.4851 22.0982 14.3742 22.0908 14.2632C22.0834 14.0968 22.0686 13.8639 22.0575 13.7493C21.8986 12.0705 21.4696 10.6987 20.6561 9.24553C20.6229 9.19007 20.5933 9.1346 20.5748 9.09023C20.5674 9.07914 20.5637 9.06804 20.56 9.06065C20.6746 8.71677 21.1442 7.27838 21.5177 5.63293L21.5251 5.64033L21.5806 5.71428C21.6767 5.8437 21.9318 6.22826 22.0465 6.41314C22.5678 7.26359 22.9746 8.17691 23.263 9.1309C23.9323 11.4271 23.8768 13.875 23.0929 16.1379Z" fill="#F00500"/>
<path d="M18.2933 11.7192C18.2823 11.7784 18.1085 11.9559 17.9347 12.0853C17.4244 12.4588 16.5111 12.8064 15.583 12.9727C15.0542 13.0689 14.5255 13.0837 14.3665 13.006C14.2629 12.9543 14.2481 12.9136 14.2851 12.7805C14.3628 12.5031 14.6142 12.1999 15.0061 11.9152C15.2058 11.771 16.0156 11.2792 16.3928 11.0722C17.014 10.732 17.5168 10.5286 17.857 10.4805C17.9643 10.4657 18.0937 10.462 18.1344 10.4805C18.2009 10.5064 18.2749 10.7024 18.3044 10.939C18.3192 11.0648 18.3118 11.6194 18.2933 11.7192Z" fill="black"/>
<path d="M9.5817 12.9432C9.55952 12.9875 9.44859 13.0356 9.32287 13.0541C9.19715 13.0726 8.8126 13.0615 8.59443 13.0356C7.81053 12.9321 6.97857 12.6917 6.37215 12.3959C6.03197 12.2295 5.78792 12.0631 5.60674 11.8819L5.50321 11.7747L5.49211 11.6342C5.47362 11.3901 5.47732 11.0056 5.5069 10.8688C5.52539 10.7542 5.56607 10.6432 5.62153 10.5434C5.65111 10.5064 5.65111 10.5064 5.78423 10.5064C5.94692 10.5064 6.08374 10.5323 6.30559 10.6025C6.7604 10.7431 7.43707 11.0832 8.26165 11.5787C8.94201 11.9855 9.19715 12.1851 9.39312 12.4588C9.52624 12.6289 9.61498 12.8692 9.5817 12.9432Z" fill="black"/>
<path d="M14.8176 18.0903C14.8176 18.1014 14.7732 18.2789 14.7177 18.4896C14.6623 18.7004 14.6179 18.8705 14.6179 18.8779C14.5772 18.8816 14.5402 18.8853 14.4996 18.8816H14.3812L14.2185 19.2661C14.1298 19.4769 14.0485 19.6729 14.0374 19.7025L14.0152 19.7542L13.9375 19.6285L13.8599 19.5028V18.4785L13.8303 18.4859C13.7674 18.5007 13.32 18.5599 13.124 18.5784C12.3143 18.6597 11.5008 18.6412 10.6947 18.5266C10.5653 18.5081 10.4543 18.4933 10.4507 18.497C10.447 18.5007 10.4507 18.7374 10.458 19.0295L10.4691 19.5545L10.4063 19.6507C10.373 19.7025 10.3397 19.7468 10.3397 19.7505C10.3286 19.7616 10.2917 19.7025 10.2066 19.5324C10.1142 19.3549 10.0476 19.1663 9.99954 18.9703L9.97365 18.8631L9.85903 18.8705L9.7444 18.8816L9.71482 18.7448C9.70003 18.6708 9.68154 18.5562 9.67415 18.4933L9.66306 18.375L9.56691 18.29C9.51145 18.2419 9.45599 18.1938 9.44489 18.1864C9.42641 18.1716 9.41901 18.1457 9.41901 18.1236V18.0792L9.88121 18.0829L10.3434 18.0866L10.3582 18.1347L10.373 18.1827L10.532 18.1901C10.6207 18.1938 10.9018 18.2012 11.1532 18.2086L11.6154 18.2197L11.7337 18.0348L11.8558 17.8499H12.0111L12.0074 17.4654L12.0037 17.0808L11.8003 16.9921C11.1458 16.7037 10.7613 16.3746 10.617 15.9752C10.5875 15.8939 10.5875 15.8643 10.5801 15.4945C10.5764 15.1285 10.5764 15.0952 10.6023 15.0138C10.654 14.829 10.7982 14.6848 10.9831 14.6367C11.046 14.6182 11.2124 14.6182 12.085 14.6182L13.113 14.6219L13.2276 14.6774C13.3644 14.7439 13.4273 14.792 13.5049 14.8955C13.5936 15.0138 13.6195 15.1063 13.6195 15.3318C13.6195 15.6535 13.5973 15.9309 13.5641 16.0418C13.516 16.1934 13.442 16.3376 13.3496 16.467C13.1647 16.7037 12.8282 16.9403 12.5213 17.0475L12.4326 17.0808L12.4363 17.4691L12.44 17.8573L12.5213 17.8647L12.6027 17.8721L12.7136 18.0385L12.8208 18.2049H13.3163C13.5899 18.2049 13.8303 18.2086 13.8525 18.2123C13.8895 18.2197 13.8969 18.216 13.9338 18.1531L13.9782 18.0866H14.4034C14.7214 18.0718 14.8176 18.0792 14.8176 18.0903Z" fill="black"/>
<path d="M12.8652 19.1515C12.795 19.1922 12.7469 19.2107 12.7358 19.2033C12.7247 19.1996 12.6729 19.1552 12.6175 19.1145L12.5176 19.0332L12.4141 19.1441C12.1885 19.3882 12.1811 19.3993 12.1146 19.403C12.0111 19.4141 11.9889 19.3956 11.8632 19.207C11.7966 19.1108 11.7448 19.0295 11.7448 19.0295C11.7448 19.0295 11.6968 19.0221 11.6413 19.0184L11.5378 19.0073L11.4897 19.1071L11.4416 19.207L11.3566 19.1811C11.29 19.1589 11.2235 19.133 11.1606 19.1034L11.0497 19.048V18.8372L12.0332 18.8409L13.0168 18.8446L13.0205 18.9444C13.0242 19.0628 13.0279 19.0591 12.8652 19.1515Z" fill="black"/>
<path d="M22.1093 14.6403C22.1056 14.6256 22.1056 14.5997 22.1019 14.559C21.2145 14.4629 18.6816 14.4037 16.3299 16.345C16.3299 16.345 15.5719 12.8692 12.0221 12.8692C8.47241 12.8692 7.15605 16.345 7.15605 16.345C5.16672 14.204 2.50442 14.3593 1.54303 14.4998C1.54303 14.522 1.53934 14.5479 1.53934 14.5701C1.50975 15.1062 1.52454 15.3614 1.61329 15.6979C1.89061 16.7517 2.74477 17.9128 4.08331 19.0516C6.27602 20.9152 9.24892 22.2612 11.5008 22.4165C13.8488 22.5755 17.3135 21.2037 19.6208 19.1995C19.9832 18.8778 20.3234 18.5377 20.6414 18.1753C20.8706 17.9091 21.2108 17.4505 21.1849 17.4505C21.1775 17.4505 21.1849 17.4432 21.1997 17.4358C21.2108 17.4284 21.2219 17.4173 21.2145 17.4099C21.2108 17.4062 21.2182 17.3951 21.2293 17.3914C21.2404 17.3877 21.2478 17.3803 21.2441 17.3729C21.2404 17.3655 21.2441 17.3581 21.2589 17.3544C21.27 17.3507 21.2736 17.3396 21.27 17.3322C21.2663 17.3248 21.27 17.3174 21.2773 17.3174C21.2847 17.3174 21.2921 17.3063 21.2921 17.2989C21.2921 17.2916 21.2995 17.2805 21.3069 17.2805C21.3143 17.2805 21.3217 17.2731 21.3217 17.2657C21.3328 17.2361 21.3513 17.2065 21.3698 17.1806C21.4253 17.0956 21.6471 16.6999 21.6767 16.6334C21.8875 16.1564 22.0206 15.7311 22.0834 15.3059C22.1056 15.1025 22.1241 14.7291 22.1093 14.6403ZM12.8652 19.1515C12.795 19.1921 12.7469 19.2106 12.7358 19.2032C12.7247 19.1995 12.6729 19.1552 12.6175 19.1145L12.5176 19.0331L12.4141 19.1441C12.1885 19.3881 12.1811 19.3992 12.1146 19.4029C12.0111 19.414 11.9889 19.3955 11.8632 19.2069C11.7966 19.1108 11.7448 19.0294 11.7448 19.0294C11.7448 19.0294 11.6968 19.022 11.6413 19.0183L11.5378 19.0073L11.4897 19.1071L11.4416 19.2069L11.3566 19.181C11.29 19.1589 11.2235 19.133 11.1606 19.1034L11.0497 19.0479V18.8372L12.0332 18.8409L13.0168 18.8446L13.0205 18.9444C13.0242 19.0627 13.0279 19.059 12.8652 19.1515ZM14.714 18.4859C14.6586 18.6967 14.6142 18.8667 14.6142 18.8741C14.5735 18.8778 14.5365 18.8815 14.4959 18.8778H14.3775L14.2185 19.2661C14.1298 19.4769 14.0485 19.6728 14.0374 19.7024L14.0152 19.7542L13.9375 19.6285L13.8599 19.5027V18.4785L13.8303 18.4859C13.7674 18.5007 13.32 18.5598 13.124 18.5783C12.3143 18.6597 11.5008 18.6412 10.6947 18.5266C10.5653 18.5081 10.4543 18.4933 10.4507 18.497C10.447 18.5007 10.4507 18.7373 10.458 19.0294L10.4691 19.5545L10.4063 19.6506C10.373 19.7024 10.3397 19.7468 10.3397 19.7505C10.3286 19.7616 10.2917 19.7024 10.2066 19.5323C10.1142 19.3548 10.0476 19.1663 9.99954 18.9703L9.97365 18.863L9.85903 18.8704L9.7444 18.8815L9.71482 18.7447C9.70003 18.6708 9.68154 18.5561 9.67415 18.4933L9.66306 18.375L9.56691 18.2899C9.51145 18.2418 9.45599 18.1938 9.44489 18.1864C9.42641 18.1716 9.41901 18.1457 9.41901 18.1235V18.0791L9.88121 18.0828L10.3434 18.0865L10.3582 18.1346L10.373 18.1827L10.532 18.1901C10.6207 18.1938 10.9018 18.2012 11.1532 18.2086L11.6154 18.2197L11.7337 18.0348L11.8558 17.8499H12.0111L12.0074 17.4653L12.0037 17.0808L11.8003 16.992C11.1458 16.7036 10.7613 16.3745 10.617 15.9752C10.5875 15.8938 10.5875 15.8643 10.5801 15.4945C10.5764 15.1284 10.5764 15.0952 10.6023 15.0138C10.654 14.8289 10.7982 14.6847 10.9831 14.6366C11.046 14.6182 11.2124 14.6182 12.085 14.6182L13.113 14.6219L13.2276 14.6773C13.3644 14.7439 13.4273 14.7919 13.5049 14.8955C13.5936 15.0138 13.6195 15.1062 13.6195 15.3318C13.6195 15.6535 13.5973 15.9308 13.5641 16.0417C13.516 16.1934 13.442 16.3376 13.3496 16.467C13.1647 16.7036 12.8282 16.9403 12.5213 17.0475L12.4326 17.0808L12.4363 17.469L12.44 17.8573L12.5213 17.8647L12.6027 17.8721L12.7136 18.0385L12.8208 18.2049H13.3163C13.5899 18.2049 13.8303 18.2086 13.8525 18.2123C13.8895 18.2197 13.8969 18.216 13.9338 18.1531L13.9782 18.0865H14.4034C14.7325 18.0865 14.8287 18.0902 14.8287 18.1013C14.8176 18.0976 14.7695 18.2788 14.714 18.4859Z" fill="white"/>
<path d="M22.0797 14.2632C22.0723 14.0968 22.0575 13.8638 22.0465 13.7492C21.8875 12.0705 21.4585 10.6987 20.6451 9.24549C20.6118 9.19002 20.5822 9.13456 20.5637 9.09019C20.5563 9.07909 20.5526 9.068 20.5489 9.06061C20.6635 8.71672 21.1331 7.27834 21.5066 5.63289C22.0132 3.39952 22.3349 0.788981 21.3513 0.00508146C21.3513 0.00508146 19.6504 -0.120638 17.3726 2.11274C16.7551 2.73024 16.1894 3.39952 15.6865 4.11316L15.5275 4.06139C14.6105 3.76188 13.6602 3.577 12.7025 3.51414C12.4141 3.49196 11.3381 3.49196 10.9868 3.51414C9.92559 3.5844 9.11211 3.7434 8.1877 4.06509C8.15072 4.07988 8.11744 4.09097 8.08416 4.10207C7.56279 3.39212 6.98226 2.72655 6.34257 2.11644C3.97238 -0.128033 2.20861 0.00138359 2.20861 0.00138359C1.16588 0.811167 1.52085 3.54003 2.0607 5.84735C2.41568 7.37448 2.852 8.71672 3.0147 9.20112C3.0036 9.227 2.98881 9.25658 2.97402 9.28246C2.11247 11.0278 1.64657 12.7102 1.53564 14.4998C2.50072 14.3593 5.15933 14.2003 7.15236 16.345C7.15236 16.345 8.46872 12.8692 12.0185 12.8692C15.5682 12.8692 16.3262 16.345 16.3262 16.345C18.6779 14.4037 21.2108 14.4666 22.0982 14.559C22.0945 14.485 22.0871 14.3741 22.0797 14.2632ZM3.71355 7.80711C3.71355 7.80711 2.33063 4.34981 2.6856 2.37527C2.74477 2.04248 2.8557 1.75037 3.02949 1.52851C3.02949 1.52851 4.59728 1.68381 7.12647 4.49402C7.12647 4.49402 6.64578 4.72697 6.00239 5.22245C6.00239 5.22245 5.99869 5.22615 5.99499 5.22615C5.29614 5.76231 4.40131 6.61277 3.71355 7.80711ZM9.58171 12.9431C9.55952 12.9875 9.44859 13.0356 9.32287 13.0541C9.19715 13.0725 8.8126 13.0615 8.59444 13.0356C7.81054 12.932 6.97857 12.6917 6.37216 12.3959C6.03197 12.2295 5.78793 12.0631 5.60674 11.8819L5.50321 11.7747L5.49212 11.6342C5.47363 11.3901 5.47733 11.0056 5.50691 10.8688C5.52539 10.7541 5.56607 10.6432 5.62153 10.5434C5.65111 10.5064 5.65111 10.5064 5.78423 10.5064C5.94693 10.5064 6.08374 10.5323 6.3056 10.6025C6.76041 10.743 7.43708 11.0832 8.26165 11.5787C8.94202 11.9854 9.19715 12.1851 9.39313 12.4587C9.52624 12.6288 9.61498 12.8692 9.58171 12.9431ZM18.2933 11.7192C18.2823 11.7784 18.1085 11.9559 17.9347 12.0853C17.4244 12.4587 16.5111 12.8063 15.583 12.9727C15.0542 13.0688 14.5255 13.0836 14.3665 13.006C14.2629 12.9542 14.2481 12.9135 14.2851 12.7804C14.3628 12.5031 14.6142 12.1999 15.0061 11.9152C15.2058 11.771 16.0156 11.2792 16.3928 11.0721C17.014 10.7319 17.5168 10.5286 17.857 10.4805C17.9643 10.4657 18.0937 10.462 18.1344 10.4805C18.2009 10.5064 18.2749 10.7024 18.3044 10.939C18.3192 11.0647 18.3118 11.6194 18.2933 11.7192ZM17.6795 5.22245L17.6721 5.21876C17.0509 4.72327 16.585 4.49032 16.585 4.49032C19.0292 1.68011 20.5415 1.52481 20.5415 1.52481C20.7079 1.75037 20.8151 2.03878 20.8743 2.37157C21.2182 4.34611 19.8833 7.80711 19.8833 7.80711C19.325 6.81244 18.5744 5.9324 17.6795 5.22245Z" fill="#FFA409"/>
<path d="M20.878 2.37157C20.5896 2.33459 19.2252 2.3272 17.6795 5.22245L17.6721 5.21875C17.0509 4.72327 16.585 4.49032 16.585 4.49032C19.0292 1.68011 20.5415 1.52481 20.5415 1.52481C20.7116 1.75037 20.8188 2.03878 20.878 2.37157Z" fill="#FF9300"/>
<path d="M19.887 7.80707C19.325 6.80871 18.5781 5.93237 17.6795 5.22242C19.2252 2.32717 20.5859 2.33457 20.878 2.37154C21.2219 4.34978 19.887 7.80707 19.887 7.80707Z" fill="#FF8300"/>
<path d="M20.9335 2.38264C20.915 2.37895 20.8965 2.37525 20.878 2.37155L20.9335 2.38264Z" fill="#FF8300"/>
<path d="M7.12647 4.49029C7.12647 4.49029 6.64578 4.72324 6.00239 5.21872C6.00239 5.21872 5.99869 5.22242 5.99499 5.22242C4.39391 2.32347 2.98511 2.33456 2.68191 2.37154C2.74107 2.03875 2.852 1.74664 3.02579 1.52478C3.02949 1.52478 4.59728 1.68008 7.12647 4.49029Z" fill="#FF9300"/>
<path d="M5.99869 5.22242C5.29614 5.76228 4.40131 6.60904 3.71355 7.80707C3.71355 7.80707 2.33063 4.34978 2.6856 2.37154C2.98511 2.33457 4.39761 2.32717 5.99869 5.22242Z" fill="#FF8300"/>
<path d="M2.6856 2.37155C2.66712 2.37525 2.64493 2.37895 2.62644 2.38264L2.6856 2.37155Z" fill="#FF8300"/>
<path d="M16.145 9.72618C16.145 9.72618 14.9618 9.80013 15.1097 8.87572C15.2576 7.95131 16.182 7.84038 16.4408 7.87736C16.6997 7.91434 17.735 8.2841 17.5501 9.06061C17.3652 9.83711 17.1064 9.6892 16.9585 9.72618C16.8106 9.76316 16.145 9.72618 16.145 9.72618Z" fill="white"/>
<path d="M7.41858 9.72618C7.41858 9.72618 6.23534 9.80013 6.38324 8.87572C6.53115 7.95131 7.45556 7.84038 7.71439 7.87736C7.97323 7.91434 9.00857 8.2841 8.82369 9.06061C8.63881 9.83711 8.37997 9.6892 8.23206 9.72618C8.08416 9.76316 7.41858 9.72618 7.41858 9.72618Z" fill="white"/>
</svg>
