<svg width="24" height="24" viewBox="0 0 24 24" fill="none" xmlns="http://www.w3.org/2000/svg">
<circle cx="12" cy="12" r="12" fill="#906EE0"/>
<g clip-path="url(#clip0_214_218)">
<path d="M7.11163 14.6323C7.19008 14.5554 7.29795 14.5104 7.41236 14.5104H17.7875C17.9771 14.5104 18.0719 14.735 17.9379 14.8665L15.8883 16.8781C15.8099 16.9551 15.702 17 15.5876 17H5.21246C5.02287 17 4.92807 16.7754 5.06209 16.6439L7.11163 14.6323Z" fill="white"/>
<path d="M7.11163 7.12191C7.19335 7.04491 7.30122 7 7.41236 7H17.7875C17.9771 7 18.0719 7.22457 17.9379 7.35611L15.8883 9.36766C15.8099 9.44466 15.702 9.48957 15.5876 9.48957H5.21246C5.02287 9.48957 4.92807 9.265 5.06209 9.13346L7.11163 7.12191Z" fill="white"/>
<path d="M15.8883 10.8531C15.8099 10.7761 15.702 10.7311 15.5876 10.7311H5.21246C5.02287 10.7311 4.92807 10.9557 5.06209 11.0873L7.11163 13.0988C7.19008 13.1758 7.29795 13.2207 7.41236 13.2207H17.7875C17.9771 13.2207 18.0719 12.9961 17.9379 12.8646L15.8883 10.8531Z" fill="white"/>
</g>
<defs>
<clipPath id="clip0_214_218">
<rect width="13" height="10" fill="white" transform="translate(5 7)"/>
</clipPath>
</defs>
</svg>
