<svg width="27" height="24" viewBox="0 0 27 24" fill="none" xmlns="http://www.w3.org/2000/svg">
<path d="M5.38907 1.37885L25.6776 15.2318L20.66 22.6491L0.371477 8.68708L5.38907 1.37885Z" fill="url(#paint0_linear_42_282)"/>
<path d="M25.6776 15.2318C23.9324 17.7406 18.0421 16.7589 12.4792 12.8321C6.80709 9.01432 3.7529 3.88764 5.38907 1.37884C7.13432 -1.12996 13.0245 -0.148252 18.5875 3.77856C24.2596 7.48722 27.3138 12.723 25.6776 15.2318Z" fill="url(#paint1_linear_42_282)"/>
<path d="M20.66 22.54C18.9148 25.0488 13.0245 24.0671 7.46156 20.1403C1.89857 16.2135 -1.2647 11.1959 0.480555 8.578C2.22581 6.0692 8.11603 7.05091 13.679 10.9777C19.242 14.9045 22.2962 20.0312 20.66 22.54Z" fill="url(#paint2_linear_42_282)"/>
<path d="M25.6776 15.2318L20.66 22.6491C18.9148 25.1579 13.0245 24.0671 7.46156 20.2494C6.37078 19.4858 5.38908 18.7223 4.40737 17.8496C5.17092 17.7406 6.15262 17.3043 7.13433 16.2135C8.87958 14.3591 9.7522 13.9228 10.5158 14.0319C11.2793 14.0319 12.1519 14.7955 13.5699 16.6498C14.988 18.5041 16.9514 19.0495 18.1512 18.0678C18.2603 17.9587 18.3694 17.9587 18.4785 17.8496C19.4602 17.0861 19.7874 16.7589 21.6417 13.2684C22.078 12.3957 23.6051 10.9777 25.6776 11.6322C26.223 13.0502 26.223 14.2501 25.6776 15.2318Z" fill="#0E0F23"/>
<path fill-rule="evenodd" clip-rule="evenodd" d="M24.9141 14.7955C23.387 16.977 18.0421 15.8862 12.9155 12.2867C7.67971 8.68708 4.62553 4.10579 6.15262 1.92423C7.67971 -0.257336 13.0245 0.833446 18.1512 4.43303C23.2779 8.03261 26.3321 12.6139 24.9141 14.7955ZM20.1146 11.5231C19.3511 12.6139 16.7332 12.0685 14.1153 10.3232C11.6065 8.578 10.0794 6.28736 10.843 5.19657C11.6065 4.10579 14.2244 4.65118 16.8423 6.39643C19.3511 8.14169 20.8782 10.4323 20.1146 11.5231Z" fill="white"/>
<path d="M4.95276 3.88763C4.95276 3.77855 4.84368 3.66947 4.7346 3.77855C4.62552 3.88763 4.51645 3.88763 4.51645 3.99671C4.62552 4.32394 4.7346 4.5421 4.7346 4.76025C4.7346 4.86933 4.84368 4.97841 4.95276 4.86933C5.06184 4.86933 5.17091 4.76025 5.06184 4.65117C5.06184 4.43302 5.06184 4.21486 4.95276 3.88763Z" fill="white"/>
<path d="M5.49815 5.6329C5.49815 5.52382 5.38907 5.41474 5.27999 5.52382C5.17092 5.6329 5.17092 5.6329 5.17092 5.74198C6.37078 8.46893 8.87957 11.414 12.1519 13.5956C12.261 13.7047 12.3701 13.5956 12.4792 13.5956C12.5882 13.4865 12.4792 13.3774 12.4792 13.2684C9.09773 11.0868 6.69801 8.25077 5.49815 5.6329Z" fill="white"/>
<path d="M18.6966 16.3225C18.5875 16.3225 18.4784 16.3225 18.4784 16.4316C18.4784 16.5407 18.4784 16.6498 18.5875 16.6498C18.9148 16.7589 19.3511 16.8679 19.6783 16.977C19.7874 16.977 19.8965 16.977 19.8965 16.8679C19.8965 16.7589 19.8965 16.6498 19.7874 16.6498C19.4602 16.5407 19.0238 16.4316 18.6966 16.3225Z" fill="white"/>
<path d="M20.66 16.7589C20.5509 16.7589 20.4419 16.868 20.4419 16.977C20.4419 17.0861 20.5509 17.1952 20.66 17.1952C21.5326 17.3043 22.5144 17.4133 23.2779 17.3043C23.387 17.3043 23.4961 17.1952 23.4961 17.0861C23.4961 16.977 23.387 16.868 23.2779 16.868C22.4053 16.977 21.5326 16.868 20.66 16.7589Z" fill="white"/>
<defs>
<linearGradient id="paint0_linear_42_282" x1="9.3641" y1="-0.59078" x2="13.3876" y2="13.2253" gradientUnits="userSpaceOnUse">
<stop stop-color="#03B8FF"/>
<stop offset="1" stop-color="#FA52A0"/>
</linearGradient>
<linearGradient id="paint1_linear_42_282" x1="12.6775" y1="-1.5558" x2="16.701" y2="12.2604" gradientUnits="userSpaceOnUse">
<stop stop-color="#03B8FF"/>
<stop offset="1" stop-color="#FA52A0"/>
</linearGradient>
<linearGradient id="paint2_linear_42_282" x1="6.061" y1="0.371064" x2="10.0846" y2="14.1872" gradientUnits="userSpaceOnUse">
<stop stop-color="#03B8FF"/>
<stop offset="1" stop-color="#FA52A0"/>
</linearGradient>
</defs>
</svg>
