<svg width="24" height="24" viewBox="0 0 24 24" fill="none" xmlns="http://www.w3.org/2000/svg">
<circle cx="12" cy="12" r="12" fill="#FFEBEC"/>
<path d="M19.1248 10.2176C18.4686 9.6117 17.5608 8.6864 16.8214 8.03016L16.7777 7.99953C16.7049 7.94108 16.6228 7.89524 16.5349 7.86391V7.86391C14.7521 7.53142 6.45499 5.9805 6.29312 6.00019C6.24776 6.00654 6.20441 6.02298 6.16625 6.04831L6.12469 6.08112C6.07351 6.1331 6.03464 6.19589 6.01094 6.26487L6 6.29331V6.44862V6.47268C6.93405 9.07358 10.6221 17.5938 11.3484 19.5931C11.3921 19.7288 11.4752 19.9869 11.6306 20H11.6656C11.7487 20 12.103 19.5319 12.103 19.5319C12.103 19.5319 18.438 11.8495 19.0789 11.0314C19.1619 10.9306 19.2351 10.8222 19.2976 10.7076C19.3136 10.618 19.3061 10.5257 19.2758 10.4399C19.2455 10.354 19.1935 10.2774 19.1248 10.2176V10.2176ZM13.7283 11.1123L16.4321 8.87015L18.018 10.3314L13.7283 11.1123ZM12.6784 10.9657L8.02341 7.1508L15.5549 8.53984L12.6784 10.9657ZM13.0983 11.9654L17.8627 11.1976L12.4159 17.76L13.0983 11.9654ZM7.39123 7.53142L12.289 11.6876L11.5802 17.7644L7.39123 7.53142Z" fill="#FF060A"/>
</svg>
