<svg width="24" height="24" viewBox="0 0 24 24" fill="none" xmlns="http://www.w3.org/2000/svg">
<circle cx="12" cy="12" r="12" fill="white"/>
<g clip-path="url(#clip0_43_332)">
<path d="M9.70588 7.73065C9.55615 7.71207 9.54902 7.70588 9.62032 7.69969C9.75579 7.68112 10.0695 7.70588 10.2906 7.74923C10.8039 7.85449 11.2674 8.12694 11.7594 8.60372L11.8877 8.73375L12.0731 8.70898C12.8645 8.59752 13.6774 8.68421 14.3547 8.95666C14.5401 9.03096 14.8324 9.17957 14.8681 9.21672C14.8824 9.2291 14.9037 9.3096 14.918 9.39009C14.9679 9.68112 14.9465 9.89783 14.8396 10.065C14.7825 10.1579 14.7825 10.1827 14.8182 10.2632C14.8467 10.3251 14.9323 10.3684 15.0107 10.3684C15.1818 10.3684 15.3601 10.1331 15.4456 9.80495L15.4813 9.67492L15.5455 9.73684C15.9091 10.0898 16.1943 10.5789 16.2371 10.9257L16.2513 11.0186L16.1872 10.9381C16.0802 10.7957 15.9804 10.7028 15.8449 10.6223C15.6025 10.4799 15.3458 10.4365 14.6685 10.4056C14.0553 10.3746 13.7059 10.3313 13.3636 10.2322C12.779 10.065 12.4795 9.8483 11.7879 9.04954C11.4813 8.6966 11.2888 8.50464 11.0963 8.34365C10.6756 7.99071 10.2549 7.80495 9.70588 7.73065Z" fill="#FF007A"/>
<path d="M15.0178 8.51703C15.0321 8.28173 15.0677 8.12694 15.1462 7.98452C15.1747 7.92879 15.2032 7.87926 15.2103 7.87926C15.2175 7.87926 15.2032 7.9226 15.1818 7.97214C15.1248 8.10836 15.1176 8.30031 15.1533 8.51703C15.2032 8.79567 15.2246 8.83282 15.5668 9.13622C15.7237 9.27864 15.9091 9.4582 15.9804 9.53251L16.1016 9.66873L15.9804 9.56966C15.8307 9.44582 15.4884 9.21053 15.41 9.17957C15.3601 9.1548 15.3529 9.1548 15.3173 9.18576C15.2888 9.21053 15.2816 9.24768 15.2816 9.42725C15.2745 9.70588 15.2317 9.87926 15.1248 10.0588C15.0677 10.1517 15.0606 10.1331 15.1105 10.0279C15.1462 9.94737 15.1533 9.91022 15.1533 9.64396C15.1533 9.10526 15.082 8.97523 14.6471 8.75851C14.5401 8.70279 14.3547 8.62229 14.2478 8.57895C14.1337 8.5356 14.0481 8.49845 14.0553 8.49845C14.0695 8.48607 14.4902 8.59133 14.6542 8.65325C14.9037 8.73994 14.9465 8.74613 14.975 8.73994C14.9964 8.72136 15.0107 8.67183 15.0178 8.51703Z" fill="#FF007A"/>
<path d="M9.99822 9.43963C9.69875 9.0805 9.50624 8.52322 9.54902 8.10836L9.56328 7.97833L9.63458 7.99072C9.76292 8.00929 9.98396 8.0836 10.0909 8.13932C10.3761 8.28793 10.5045 8.49226 10.6257 9C10.6613 9.14861 10.7112 9.32199 10.7326 9.37771C10.7683 9.47059 10.9037 9.68731 11.0178 9.82353C11.0963 9.9226 11.0463 9.97214 10.8681 9.95976C10.5971 9.93499 10.2335 9.71827 9.99822 9.43963Z" fill="#FF007A"/>
<path d="M14.6542 12.1331C13.2424 11.6378 12.7433 11.2105 12.7433 10.4861C12.7433 10.3808 12.7504 10.2941 12.7504 10.2941C12.7576 10.2941 12.8075 10.3313 12.8717 10.3746C13.1569 10.5728 13.4777 10.6594 14.369 10.7709C14.8895 10.839 15.1889 10.8885 15.4599 10.969C16.3226 11.2167 16.8574 11.7245 16.9857 12.4118C17.0214 12.6099 17 12.9876 16.943 13.1858C16.8931 13.3406 16.7504 13.6254 16.7148 13.6316C16.7077 13.6316 16.6934 13.6006 16.6934 13.5511C16.6791 13.291 16.5294 13.0433 16.2799 12.8514C15.9804 12.6285 15.5954 12.4613 14.6542 12.1331Z" fill="#FF007A"/>
<path d="M13.656 12.3375C13.6417 12.2446 13.6061 12.1269 13.5847 12.0774L13.549 11.9845L13.6132 12.0526C13.7059 12.1455 13.7772 12.257 13.8414 12.4118C13.8913 12.5294 13.8913 12.5666 13.8913 12.7585C13.8913 12.9443 13.8841 12.9876 13.8414 13.0929C13.7701 13.2601 13.6845 13.3777 13.5419 13.5077C13.2852 13.7368 12.9501 13.8607 12.4724 13.9164C12.3868 13.9226 12.1444 13.9412 11.9305 13.9536C11.3957 13.9783 11.0392 14.0279 10.7184 14.1269C10.6756 14.1393 10.6328 14.1517 10.6257 14.1455C10.6114 14.1331 10.8324 14.0217 11.0107 13.9474C11.2602 13.8421 11.5169 13.7864 12.0802 13.6997C12.3583 13.6625 12.6435 13.613 12.7148 13.5882C13.4207 13.3963 13.7701 12.9195 13.656 12.3375Z" fill="#FF007A"/>
<path d="M14.3048 13.3344C14.1194 12.9814 14.0766 12.6471 14.1765 12.3313C14.1907 12.3003 14.205 12.2693 14.2193 12.2693C14.2335 12.2693 14.2763 12.2879 14.3191 12.3127C14.4046 12.3622 14.5829 12.4489 15.0392 12.6656C15.6168 12.9381 15.9447 13.1486 16.1729 13.3901C16.3725 13.6006 16.4938 13.8421 16.5508 14.1393C16.5865 14.3065 16.5651 14.709 16.5152 14.8762C16.3583 15.4025 16.0018 15.8235 15.4813 16.065C15.4029 16.1022 15.3387 16.1269 15.3315 16.1269C15.3244 16.1269 15.3529 16.065 15.3957 15.9907C15.5668 15.6749 15.5882 15.3715 15.4599 15.031C15.3815 14.8204 15.2175 14.5666 14.8895 14.1393C14.4973 13.644 14.4046 13.5139 14.3048 13.3344Z" fill="#FF007A"/>
<path d="M8.99287 15.2291C9.5205 14.8452 10.1693 14.5728 10.7683 14.4861C11.025 14.4489 11.4528 14.4613 11.6881 14.517C12.066 14.6037 12.4082 14.7895 12.5865 15.0186C12.7576 15.2415 12.836 15.4334 12.9144 15.8607C12.943 16.0279 12.9786 16.2012 12.9857 16.2384C13.0428 16.4613 13.1569 16.6347 13.2995 16.7275C13.5205 16.87 13.9055 16.8762 14.2834 16.7523C14.3476 16.7337 14.4046 16.7152 14.4046 16.7214C14.4189 16.7337 14.2264 16.8452 14.098 16.9009C13.9198 16.9814 13.7772 17.0062 13.5847 17.0062C13.2424 17.0062 12.9501 16.8514 12.7148 16.5418C12.6649 16.4799 12.5651 16.3003 12.4795 16.1331C12.2299 15.6316 12.1016 15.483 11.8093 15.3158C11.5526 15.1734 11.2246 15.1424 10.975 15.2477C10.6471 15.3839 10.5615 15.7492 10.7897 15.9721C10.8824 16.065 11.0535 16.1393 11.1961 16.1579C11.4599 16.1889 11.6881 16.0093 11.6881 15.7802C11.6881 15.6316 11.6239 15.5449 11.4528 15.4768C11.2246 15.3901 10.975 15.4892 10.9822 15.6811C10.9822 15.7616 11.025 15.8111 11.1176 15.8483C11.1747 15.8731 11.1747 15.8731 11.1319 15.8669C10.9251 15.8297 10.8752 15.6068 11.0392 15.4644C11.2389 15.291 11.6595 15.3653 11.8021 15.6068C11.8592 15.7059 11.8663 15.904 11.8164 16.0279C11.6952 16.3003 11.3529 16.4427 11.0036 16.3622C10.7683 16.3065 10.6684 16.2508 10.3832 15.9969C9.88414 15.5511 9.69162 15.4644 8.97861 15.3715L8.84314 15.3529L8.99287 15.2291Z" fill="#FF007A"/>
<path fill-rule="evenodd" clip-rule="evenodd" d="M5.23791 5.26625C6.89923 7.01858 9.45895 9.74303 9.58729 9.89164C9.69424 10.0155 9.65146 10.1331 9.47321 10.2198C9.37338 10.2694 9.16661 10.3189 9.06679 10.3189C8.95271 10.3189 8.81723 10.2694 8.72454 10.1889C8.66037 10.1331 8.3823 9.78019 7.75485 8.93189C7.27713 8.28173 6.87071 7.74303 6.86358 7.73684C6.83506 7.72446 6.83506 7.72446 7.70493 9.0743C8.25395 9.9226 8.43221 10.226 8.43221 10.2632C8.43221 10.3437 8.40369 10.387 8.2896 10.4985C8.09709 10.6842 8.01153 10.8947 7.94736 11.3344C7.87606 11.8235 7.68354 12.1703 7.13452 12.7585C6.81367 13.1053 6.76376 13.1672 6.68533 13.3096C6.58551 13.483 6.55698 13.582 6.54272 13.805C6.52846 14.0402 6.55698 14.1889 6.63542 14.4118C6.70672 14.6099 6.78515 14.7399 6.97766 14.9938C7.14165 15.2167 7.24148 15.3839 7.24148 15.4458C7.24148 15.4954 7.25574 15.4954 7.51242 15.4458C8.12561 15.322 8.63185 15.1115 8.90993 14.8514C9.08105 14.6904 9.12383 14.6037 9.12383 14.3808C9.12383 14.2384 9.1167 14.2074 9.07392 14.1207C9.00262 13.9845 8.86714 13.8731 8.57481 13.6997C8.18978 13.4706 8.02579 13.2848 7.98301 13.0372C7.94736 12.8266 7.99014 12.6842 8.20404 12.2941C8.42508 11.8916 8.48212 11.7245 8.51777 11.3158C8.53916 11.0557 8.57481 10.9505 8.66037 10.87C8.75306 10.7833 8.83149 10.7523 9.05253 10.7276C9.41616 10.6842 9.65146 10.6037 9.83684 10.4489C10.0008 10.3189 10.0721 10.1889 10.0793 9.9969L10.0864 9.85449L9.9937 9.7678C9.65859 9.43344 5.01688 5 4.99549 5C4.98836 5 5.10244 5.11765 5.23791 5.26625ZM7.42686 14.0712C7.50529 13.9536 7.46251 13.805 7.33417 13.7307C7.21296 13.6625 7.02757 13.6935 7.02757 13.7864C7.02757 13.8111 7.04183 13.8359 7.08461 13.8483C7.14879 13.8793 7.15592 13.9102 7.106 13.9783C7.05609 14.0464 7.05609 14.1084 7.12026 14.1517C7.22009 14.2198 7.35556 14.1827 7.42686 14.0712Z" fill="#FF007A"/>
<path fill-rule="evenodd" clip-rule="evenodd" d="M10.3191 10.8142C10.1479 10.8576 9.98396 11.0186 9.93405 11.1796C9.90553 11.2786 9.91979 11.4582 9.9697 11.5139C10.0481 11.6006 10.1194 11.6254 10.3191 11.6254C10.7112 11.6254 11.0463 11.4768 11.082 11.2972C11.1176 11.1486 10.9679 10.9443 10.7611 10.8514C10.6542 10.8019 10.4332 10.7833 10.3191 10.8142ZM10.7754 11.1238C10.8324 11.0495 10.8111 10.969 10.7041 10.9133C10.5116 10.808 10.2193 10.8947 10.2193 11.0557C10.2193 11.1362 10.369 11.2229 10.5116 11.2229C10.6043 11.2229 10.7326 11.1734 10.7754 11.1238Z" fill="#FF007A"/>
</g>
<defs>
<clipPath id="clip0_43_332">
<rect width="12" height="12" fill="white" transform="translate(5 5)"/>
</clipPath>
</defs>
</svg>
