<svg width="24" height="24" viewBox="0 0 24 24" fill="none" xmlns="http://www.w3.org/2000/svg">
<path d="M12 24C18.65 24 24 18.65 24 12C24 5.34996 18.65 0 12 0C5.34996 0 0 5.34996 0 12C0 18.65 5.34996 24 12 24Z" fill="#2775CA"/>
<path d="M15.3 13.9C15.3 12.15 14.25 11.55 12.15 11.3C10.65 11.1 10.35 10.7 10.35 9.99996C10.35 9.29987 10.85 8.84999 11.85 8.84999C12.75 8.84999 13.25 9.14999 13.5 9.89999C13.55 10.05 13.7 10.15 13.85 10.15H14.65C14.85 10.15 15 9.99996 15 9.80003V9.74999C14.8 8.64995 13.9 7.79999 12.75 7.70003V6.50003C12.75 6.29999 12.6 6.14999 12.35 6.09995H11.6C11.4 6.09995 11.25 6.24995 11.2 6.50003V7.64999C9.69996 7.85003 8.75004 8.84999 8.75004 10.1C8.75004 11.75 9.75 12.4 11.85 12.65C13.25 12.9 13.7 13.2 13.7 14C13.7 14.8001 13 15.35 12.05 15.35C10.75 15.35 10.3 14.8 10.15 14.05C10.1 13.85 9.95004 13.75 9.80004 13.75H8.94996C8.75004 13.75 8.60004 13.9 8.60004 14.1V14.15C8.79996 15.4 9.6 16.3 11.25 16.5501V17.7501C11.25 17.95 11.4 18.1 11.65 18.15H12.4C12.6 18.15 12.75 18 12.8 17.7501V16.5501C14.3 16.3 15.3 15.25 15.3 13.9V13.9Z" fill="white"/>
<path d="M9.45001 19.15C5.55 17.7501 3.54996 13.4001 5.00004 9.54998C5.75005 7.44997 7.40005 5.85 9.45001 5.1C9.65005 5.00004 9.75002 4.85004 9.75002 4.59996V3.89999C9.75002 3.69995 9.65005 3.54995 9.45001 3.50003C9.39997 3.50003 9.30001 3.50003 9.24997 3.54995C4.5 5.04996 1.89996 10.1001 3.39996 14.85C4.29996 17.65 6.45001 19.8001 9.24997 20.7001C9.45001 20.8 9.65006 20.7001 9.69998 20.5C9.75002 20.4501 9.75002 20.4001 9.75002 20.3001V19.6C9.75002 19.45 9.60001 19.2501 9.45001 19.15ZM14.7501 3.54995C14.55 3.44999 14.35 3.54995 14.3001 3.74999C14.25 3.80003 14.25 3.84995 14.25 3.95003V4.65C14.25 4.85004 14.4 5.04996 14.55 5.15004C18.45 6.54997 20.4501 10.9 19 14.7501C18.25 16.8501 16.6 18.4501 14.55 19.2001C14.35 19.3 14.25 19.45 14.25 19.7001V20.4001C14.25 20.6001 14.35 20.7501 14.55 20.8C14.6001 20.8 14.7 20.8 14.7501 20.7501C19.5 19.2501 22.1001 14.2 20.6001 9.45002C19.7001 6.60001 17.5 4.44996 14.7501 3.54995V3.54995Z" fill="white"/>
</svg>
