<svg width="24" height="24" viewBox="0 0 24 24" fill="none" xmlns="http://www.w3.org/2000/svg">
<circle cx="12" cy="12" r="12" fill="#50AF95"/>
<path fill-rule="evenodd" clip-rule="evenodd" d="M13.2208 11.9418C13.1526 11.9469 12.8003 11.9679 12.0145 11.9679C11.3895 11.9679 10.9457 11.9491 10.79 11.9418C8.37454 11.8355 6.57162 11.415 6.57162 10.9116C6.57162 10.4082 8.37454 9.98826 10.79 9.8803V11.523C10.948 11.5344 11.4003 11.5611 12.0253 11.5611C12.7753 11.5611 13.1509 11.5298 13.2185 11.5236V9.88143C15.6289 9.98883 17.4278 10.4093 17.4278 10.9116C17.4278 11.4139 15.6294 11.8344 13.2185 11.9412L13.2208 11.9418ZM13.2208 9.71154V8.24158H16.5846V6H7.4262V8.24158H10.7894V9.71097C8.05578 9.83655 6 10.378 6 11.0269C6 11.6758 8.05578 12.2168 10.7894 12.3429V17.0534H13.2202V12.3412C15.9476 12.2156 18 11.6747 18 11.0264C18 10.378 15.9493 9.83711 13.2202 9.71097L13.2208 9.71154Z" fill="white"/>
</svg>
