<svg width="24" height="24" viewBox="0 0 24 24" fill="none" xmlns="http://www.w3.org/2000/svg">
<circle cx="12" cy="12" r="12" fill="#E7EEFF"/>
<g clip-path="url(#clip0_43_340)">
<path d="M11.0184 18.3699L5.03077 5.45011C4.93347 5.24397 5.07977 5 5.29536 5H7.37012C7.48142 5 7.58572 5.06674 7.63472 5.16981L12.0075 14.5428C12.3974 15.3837 13.5251 15.3837 13.915 14.5428L18.2738 5.17723C18.3228 5.07415 18.4271 5.00742 18.5384 5.00742H18.796C18.9493 5.00742 19.0466 5.17723 18.9773 5.31738L12.9266 18.3699C12.5367 19.2101 11.4083 19.2101 11.0184 18.3699V18.3699Z" fill="url(#paint0_linear_43_340)"/>
<path opacity="0.1" d="M11.0185 18.3699L7.6348 5.17723C7.5858 5.06674 7.47451 5.00742 7.38421 5.00742H5.30245C5.07285 5.00742 4.94056 5.25064 5.03086 5.45753L11.0185 18.3699Z" fill="white"/>
<path opacity="0.1" d="M12.0078 14.5495L5.031 5.45011C4.9477 5.23655 5.073 5.02225 5.2676 5H7.37735C7.49565 5.00742 7.58595 5.08824 7.62795 5.16981L12.0078 14.5495Z" fill="white"/>
</g>
<defs>
<linearGradient id="paint0_linear_43_340" x1="5.00004" y1="12" x2="19" y2="12" gradientUnits="userSpaceOnUse">
<stop stop-color="#9D4ABE"/>
<stop offset="0.03" stop-color="#9055C4"/>
<stop offset="0.15" stop-color="#6B74D6"/>
<stop offset="0.26" stop-color="#4C8FE5"/>
<stop offset="0.39" stop-color="#34A3F0"/>
<stop offset="0.52" stop-color="#22B2F9"/>
<stop offset="0.66" stop-color="#18BAFD"/>
<stop offset="0.83" stop-color="#15BDFF"/>
<stop offset="1" stop-color="#28BAD5"/>
</linearGradient>
<clipPath id="clip0_43_340">
<rect width="14" height="14" fill="white" transform="translate(5 5)"/>
</clipPath>
</defs>
</svg>
