<svg width="24" height="24" viewBox="0 0 24 24" fill="none" xmlns="http://www.w3.org/2000/svg">
<circle cx="12" cy="12" r="12" fill="#262626"/>
<g clip-path="url(#clip0_43_368)">
<path d="M12.8474 10.7437L11.8031 12.5528L10.7588 14.3618L9.71722 16.1681L8.67291 14.3618L9.71722 12.5528L10.7615 10.7465L9.17725 8H11.2631L11.8058 8.93741L12.8474 10.7437ZM7.08862 8H5L7.6286 12.5528L8.67291 10.7465L7.08862 8ZM15.9557 8.93741L15.413 8H13.3271L14.9114 10.7437L13.8671 12.5528L12.8228 14.3618L13.8671 16.1681L14.9114 14.3618L15.9557 12.5528L17 10.7465L15.9557 8.93741Z" fill="#F4F4F4"/>
</g>
<defs>
<clipPath id="clip0_43_368">
<rect width="12" height="8.16811" fill="white" transform="translate(5 8)"/>
</clipPath>
</defs>
</svg>
