<svg width="24" height="24" viewBox="0 0 24 24" fill="none" xmlns="http://www.w3.org/2000/svg">
<g clip-path="url(#clip0_43_373)">
<path d="M20.9841 7.15753L18.4354 8.64426L21.8761 10.6195V17.5646L15.8655 21.0478L9.85485 17.5646V10.6195L13.3168 8.62302L12.8283 8.34691L10.7469 7.15753L7.28494 9.15399V19.0513L15.8655 24L24.446 19.0513V9.15399L20.9841 7.15753Z" fill="white"/>
<path d="M8.58053 0L0 4.94867V14.846L3.46195 16.8425L5.54336 15.6531L6.01062 15.377L2.54867 13.3805V6.41416L8.58053 2.95221L14.5911 6.41416V13.3805L11.1504 15.3558L13.6991 16.8425L17.1398 14.846V4.94867L8.58053 0Z" fill="white"/>
</g>
<defs>
<clipPath id="clip0_43_373">
<rect width="24" height="24" fill="white"/>
</clipPath>
</defs>
</svg>
