<svg width="24" height="24" viewBox="0 0 24 24" fill="none" xmlns="http://www.w3.org/2000/svg">
<circle cx="12" cy="12" r="12" fill="#222222"/>
<g clip-path="url(#clip0_43_365)">
<path d="M17.18 7.56833L15.4724 8.43833L7.2266 12.6383C7.19872 12.4257 7.18469 12.2114 7.1846 11.9969C7.18573 11.1411 7.41041 10.3005 7.83639 9.55827C8.26238 8.81604 8.87488 8.19797 9.61323 7.76529C10.3516 7.33261 11.1902 7.10033 12.0459 7.09147C12.9016 7.0826 13.7448 7.29745 14.492 7.71473L15.4694 7.21673L15.6152 7.14233C14.7198 6.49246 13.6622 6.10281 12.5593 6.01643C11.4563 5.93005 10.3509 6.15031 9.36531 6.65286C8.3797 7.15542 7.55222 7.9207 6.97434 8.86412C6.39647 9.80755 6.09069 10.8924 6.0908 11.9987C6.0908 12.1515 6.0966 12.3037 6.1082 12.4553C6.12445 12.67 6.07683 12.8847 5.97135 13.0724C5.86587 13.2601 5.70723 13.4124 5.5154 13.5101L5 13.7729V14.9987L6.5174 14.2253L7.0088 13.9745L7.493 13.7279L16.1858 9.29873L17.1626 8.80133L19.1816 7.77233V6.54713L17.18 7.56833Z" fill="white"/>
<path d="M19.1816 9L7.9868 14.7L7.01 15.1986L5 16.2228V17.4474L6.9962 16.4304L8.7038 15.5604L16.958 11.3544C16.9859 11.5685 16.9999 11.7841 17 12C16.9995 12.8568 16.7749 13.6985 16.3485 14.4416C15.9221 15.1848 15.3087 15.8035 14.5693 16.2363C13.8299 16.6691 12.9901 16.901 12.1334 16.9089C11.2766 16.9169 10.4327 16.7006 9.6854 16.2816L9.6254 16.3134L8.5658 16.8534C9.46096 17.5033 10.5183 17.8931 11.6211 17.9796C12.7239 18.0662 13.8292 17.8463 14.8148 17.3441C15.8004 16.8418 16.628 16.0769 17.2062 15.1338C17.7843 14.1907 18.0904 13.1062 18.0908 12C18.0908 11.8458 18.0848 11.6916 18.0734 11.5392C18.0572 11.3246 18.1047 11.11 18.2101 10.9223C18.3155 10.7346 18.4739 10.5823 18.6656 10.4844L19.1816 10.2216V9Z" fill="white"/>
</g>
<defs>
<clipPath id="clip0_43_365">
<rect width="14.1816" height="12" fill="white" transform="translate(5 6)"/>
</clipPath>
</defs>
</svg>
