<svg width="24" height="24" viewBox="0 0 24 24" fill="none" xmlns="http://www.w3.org/2000/svg">
<g clip-path="url(#clip0_42_194)">
<path d="M23.9971 11.9988C23.9971 18.6254 18.6257 23.9976 11.9987 23.9976C5.3717 23.9976 0.000255585 18.6254 0.000255585 11.9988C0.000255585 5.37227 5.37182 0 11.9987 0C18.6256 0 23.9971 5.37176 23.9971 11.9988Z" fill="white"/>
<path d="M11.9987 0C5.37406 0 -0.00690001 5.37987 0.00153339 11.9984C0.00319452 13.3226 0.214349 14.5964 0.610655 15.7878H4.20047V5.69415L11.9987 13.4923L19.7965 5.69415V15.788H23.3871C23.784 14.5966 23.9941 13.3229 23.9964 11.9986C24.0077 5.37316 18.624 0.00159724 11.9987 0.00159724V0Z" fill="#F26822"/>
<path d="M10.2053 15.285L6.80212 11.8816V18.2331H4.20022L1.74501 18.2336C3.851 21.6887 7.65702 24 11.9987 24C16.3404 24 20.1466 21.6882 22.2529 18.2331H17.1945V11.8816L13.7911 15.285L11.9983 17.0778L10.2054 15.285H10.2053Z" fill="#4D4D4D"/>
</g>
<defs>
<clipPath id="clip0_42_194">
<rect width="23.9974" height="24" fill="white"/>
</clipPath>
</defs>
</svg>
