<svg width="24" height="24" viewBox="0 0 24 24" fill="none" xmlns="http://www.w3.org/2000/svg">
<circle cx="12" cy="12" r="12" fill="#FCDEFF"/>
<g clip-path="url(#clip0_46_84)">
<path fill-rule="evenodd" clip-rule="evenodd" d="M10.0397 10.1205C10.0199 10.2874 10 10.4623 9.98809 10.6371C9.6861 10.8477 9.40398 11.0623 9.14173 11.2768C9.00663 11.3881 8.8755 11.4993 8.75232 11.6146C7.78279 10.6252 7.36954 9.7351 7.63577 9.27815C7.8702 8.87285 8.65696 8.75762 9.7616 8.97616C9.8053 8.78543 9.84901 8.60265 9.90067 8.42781C8.5616 8.15762 7.5404 8.33642 7.15497 9C7.05166 9.17483 7.00001 9.37351 7.00001 9.58411V9.60397C7.00795 10.5457 7.93378 11.8053 9.47948 12.9934C9.63842 13.1166 9.80928 13.2397 9.98411 13.3629C10.0159 13.7483 10.0636 14.1179 10.1232 14.4636C10.151 14.6185 10.1788 14.7695 10.2106 14.9166C8.87153 15.2623 7.89802 15.1748 7.63179 14.7179C7.39736 14.3126 7.6914 13.5695 8.43047 12.7232L8.04504 12.3179C7.13113 13.351 6.76557 14.3324 7.151 15C7.4212 15.4689 8.0053 15.6914 8.79206 15.6914C9.58279 15.6914 10.5762 15.4649 11.6649 15.0238C11.6927 15.0119 11.7205 15 11.7523 14.9881C11.9431 14.9086 12.1338 14.8252 12.3285 14.7338C12.3364 14.7298 12.3444 14.7258 12.3523 14.7219C12.698 14.8808 13.0397 15.0238 13.3775 15.147C13.5245 15.2026 13.6715 15.2503 13.8146 15.298C13.445 16.6331 12.8808 17.4358 12.3523 17.4358C11.8834 17.4358 11.3868 16.8079 11.0252 15.7351C10.8424 15.7987 10.6636 15.8543 10.4848 15.902C10.9219 17.1974 11.5854 17.9921 12.3523 17.9921C13.4689 17.9921 14.3589 16.3152 14.6649 13.8715C14.6848 13.7046 14.7007 13.5298 14.7166 13.3589C15.0305 13.1404 15.3245 12.9139 15.5987 12.6834C15.6146 12.6715 15.6305 12.6596 15.6464 12.6437C15.7497 12.5563 15.849 12.4689 15.9483 12.3775C16.9219 13.3629 17.3351 14.257 17.0689 14.7139C16.8503 15.0914 16.1311 15.2185 15.1457 15.0556C15.0782 15.0437 15.0146 15.0318 14.947 15.0199C14.9033 15.2066 14.8596 15.3854 14.808 15.5603C14.8914 15.5762 14.9748 15.5921 15.0543 15.604C15.3682 15.6556 15.6583 15.6834 15.9245 15.6834C16.7232 15.6834 17.2914 15.449 17.5536 14.996C17.9033 14.3921 17.649 13.5139 16.8344 12.5285C16.4133 12.0159 15.8649 11.4993 15.2291 11.0066C15.0662 10.8795 14.8954 10.7563 14.7245 10.6331C14.6927 10.2477 14.645 9.87815 14.5815 9.52848C14.5536 9.37351 14.5258 9.22252 14.494 9.0755C14.7205 9.01589 14.9391 8.96821 15.1497 8.93245C16.1351 8.76954 16.8543 8.89669 17.0729 9.27417C17.3033 9.67152 17.0212 10.3987 16.306 11.2291C16.445 11.3642 16.5722 11.4993 16.6914 11.6305C16.7431 11.5748 16.7907 11.5152 16.8344 11.4596C17.645 10.4742 17.9033 9.59603 17.5536 8.99205C17.204 8.38808 16.3179 8.16954 15.0583 8.38013C14.4742 8.4755 13.8344 8.66225 13.1709 8.91656C13.1431 8.92848 13.1192 8.93642 13.0914 8.94834C12.8689 9.03576 12.6464 9.13113 12.4238 9.23444C12.404 9.24238 12.3841 9.2543 12.3642 9.26225C12.0146 9.09934 11.6689 8.95232 11.3351 8.82914C11.1881 8.77351 11.0411 8.72583 10.898 8.67815C11.2676 7.34702 11.8318 6.54437 12.3603 6.54437C12.8291 6.54437 13.3298 7.17616 13.6914 8.24901C13.8742 8.1894 14.053 8.13377 14.2318 8.08212C13.7828 6.79868 13.1192 6 12.3484 6C11.2358 6 10.3417 7.67682 10.0397 10.1205ZM13.5921 9.91788C13.5841 9.90993 13.5722 9.90596 13.5642 9.90199C13.3775 9.7947 13.1868 9.69139 13.004 9.59205C13.0199 9.58411 13.0358 9.57616 13.0517 9.57219C13.2782 9.47682 13.5046 9.3894 13.7232 9.31391C13.7987 9.28609 13.8742 9.26225 13.9457 9.23841C13.9775 9.38543 14.0053 9.53245 14.0331 9.68742C14.0649 9.86623 14.0887 10.049 14.1126 10.2358C13.9417 10.1285 13.7669 10.0212 13.5921 9.91788ZM10.6636 9.70728C10.6914 9.54437 10.7192 9.3894 10.755 9.23841C10.902 9.28609 11.049 9.33377 11.2 9.39338C11.3629 9.45298 11.5298 9.52053 11.7007 9.59205C11.5139 9.69139 11.3232 9.7947 11.1364 9.90199C11.1285 9.90596 11.1205 9.90993 11.1126 9.91788C10.9338 10.0212 10.7589 10.1285 10.5881 10.2358C10.6119 10.053 10.6358 9.87815 10.6636 9.70728ZM11.4146 13.6172C11.2795 13.5417 11.1484 13.4623 11.0212 13.3828C10.8464 13.2755 10.6795 13.1682 10.5166 13.057C10.4927 12.7192 10.4808 12.3656 10.4808 12C10.4808 11.8093 10.4848 11.6225 10.4927 11.4397C10.5007 11.2689 10.5086 11.106 10.5205 10.943C10.8027 10.7523 11.1007 10.5656 11.4146 10.3828C11.5338 10.3113 11.657 10.2437 11.7762 10.1801C11.9669 10.0768 12.1576 9.98146 12.3484 9.88609C12.6543 10.0331 12.9642 10.2 13.2821 10.3828C13.4172 10.4623 13.5484 10.5377 13.6755 10.6172C13.8503 10.7245 14.0172 10.8318 14.1801 10.943C14.204 11.2808 14.2159 11.6344 14.2159 12C14.2159 12.1907 14.2119 12.3775 14.204 12.5603C14.196 12.7272 14.1881 12.894 14.1762 13.057C13.894 13.2477 13.596 13.4344 13.2821 13.6172C13.1987 13.6649 13.1192 13.7126 13.0358 13.7563C12.8252 13.8755 12.6146 13.9828 12.408 14.0861C12.3881 14.094 12.3682 14.106 12.3484 14.1139C12.0384 13.9629 11.7245 13.796 11.4146 13.6172ZM9.45166 12.2543C9.34835 12.1709 9.25299 12.0834 9.15762 12C9.28875 11.8848 9.42385 11.7656 9.56689 11.6503C9.6861 11.555 9.80928 11.4556 9.9404 11.3603C9.93246 11.5192 9.92848 11.6821 9.92848 11.845C9.92848 11.8967 9.92848 11.9483 9.92848 12C9.92848 12.2185 9.93246 12.4291 9.9404 12.6397C9.76954 12.5126 9.60265 12.3854 9.45166 12.2543ZM14.7722 12.1589C14.7722 12.1073 14.7722 12.0556 14.7722 12C14.7722 11.7815 14.7682 11.5709 14.7603 11.3603C14.9311 11.4874 15.094 11.6185 15.249 11.7457C15.3484 11.8291 15.4477 11.9166 15.5391 12C15.4358 12.0914 15.3285 12.1868 15.2172 12.2781C15.2013 12.2901 15.1854 12.306 15.1695 12.3179C15.0384 12.4252 14.8993 12.5364 14.7563 12.6437C14.7642 12.4848 14.7722 12.3219 14.7722 12.1589ZM10.6676 14.3126C10.6358 14.1338 10.6119 13.951 10.5881 13.7642C10.7589 13.8715 10.9298 13.9748 11.1086 14.0781C11.1166 14.0861 11.1285 14.0901 11.1364 14.094C11.3232 14.2013 11.5099 14.3046 11.7007 14.404C11.7007 14.404 11.6967 14.404 11.6967 14.4079C11.498 14.4914 11.3033 14.5669 11.1126 14.6384C11.0848 14.6503 11.057 14.6583 11.0291 14.6702C10.9378 14.702 10.8464 14.7338 10.755 14.7616C10.7232 14.6185 10.6954 14.4675 10.6676 14.3126ZM13.5007 14.6066C13.3338 14.543 13.1669 14.4795 12.996 14.4079C13.0199 14.396 13.0437 14.3841 13.0676 14.3722C13.2305 14.2848 13.3934 14.1934 13.5603 14.102C13.608 14.0742 13.6556 14.0464 13.6993 14.0185C13.8384 13.9351 13.9735 13.8517 14.1086 13.7682C14.0848 13.947 14.0609 14.1258 14.0331 14.2927C14.0053 14.4556 13.9735 14.6106 13.9417 14.7656C13.7987 14.7139 13.6517 14.6623 13.5007 14.6066ZM11.6331 12C11.6331 11.6066 11.955 11.2848 12.3484 11.2848C12.7417 11.2848 13.0636 11.6066 13.0636 12C13.0636 12.3934 12.7417 12.7152 12.3484 12.7152C11.955 12.7152 11.6331 12.3934 11.6331 12Z" fill="url(#paint0_linear_46_84)"/>
</g>
<defs>
<linearGradient id="paint0_linear_46_84" x1="7.95891" y1="11.8075" x2="17.3721" y2="12.2202" gradientUnits="userSpaceOnUse">
<stop stop-color="#6B57A5"/>
<stop offset="1" stop-color="#59499E"/>
</linearGradient>
<clipPath id="clip0_46_84">
<rect width="10.6967" height="12" fill="white" transform="translate(7 6)"/>
</clipPath>
</defs>
</svg>
