<svg width="24" height="24" viewBox="0 0 24 24" fill="none" xmlns="http://www.w3.org/2000/svg">
<circle cx="12" cy="12" r="12" fill="#2C7DF7"/>
<g clip-path="url(#clip0_43_339)">
<path d="M13.59 20C12.4483 20 11.6149 19.725 11.09 19.175C10.6037 18.7094 10.3215 18.0703 10.305 17.3972C10.2991 17.1928 10.3465 16.9903 10.4425 16.8096C10.5321 16.6536 10.6615 16.5241 10.8175 16.4344C10.9988 16.344 11.1986 16.2969 11.4012 16.2969C11.6038 16.2969 11.8037 16.344 11.985 16.4344C12.1407 16.5238 12.2695 16.6534 12.3578 16.8096C12.4566 16.9894 12.5058 17.1922 12.5002 17.3972C12.5104 17.6421 12.4402 17.8835 12.3003 18.0847C12.1836 18.2489 12.0169 18.3709 11.8251 18.4325C12.0127 18.6713 12.2781 18.8367 12.5751 18.9C12.9074 18.9965 13.2515 19.0461 13.5975 19.0474C14.0557 19.0514 14.5043 18.9173 14.8851 18.6625C15.28 18.3834 15.5746 17.9846 15.725 17.525C15.9158 16.978 16.0089 16.4017 16 15.8225C16.0154 15.2187 15.9135 14.6176 15.7 14.0525C15.5394 13.6005 15.2346 13.214 14.8325 12.9525C14.4588 12.716 14.025 12.5919 13.5828 12.595C13.1974 12.6277 12.8258 12.7538 12.5002 12.9625L11.6975 13.365V12.9625L15.305 8.12304H10.305V13.145C10.2909 13.5074 10.3868 13.8656 10.58 14.1725C10.6735 14.3062 10.8 14.4136 10.9472 14.4841C11.0943 14.5546 11.2572 14.5859 11.42 14.575C11.7208 14.5689 12.0118 14.4664 12.2499 14.2825C12.5199 14.0846 12.7549 13.8429 12.945 13.5675C12.9621 13.5192 12.9937 13.4773 13.0354 13.4475C13.0689 13.4186 13.1116 13.4026 13.1559 13.4025C13.2428 13.4105 13.325 13.4454 13.3909 13.5025C13.4745 13.5959 13.52 13.7172 13.5184 13.8425C13.5087 13.9267 13.4937 14.0102 13.4734 14.0925C13.2958 14.5224 12.9981 14.892 12.6158 15.1571C12.2609 15.3973 11.8416 15.5247 11.413 15.5225C10.3304 15.5225 9.5805 15.3092 9.16314 14.8825C8.94862 14.6467 8.78329 14.3704 8.67682 14.07C8.57036 13.7695 8.52491 13.4507 8.54313 13.1325V8.12304H6V7.18996H8.55498V5.06245L7.97002 4.47709V4H9.66744L10.305 4.33004V7.18996L16.9099 7.16987L17.5675 7.82986L13.5175 11.8996C13.7622 11.8012 14.0198 11.7388 14.2824 11.7146C14.8022 11.7373 15.3093 11.8821 15.7627 12.1371C16.2878 12.3867 16.7303 12.7816 17.0378 13.275C17.3133 13.6927 17.5083 14.1582 17.6128 14.6475C17.6987 15.0335 17.7448 15.4272 17.7503 15.8226C17.753 16.5772 17.5819 17.3222 17.2503 18.0001C16.9359 18.6564 16.4066 19.1857 15.7503 19.5001C15.0784 19.8312 14.339 20.0023 13.59 20V20Z" fill="white"/>
</g>
<defs>
<clipPath id="clip0_43_339">
<rect width="11.7501" height="16" fill="white" transform="translate(6 4)"/>
</clipPath>
</defs>
</svg>
