<svg width="24" height="24" viewBox="0 0 24 24" fill="none" xmlns="http://www.w3.org/2000/svg">
<path d="M12.1253 22.0571C6.65712 22.0571 2.19341 17.5889 2.19341 12.1253C2.19341 6.65713 6.66163 2.19342 12.1253 2.19342C17.5934 2.19342 22.0571 6.66165 22.0571 12.1253C22.0571 17.5935 17.5934 22.0571 12.1253 22.0571Z" fill="url(#paint0_linear_42_325)"/>
<path d="M12 24C5.4 24 0 18.6 0 12C0 5.4 5.4 0 12 0C18.6 0 24 5.4 24 12C24 18.6 18.6 24 12 24ZM12 2.66822C6.86822 2.66822 2.66822 6.86822 2.66822 12C2.66822 17.1318 6.86822 21.3318 12 21.3318C17.1318 21.3318 21.3318 17.1318 21.3318 12C21.3318 6.86822 17.1318 2.66822 12 2.66822Z" fill="black"/>
<path d="M11.7221 15.2505H16.9221V17.8505H13.854V20.0505H11.1857V17.9187H7.98577C7.98577 17.0505 7.85396 16.1869 8.05393 15.3869C8.12209 14.9869 8.58577 14.5868 8.92206 14.1869C9.92209 12.9869 10.9221 11.7869 11.9903 10.5869C12.3902 10.1187 12.7903 9.71866 13.2585 9.18692H8.2585V6.58685H11.1902V4.38721H13.7903V6.51841H16.9903C16.9903 7.38653 17.1221 8.25025 16.9221 9.05021C16.854 9.45025 16.3903 9.85018 16.0539 10.2502C15.054 11.4502 14.0539 12.6502 12.9857 13.8502C12.5856 14.3187 12.1858 14.7823 11.7221 15.2505Z" fill="black"/>
<defs>
<linearGradient id="paint0_linear_42_325" x1="5.3059" y1="18.9358" x2="19.0165" y2="5.22517" gradientUnits="userSpaceOnUse">
<stop stop-color="#CF8724"/>
<stop offset="1" stop-color="#FDCE58"/>
</linearGradient>
</defs>
</svg>
